G04*
G04 #@! TF.GenerationSoftware,Altium Limited,Altium Designer,25.6.2 (33)*
G04*
G04 Layer_Physical_Order=1*
G04 Layer_Color=255*
%FSLAX44Y44*%
%MOMM*%
G71*
G04*
G04 #@! TF.SameCoordinates,257071CF-CA64-45DC-81DD-B27BF0D561B2*
G04*
G04*
G04 #@! TF.FilePolarity,Positive*
G04*
G01*
G75*
%ADD11C,0.2540*%
%ADD19C,1.0000*%
%ADD20C,1.7000*%
%ADD21R,1.7000X1.7000*%
G04:AMPARAMS|DCode=22|XSize=1.7mm|YSize=1.7mm|CornerRadius=0mm|HoleSize=0mm|Usage=FLASHONLY|Rotation=0.000|XOffset=0mm|YOffset=0mm|HoleType=Round|Shape=Octagon|*
%AMOCTAGOND22*
4,1,8,0.8500,-0.4250,0.8500,0.4250,0.4250,0.8500,-0.4250,0.8500,-0.8500,0.4250,-0.8500,-0.4250,-0.4250,-0.8500,0.4250,-0.8500,0.8500,-0.4250,0.0*
%
%ADD22OCTAGOND22*%

%ADD23R,1.7000X1.7000*%
G04:AMPARAMS|DCode=24|XSize=1.7mm|YSize=1.7mm|CornerRadius=0mm|HoleSize=0mm|Usage=FLASHONLY|Rotation=270.000|XOffset=0mm|YOffset=0mm|HoleType=Round|Shape=Octagon|*
%AMOCTAGOND24*
4,1,8,-0.4250,-0.8500,0.4250,-0.8500,0.8500,-0.4250,0.8500,0.4250,0.4250,0.8500,-0.4250,0.8500,-0.8500,0.4250,-0.8500,-0.4250,-0.4250,-0.8500,0.0*
%
%ADD24OCTAGOND24*%

%ADD25C,0.4000*%
%ADD26C,1.2700*%
G36*
X600000Y-690000D02*
X-10000D01*
Y160000D01*
X600000D01*
Y-690000D01*
D02*
G37*
%LPC*%
G36*
X490353Y91040D02*
X487447D01*
X484639Y90288D01*
X482121Y88834D01*
X480066Y86779D01*
X478612Y84261D01*
X477860Y81453D01*
Y78547D01*
X478612Y75739D01*
X480066Y73221D01*
X482121Y71166D01*
X484639Y69712D01*
X487447Y68960D01*
X490353D01*
X493161Y69712D01*
X495679Y71166D01*
X497734Y73221D01*
X499188Y75739D01*
X499940Y78547D01*
Y81453D01*
X499188Y84261D01*
X497734Y86779D01*
X495679Y88834D01*
X493161Y90288D01*
X490353Y91040D01*
D02*
G37*
G36*
X464953D02*
X462047D01*
X459239Y90288D01*
X456721Y88834D01*
X454666Y86779D01*
X453212Y84261D01*
X452460Y81453D01*
Y78547D01*
X453212Y75739D01*
X454666Y73221D01*
X456721Y71166D01*
X459239Y69712D01*
X462047Y68960D01*
X464953D01*
X467761Y69712D01*
X470279Y71166D01*
X472334Y73221D01*
X473788Y75739D01*
X474540Y78547D01*
Y81453D01*
X473788Y84261D01*
X472334Y86779D01*
X470279Y88834D01*
X467761Y90288D01*
X464953Y91040D01*
D02*
G37*
G36*
X414153D02*
X411246D01*
X408439Y90288D01*
X405921Y88834D01*
X403866Y86779D01*
X402412Y84261D01*
X401660Y81453D01*
Y78547D01*
X402412Y75739D01*
X403866Y73221D01*
X405921Y71166D01*
X408439Y69712D01*
X411246Y68960D01*
X414153D01*
X416961Y69712D01*
X419479Y71166D01*
X421534Y73221D01*
X422988Y75739D01*
X423740Y78547D01*
Y81453D01*
X422988Y84261D01*
X421534Y86779D01*
X419479Y88834D01*
X416961Y90288D01*
X414153Y91040D01*
D02*
G37*
G36*
X388753D02*
X385846D01*
X383039Y90288D01*
X380521Y88834D01*
X378466Y86779D01*
X377012Y84261D01*
X376260Y81453D01*
Y78547D01*
X377012Y75739D01*
X378466Y73221D01*
X380521Y71166D01*
X383039Y69712D01*
X385846Y68960D01*
X388753D01*
X391561Y69712D01*
X394079Y71166D01*
X396134Y73221D01*
X397588Y75739D01*
X398340Y78547D01*
Y81453D01*
X397588Y84261D01*
X396134Y86779D01*
X394079Y88834D01*
X391561Y90288D01*
X388753Y91040D01*
D02*
G37*
G36*
X363353D02*
X360447D01*
X357639Y90288D01*
X355121Y88834D01*
X353066Y86779D01*
X351612Y84261D01*
X350860Y81453D01*
Y78547D01*
X351612Y75739D01*
X353066Y73221D01*
X355121Y71166D01*
X357639Y69712D01*
X360447Y68960D01*
X363353D01*
X366161Y69712D01*
X368679Y71166D01*
X370734Y73221D01*
X372188Y75739D01*
X372940Y78547D01*
Y81453D01*
X372188Y84261D01*
X370734Y86779D01*
X368679Y88834D01*
X366161Y90288D01*
X363353Y91040D01*
D02*
G37*
G36*
X337953D02*
X335047D01*
X332239Y90288D01*
X329721Y88834D01*
X327666Y86779D01*
X326212Y84261D01*
X325460Y81453D01*
Y78547D01*
X326212Y75739D01*
X327666Y73221D01*
X329721Y71166D01*
X332239Y69712D01*
X335047Y68960D01*
X337953D01*
X340761Y69712D01*
X343279Y71166D01*
X345334Y73221D01*
X346788Y75739D01*
X347540Y78547D01*
Y81453D01*
X346788Y84261D01*
X345334Y86779D01*
X343279Y88834D01*
X340761Y90288D01*
X337953Y91040D01*
D02*
G37*
G36*
X312553D02*
X309646D01*
X306839Y90288D01*
X304321Y88834D01*
X302266Y86779D01*
X300812Y84261D01*
X300060Y81453D01*
Y78547D01*
X300812Y75739D01*
X302266Y73221D01*
X304321Y71166D01*
X306839Y69712D01*
X309646Y68960D01*
X312553D01*
X315361Y69712D01*
X317879Y71166D01*
X319934Y73221D01*
X321388Y75739D01*
X322140Y78547D01*
Y81453D01*
X321388Y84261D01*
X319934Y86779D01*
X317879Y88834D01*
X315361Y90288D01*
X312553Y91040D01*
D02*
G37*
G36*
X291220D02*
X280180D01*
X274660Y85520D01*
Y74480D01*
X280180Y68960D01*
X291220D01*
X296740Y74480D01*
Y85520D01*
X291220Y91040D01*
D02*
G37*
G36*
X41040Y39640D02*
X18960D01*
Y17560D01*
X41040D01*
Y39640D01*
D02*
G37*
G36*
X31453Y14240D02*
X28547D01*
X25739Y13488D01*
X23221Y12034D01*
X21166Y9979D01*
X19712Y7461D01*
X18960Y4653D01*
Y1746D01*
X19712Y-1061D01*
X20650Y-2685D01*
X19457Y-5225D01*
X16910D01*
X15423Y-5521D01*
X14400Y-6205D01*
X12781Y-4232D01*
X13434Y-3579D01*
X14888Y-1061D01*
X15640Y1746D01*
Y4653D01*
X14888Y7461D01*
X13434Y9979D01*
X11379Y12034D01*
X8861Y13488D01*
X6053Y14240D01*
X3147D01*
X339Y13488D01*
X-2179Y12034D01*
X-4234Y9979D01*
X-5688Y7461D01*
X-6440Y4653D01*
Y1746D01*
X-5688Y-1061D01*
X-4234Y-3579D01*
X-2179Y-5634D01*
X339Y-7088D01*
X3147Y-7840D01*
X6053D01*
X8861Y-7088D01*
X10882Y-5921D01*
X11379Y-5634D01*
X13040Y-7486D01*
X12615Y-7911D01*
X8666Y-11860D01*
X6053Y-11160D01*
X3147D01*
X339Y-11912D01*
X-2179Y-13366D01*
X-4234Y-15421D01*
X-5688Y-17939D01*
X-6440Y-20747D01*
Y-23654D01*
X-5688Y-26461D01*
X-4234Y-28979D01*
X-2179Y-31034D01*
X339Y-32488D01*
X3147Y-33240D01*
X6053D01*
X8861Y-32488D01*
X11379Y-31034D01*
X13434Y-28979D01*
X14888Y-26461D01*
X15640Y-23654D01*
Y-20747D01*
X14888Y-17939D01*
X14407Y-17107D01*
X17695Y-13818D01*
X19231Y-14011D01*
X20461Y-16641D01*
X19712Y-17939D01*
X18960Y-20747D01*
Y-23654D01*
X19712Y-26461D01*
X21166Y-28979D01*
X23221Y-31034D01*
X25739Y-32488D01*
X28547Y-33240D01*
X31453D01*
X34261Y-32488D01*
X36779Y-31034D01*
X38834Y-28979D01*
X40211Y-26594D01*
X341100D01*
X498144Y-183637D01*
X498144Y-619497D01*
X497339Y-619712D01*
X494821Y-621166D01*
X492766Y-623221D01*
X491312Y-625739D01*
X490560Y-628547D01*
Y-631453D01*
X491312Y-634261D01*
X492766Y-636779D01*
X494821Y-638834D01*
X497339Y-640288D01*
X500146Y-641040D01*
X503053D01*
X505861Y-640288D01*
X506087Y-640157D01*
X508966Y-641428D01*
X509167Y-642339D01*
X506199Y-645307D01*
X505861Y-645112D01*
X503053Y-644360D01*
X500146D01*
X497339Y-645112D01*
X494821Y-646566D01*
X492766Y-648621D01*
X491312Y-651139D01*
X490560Y-653947D01*
Y-656853D01*
X491312Y-659661D01*
X492766Y-662179D01*
X494821Y-664234D01*
X497339Y-665688D01*
X500146Y-666440D01*
X503053D01*
X505861Y-665688D01*
X508379Y-664234D01*
X510434Y-662179D01*
X511888Y-659661D01*
X512640Y-656853D01*
Y-653947D01*
X511888Y-651139D01*
X511693Y-650801D01*
X517012Y-645481D01*
X517854Y-644221D01*
X518150Y-642735D01*
Y-640355D01*
X519097Y-639660D01*
X520690Y-639105D01*
X522739Y-640288D01*
X525546Y-641040D01*
X528453D01*
X531261Y-640288D01*
X533779Y-638834D01*
X535834Y-636779D01*
X537288Y-634261D01*
X538040Y-631453D01*
Y-628547D01*
X537288Y-625739D01*
X535834Y-623221D01*
X533779Y-621166D01*
X531261Y-619712D01*
X528453Y-618960D01*
X525546D01*
X522739Y-619712D01*
X520690Y-620895D01*
X519097Y-620340D01*
X518150Y-619645D01*
Y-164265D01*
X517854Y-162779D01*
X517012Y-161519D01*
X361857Y-6363D01*
X360597Y-5521D01*
X359110Y-5225D01*
X40543D01*
X39350Y-2685D01*
X40288Y-1061D01*
X41040Y1746D01*
Y4653D01*
X40288Y7461D01*
X38834Y9979D01*
X36779Y12034D01*
X34261Y13488D01*
X31453Y14240D01*
D02*
G37*
G36*
X6053Y-36560D02*
X3147D01*
X339Y-37312D01*
X-2179Y-38766D01*
X-4234Y-40821D01*
X-5688Y-43339D01*
X-6440Y-46147D01*
Y-49054D01*
X-5688Y-51861D01*
X-4234Y-54379D01*
X-2179Y-56434D01*
X339Y-57888D01*
X3147Y-58640D01*
X6053D01*
X8861Y-57888D01*
X11379Y-56434D01*
X13434Y-54379D01*
X14888Y-51861D01*
X15640Y-49054D01*
Y-46147D01*
X14888Y-43339D01*
X13434Y-40821D01*
X11379Y-38766D01*
X8861Y-37312D01*
X6053Y-36560D01*
D02*
G37*
G36*
Y-61960D02*
X3147D01*
X339Y-62712D01*
X-2179Y-64166D01*
X-4234Y-66221D01*
X-5688Y-68739D01*
X-6440Y-71547D01*
Y-74454D01*
X-5688Y-77261D01*
X-4234Y-79779D01*
X-2179Y-81834D01*
X339Y-83288D01*
X3147Y-84040D01*
X6053D01*
X8861Y-83288D01*
X11379Y-81834D01*
X13434Y-79779D01*
X14888Y-77261D01*
X15640Y-74454D01*
Y-71547D01*
X14888Y-68739D01*
X13434Y-66221D01*
X11379Y-64166D01*
X8861Y-62712D01*
X6053Y-61960D01*
D02*
G37*
G36*
X31453Y-87360D02*
X28547D01*
X25739Y-88112D01*
X23221Y-89566D01*
X21166Y-91621D01*
X19712Y-94139D01*
X18960Y-96947D01*
Y-99853D01*
X19712Y-102661D01*
X21166Y-105179D01*
X23221Y-107234D01*
X25739Y-108688D01*
X28547Y-109440D01*
X31453D01*
X34261Y-108688D01*
X36779Y-107234D01*
X38834Y-105179D01*
X40288Y-102661D01*
X41040Y-99853D01*
Y-96947D01*
X40288Y-94139D01*
X38834Y-91621D01*
X36779Y-89566D01*
X34261Y-88112D01*
X31453Y-87360D01*
D02*
G37*
G36*
X6053D02*
X3147D01*
X339Y-88112D01*
X-2179Y-89566D01*
X-4234Y-91621D01*
X-5688Y-94139D01*
X-6440Y-96947D01*
Y-99853D01*
X-5688Y-102661D01*
X-4234Y-105179D01*
X-2179Y-107234D01*
X339Y-108688D01*
X3147Y-109440D01*
X6053D01*
X8861Y-108688D01*
X11379Y-107234D01*
X13434Y-105179D01*
X14888Y-102661D01*
X15640Y-99853D01*
Y-96947D01*
X14888Y-94139D01*
X13434Y-91621D01*
X11379Y-89566D01*
X8861Y-88112D01*
X6053Y-87360D01*
D02*
G37*
G36*
X31453Y-36560D02*
X28547D01*
X25739Y-37312D01*
X23221Y-38766D01*
X21166Y-40821D01*
X19712Y-43339D01*
X18960Y-46147D01*
Y-49054D01*
X19712Y-51861D01*
X21166Y-54379D01*
X23221Y-56434D01*
X25739Y-57888D01*
X28547Y-58640D01*
X31453D01*
X34261Y-57888D01*
X36779Y-56434D01*
X38834Y-54379D01*
X39120Y-53885D01*
X314133D01*
X370635Y-110387D01*
Y-131945D01*
X368095Y-132473D01*
X367239Y-130991D01*
X365584Y-129335D01*
X363557Y-128165D01*
X361296Y-127559D01*
X358955D01*
X357199Y-128030D01*
X299423Y-70253D01*
X298163Y-69411D01*
X296676Y-69115D01*
X40388D01*
X40288Y-68739D01*
X38834Y-66221D01*
X36779Y-64166D01*
X34261Y-62712D01*
X31453Y-61960D01*
X28547D01*
X25739Y-62712D01*
X23221Y-64166D01*
X21166Y-66221D01*
X19712Y-68739D01*
X18960Y-71547D01*
Y-74454D01*
X19712Y-77261D01*
X21166Y-79779D01*
X23221Y-81834D01*
X25739Y-83288D01*
X28547Y-84040D01*
X31453D01*
X34261Y-83288D01*
X36779Y-81834D01*
X38834Y-79779D01*
X40288Y-77261D01*
X40388Y-76885D01*
X295067D01*
X351706Y-133523D01*
X351235Y-135279D01*
Y-137620D01*
X351841Y-139881D01*
X353012Y-141908D01*
X354667Y-143563D01*
X356694Y-144733D01*
X358955Y-145339D01*
X361296D01*
X363557Y-144733D01*
X365584Y-143563D01*
X367239Y-141908D01*
X368095Y-140425D01*
X370635Y-140953D01*
Y-161619D01*
X369141Y-162482D01*
X367486Y-164137D01*
X366316Y-166164D01*
X365710Y-168425D01*
Y-170766D01*
X366316Y-173027D01*
X367486Y-175054D01*
X369141Y-176709D01*
X371169Y-177880D01*
X373430Y-178486D01*
X375770D01*
X378031Y-177880D01*
X380059Y-176709D01*
X381714Y-175054D01*
X382884Y-173027D01*
X383490Y-170766D01*
Y-168425D01*
X382884Y-166164D01*
X381714Y-164137D01*
X380059Y-162482D01*
X378405Y-161527D01*
Y-108778D01*
X378109Y-107291D01*
X377267Y-106031D01*
X318489Y-47253D01*
X317228Y-46411D01*
X315742Y-46115D01*
X41032D01*
X40288Y-43339D01*
X38834Y-40821D01*
X36779Y-38766D01*
X34261Y-37312D01*
X31453Y-36560D01*
D02*
G37*
G36*
X6053Y-112760D02*
X3147D01*
X339Y-113512D01*
X-2179Y-114966D01*
X-4234Y-117021D01*
X-5688Y-119539D01*
X-6440Y-122347D01*
Y-125253D01*
X-5688Y-128061D01*
X-4234Y-130579D01*
X-2179Y-132634D01*
X339Y-134088D01*
X3147Y-134840D01*
X6053D01*
X8861Y-134088D01*
X11379Y-132634D01*
X13434Y-130579D01*
X14888Y-128061D01*
X15640Y-125253D01*
Y-122347D01*
X14888Y-119539D01*
X13434Y-117021D01*
X11379Y-114966D01*
X8861Y-113512D01*
X6053Y-112760D01*
D02*
G37*
G36*
X31453D02*
X28547D01*
X25739Y-113512D01*
X23221Y-114966D01*
X21166Y-117021D01*
X19712Y-119539D01*
X18960Y-122347D01*
Y-125253D01*
X19712Y-128061D01*
X21100Y-130465D01*
X20973Y-130979D01*
X20000Y-133005D01*
X16910D01*
X15423Y-133301D01*
X14163Y-134143D01*
X9199Y-139107D01*
X8861Y-138912D01*
X6053Y-138160D01*
X3147D01*
X339Y-138912D01*
X-2179Y-140366D01*
X-4234Y-142421D01*
X-5688Y-144939D01*
X-6440Y-147747D01*
Y-150653D01*
X-5688Y-153461D01*
X-4234Y-155979D01*
X-2179Y-158034D01*
X339Y-159488D01*
X3147Y-160240D01*
X6053D01*
X8861Y-159488D01*
X11379Y-158034D01*
X13434Y-155979D01*
X14888Y-153461D01*
X15640Y-150653D01*
Y-147747D01*
X14888Y-144939D01*
X14693Y-144601D01*
X17248Y-142046D01*
X18339Y-142237D01*
X19701Y-144916D01*
X19683Y-145050D01*
X18960Y-147747D01*
Y-150653D01*
X19712Y-153461D01*
X21100Y-155865D01*
X20973Y-156379D01*
X20000Y-158405D01*
X16910D01*
X15423Y-158701D01*
X14163Y-159543D01*
X9199Y-164507D01*
X8861Y-164312D01*
X6053Y-163560D01*
X3147D01*
X339Y-164312D01*
X-2179Y-165766D01*
X-4234Y-167821D01*
X-5688Y-170339D01*
X-6440Y-173147D01*
Y-176054D01*
X-5688Y-178861D01*
X-4234Y-181379D01*
X-2179Y-183434D01*
X339Y-184888D01*
X3147Y-185640D01*
X6053D01*
X8861Y-184888D01*
X11379Y-183434D01*
X13434Y-181379D01*
X14888Y-178861D01*
X15640Y-176054D01*
Y-173147D01*
X14888Y-170339D01*
X14693Y-170001D01*
X17248Y-167446D01*
X18339Y-167637D01*
X19701Y-170316D01*
X19683Y-170450D01*
X18960Y-173147D01*
Y-176054D01*
X19712Y-178861D01*
X21166Y-181379D01*
X23221Y-183434D01*
X25739Y-184888D01*
X28547Y-185640D01*
X31453D01*
X34261Y-184888D01*
X36779Y-183434D01*
X38834Y-181379D01*
X40288Y-178861D01*
X40388Y-178485D01*
X112991D01*
X434447Y-499941D01*
Y-619842D01*
X432989Y-620693D01*
X432087Y-620956D01*
X429985Y-619543D01*
Y-556100D01*
X429689Y-554614D01*
X428847Y-553353D01*
X365071Y-489578D01*
X363811Y-488736D01*
X362324Y-488440D01*
X40165D01*
X39320Y-487004D01*
X38995Y-485900D01*
X40288Y-483661D01*
X41040Y-480854D01*
Y-477947D01*
X40288Y-475139D01*
X38834Y-472621D01*
X36779Y-470566D01*
X34261Y-469112D01*
X31453Y-468360D01*
X28547D01*
X25739Y-469112D01*
X23221Y-470566D01*
X21166Y-472621D01*
X19712Y-475139D01*
X18960Y-477947D01*
Y-480854D01*
X19712Y-483661D01*
X21005Y-485900D01*
X20680Y-487004D01*
X19835Y-488440D01*
X17076D01*
X15589Y-488736D01*
X14329Y-489578D01*
X9199Y-494707D01*
X8861Y-494512D01*
X6053Y-493760D01*
X3147D01*
X339Y-494512D01*
X-2179Y-495966D01*
X-4234Y-498021D01*
X-5688Y-500539D01*
X-6440Y-503347D01*
Y-506254D01*
X-5688Y-509061D01*
X-4234Y-511579D01*
X-2179Y-513634D01*
X339Y-515088D01*
X3147Y-515840D01*
X6053D01*
X8861Y-515088D01*
X11379Y-513634D01*
X13434Y-511579D01*
X14888Y-509061D01*
X15640Y-506254D01*
Y-503347D01*
X14888Y-500539D01*
X14693Y-500201D01*
X17441Y-497453D01*
X18448Y-497649D01*
X19741Y-500490D01*
X19712Y-500539D01*
X18960Y-503347D01*
Y-506254D01*
X19712Y-509061D01*
X21100Y-511465D01*
X20973Y-511979D01*
X20000Y-514005D01*
X16910D01*
X15423Y-514301D01*
X14163Y-515143D01*
X9199Y-520107D01*
X8861Y-519912D01*
X6053Y-519160D01*
X3147D01*
X339Y-519912D01*
X-2179Y-521366D01*
X-4234Y-523421D01*
X-5688Y-525939D01*
X-6440Y-528747D01*
Y-531654D01*
X-5688Y-534461D01*
X-4234Y-536979D01*
X-2179Y-539034D01*
X339Y-540488D01*
X3147Y-541240D01*
X6053D01*
X8861Y-540488D01*
X11379Y-539034D01*
X13434Y-536979D01*
X14888Y-534461D01*
X15640Y-531654D01*
Y-528747D01*
X14888Y-525939D01*
X14693Y-525601D01*
X17248Y-523046D01*
X18339Y-523237D01*
X19701Y-525916D01*
X19683Y-526050D01*
X18960Y-528747D01*
Y-531654D01*
X19712Y-534461D01*
X21166Y-536979D01*
X23221Y-539034D01*
X25739Y-540488D01*
X28547Y-541240D01*
X31453D01*
X34261Y-540488D01*
X36779Y-539034D01*
X38834Y-536979D01*
X40288Y-534461D01*
X40388Y-534085D01*
X322138D01*
X383778Y-595724D01*
Y-619972D01*
X381863Y-620925D01*
X381237Y-621084D01*
X378861Y-619712D01*
X376053Y-618960D01*
X373147D01*
X370339Y-619712D01*
X367821Y-621166D01*
X365766Y-623221D01*
X364312Y-625739D01*
X363560Y-628547D01*
Y-631453D01*
X364312Y-634261D01*
X365766Y-636779D01*
X367821Y-638834D01*
X370339Y-640288D01*
X373147Y-641040D01*
X376053D01*
X378861Y-640288D01*
X381237Y-638916D01*
X381863Y-639075D01*
X383778Y-640027D01*
Y-643154D01*
X384073Y-644641D01*
X384915Y-645901D01*
X389874Y-650860D01*
X389712Y-651139D01*
X388960Y-653947D01*
Y-656853D01*
X389712Y-659661D01*
X391166Y-662179D01*
X393221Y-664234D01*
X395739Y-665688D01*
X398546Y-666440D01*
X401453D01*
X404261Y-665688D01*
X406779Y-664234D01*
X408834Y-662179D01*
X410288Y-659661D01*
X411040Y-656853D01*
Y-653947D01*
X410288Y-651139D01*
X408834Y-648621D01*
X406779Y-646566D01*
X404261Y-645112D01*
X401453Y-644360D01*
X398546D01*
X395739Y-645112D01*
X395342Y-645341D01*
X392750Y-642749D01*
X392943Y-641606D01*
X395739Y-640288D01*
X398546Y-641040D01*
X401453D01*
X404261Y-640288D01*
X406521Y-638983D01*
X407559Y-639282D01*
X409061Y-640144D01*
Y-642945D01*
X409356Y-644432D01*
X410199Y-645692D01*
X415307Y-650801D01*
X415112Y-651139D01*
X414360Y-653947D01*
Y-656853D01*
X415112Y-659661D01*
X416566Y-662179D01*
X418621Y-664234D01*
X421139Y-665688D01*
X423946Y-666440D01*
X426853D01*
X429661Y-665688D01*
X432179Y-664234D01*
X434234Y-662179D01*
X435688Y-659661D01*
X436440Y-656853D01*
Y-653947D01*
X435688Y-651139D01*
X434234Y-648621D01*
X432179Y-646566D01*
X429661Y-645112D01*
X426853Y-644360D01*
X423946D01*
X421139Y-645112D01*
X420801Y-645307D01*
X418077Y-642584D01*
X418273Y-641566D01*
X421110Y-640271D01*
X421139Y-640288D01*
X423946Y-641040D01*
X426853D01*
X429661Y-640288D01*
X431907Y-638991D01*
X432989Y-639307D01*
X434447Y-640158D01*
Y-642533D01*
X434743Y-644020D01*
X435585Y-645280D01*
X440853Y-650548D01*
X440512Y-651139D01*
X439760Y-653947D01*
Y-656853D01*
X440512Y-659661D01*
X441966Y-662179D01*
X444021Y-664234D01*
X446539Y-665688D01*
X449347Y-666440D01*
X452253D01*
X455061Y-665688D01*
X457579Y-664234D01*
X459634Y-662179D01*
X461088Y-659661D01*
X461840Y-656853D01*
Y-653947D01*
X461088Y-651139D01*
X460182Y-649569D01*
X459634Y-648621D01*
X461443Y-646855D01*
X462258Y-647671D01*
X465873Y-651286D01*
X465160Y-653947D01*
Y-656853D01*
X465912Y-659661D01*
X467366Y-662179D01*
X469421Y-664234D01*
X471939Y-665688D01*
X474747Y-666440D01*
X477653D01*
X480461Y-665688D01*
X482979Y-664234D01*
X485034Y-662179D01*
X486488Y-659661D01*
X487240Y-656853D01*
Y-653947D01*
X486488Y-651139D01*
X485034Y-648621D01*
X482979Y-646566D01*
X480461Y-645112D01*
X477653Y-644360D01*
X474747D01*
X471939Y-645112D01*
X471145Y-645570D01*
X467950Y-642375D01*
X468118Y-640829D01*
X470749Y-639600D01*
X471939Y-640288D01*
X474747Y-641040D01*
X477653D01*
X480461Y-640288D01*
X482979Y-638834D01*
X485034Y-636779D01*
X486488Y-634261D01*
X487240Y-631453D01*
Y-628547D01*
X486488Y-625739D01*
X485034Y-623221D01*
X482979Y-621166D01*
X480461Y-619712D01*
X477653Y-618960D01*
X474747D01*
X471939Y-619712D01*
X469642Y-621038D01*
X468725Y-620783D01*
X467103Y-619893D01*
Y-463218D01*
X466807Y-461731D01*
X465965Y-460471D01*
X165247Y-159753D01*
X163986Y-158911D01*
X162500Y-158615D01*
X75846Y-158615D01*
X74790Y-158405D01*
X40000D01*
X39026Y-156379D01*
X38900Y-155865D01*
X40288Y-153461D01*
X40388Y-153085D01*
X237591D01*
X446296Y-361790D01*
Y-418475D01*
X444723Y-419384D01*
X443067Y-421039D01*
X441897Y-423066D01*
X441291Y-425327D01*
Y-427668D01*
X441897Y-429929D01*
X443067Y-431956D01*
X444723Y-433611D01*
X446750Y-434781D01*
X449011Y-435387D01*
X451351D01*
X453613Y-434781D01*
X455640Y-433611D01*
X457295Y-431956D01*
X458465Y-429929D01*
X459071Y-427668D01*
Y-425327D01*
X458465Y-423066D01*
X457295Y-421039D01*
X455640Y-419384D01*
X454066Y-418475D01*
Y-360181D01*
X453770Y-358694D01*
X452928Y-357434D01*
X241947Y-146453D01*
X240687Y-145611D01*
X239200Y-145315D01*
X40638D01*
X39414Y-143179D01*
X40543Y-140775D01*
X265281D01*
X421402Y-296896D01*
X421086Y-298079D01*
Y-300420D01*
X421691Y-302681D01*
X422862Y-304708D01*
X424517Y-306363D01*
X426544Y-307533D01*
X428805Y-308139D01*
X431146D01*
X433407Y-307533D01*
X435434Y-306363D01*
X437089Y-304708D01*
X438260Y-302681D01*
X438866Y-300420D01*
Y-298079D01*
X438260Y-295818D01*
X437089Y-293791D01*
X435434Y-292136D01*
X433407Y-290965D01*
X431146Y-290359D01*
X428805D01*
X426544Y-290965D01*
X426490Y-290996D01*
X269637Y-134143D01*
X268377Y-133301D01*
X266890Y-133005D01*
X40000D01*
X39026Y-130979D01*
X38900Y-130465D01*
X40288Y-128061D01*
X41040Y-125253D01*
Y-122347D01*
X40288Y-119539D01*
X38834Y-117021D01*
X36779Y-114966D01*
X34261Y-113512D01*
X31453Y-112760D01*
D02*
G37*
G36*
X6053Y-188960D02*
X3147D01*
X339Y-189712D01*
X-2179Y-191166D01*
X-4234Y-193221D01*
X-5688Y-195739D01*
X-6440Y-198547D01*
Y-201453D01*
X-5688Y-204261D01*
X-4234Y-206779D01*
X-2179Y-208834D01*
X339Y-210288D01*
X3147Y-211040D01*
X6053D01*
X8861Y-210288D01*
X11379Y-208834D01*
X13434Y-206779D01*
X14888Y-204261D01*
X15640Y-201453D01*
Y-198547D01*
X14888Y-195739D01*
X13434Y-193221D01*
X11379Y-191166D01*
X8861Y-189712D01*
X6053Y-188960D01*
D02*
G37*
G36*
X568472Y-315601D02*
X557432D01*
X551912Y-321120D01*
Y-332160D01*
X557432Y-337681D01*
X568472D01*
X573992Y-332160D01*
Y-321120D01*
X568472Y-315601D01*
D02*
G37*
G36*
X41040Y-315960D02*
X18960D01*
Y-338040D01*
X41040D01*
Y-315960D01*
D02*
G37*
G36*
X564405Y-341001D02*
X561498D01*
X558690Y-341753D01*
X556173Y-343206D01*
X554118Y-345262D01*
X552664Y-347779D01*
X551912Y-350587D01*
Y-353494D01*
X552664Y-356302D01*
X554118Y-358819D01*
X556173Y-360875D01*
X558690Y-362328D01*
X561498Y-363080D01*
X564405D01*
X567213Y-362328D01*
X569730Y-360875D01*
X571786Y-358819D01*
X573239Y-356302D01*
X573992Y-353494D01*
Y-350587D01*
X573239Y-347779D01*
X571786Y-345262D01*
X569730Y-343206D01*
X567213Y-341753D01*
X564405Y-341001D01*
D02*
G37*
G36*
X31453Y-341360D02*
X28547D01*
X25739Y-342112D01*
X23221Y-343566D01*
X21166Y-345621D01*
X19712Y-348139D01*
X18960Y-350947D01*
Y-353853D01*
X19712Y-356661D01*
X21166Y-359179D01*
X23221Y-361234D01*
X25739Y-362688D01*
X28547Y-363440D01*
X31453D01*
X34261Y-362688D01*
X36779Y-361234D01*
X38834Y-359179D01*
X40288Y-356661D01*
X41040Y-353853D01*
Y-350947D01*
X40288Y-348139D01*
X38834Y-345621D01*
X36779Y-343566D01*
X34261Y-342112D01*
X31453Y-341360D01*
D02*
G37*
G36*
X6053D02*
X3147D01*
X339Y-342112D01*
X-2179Y-343566D01*
X-4234Y-345621D01*
X-5688Y-348139D01*
X-6440Y-350947D01*
Y-353853D01*
X-5688Y-356661D01*
X-4234Y-359179D01*
X-2179Y-361234D01*
X339Y-362688D01*
X3147Y-363440D01*
X6053D01*
X8861Y-362688D01*
X11379Y-361234D01*
X13434Y-359179D01*
X14888Y-356661D01*
X15640Y-353853D01*
Y-350947D01*
X14888Y-348139D01*
X13434Y-345621D01*
X11379Y-343566D01*
X8861Y-342112D01*
X6053Y-341360D01*
D02*
G37*
G36*
X564405Y-366401D02*
X561498D01*
X558690Y-367153D01*
X556173Y-368606D01*
X554118Y-370662D01*
X552664Y-373179D01*
X551912Y-375987D01*
Y-378894D01*
X552664Y-381702D01*
X554118Y-384219D01*
X556173Y-386275D01*
X558690Y-387728D01*
X561498Y-388480D01*
X564405D01*
X567213Y-387728D01*
X569730Y-386275D01*
X571786Y-384219D01*
X573239Y-381702D01*
X573992Y-378894D01*
Y-375987D01*
X573239Y-373179D01*
X571786Y-370662D01*
X569730Y-368606D01*
X567213Y-367153D01*
X564405Y-366401D01*
D02*
G37*
G36*
X31453Y-366760D02*
X28547D01*
X25739Y-367512D01*
X23221Y-368966D01*
X21166Y-371021D01*
X19712Y-373539D01*
X18960Y-376347D01*
Y-379254D01*
X19712Y-382061D01*
X21166Y-384579D01*
X23221Y-386634D01*
X25739Y-388088D01*
X28547Y-388840D01*
X31453D01*
X34261Y-388088D01*
X36779Y-386634D01*
X38834Y-384579D01*
X40288Y-382061D01*
X41040Y-379254D01*
Y-376347D01*
X40288Y-373539D01*
X38834Y-371021D01*
X36779Y-368966D01*
X34261Y-367512D01*
X31453Y-366760D01*
D02*
G37*
G36*
X6053D02*
X3147D01*
X339Y-367512D01*
X-2179Y-368966D01*
X-4234Y-371021D01*
X-5688Y-373539D01*
X-6440Y-376347D01*
Y-379254D01*
X-5688Y-382061D01*
X-4234Y-384579D01*
X-2179Y-386634D01*
X339Y-388088D01*
X3147Y-388840D01*
X6053D01*
X8861Y-388088D01*
X11379Y-386634D01*
X13434Y-384579D01*
X14888Y-382061D01*
X15640Y-379254D01*
Y-376347D01*
X14888Y-373539D01*
X13434Y-371021D01*
X11379Y-368966D01*
X8861Y-367512D01*
X6053Y-366760D01*
D02*
G37*
G36*
X564405Y-391801D02*
X561498D01*
X558690Y-392553D01*
X556173Y-394006D01*
X554118Y-396062D01*
X552664Y-398579D01*
X551912Y-401387D01*
Y-404294D01*
X552664Y-407102D01*
X554118Y-409619D01*
X556173Y-411675D01*
X558690Y-413128D01*
X561498Y-413881D01*
X564405D01*
X567213Y-413128D01*
X569730Y-411675D01*
X571786Y-409619D01*
X573239Y-407102D01*
X573992Y-404294D01*
Y-401387D01*
X573239Y-398579D01*
X571786Y-396062D01*
X569730Y-394006D01*
X567213Y-392553D01*
X564405Y-391801D01*
D02*
G37*
G36*
X31453Y-392160D02*
X28547D01*
X25739Y-392912D01*
X23221Y-394366D01*
X21166Y-396421D01*
X19712Y-398939D01*
X18960Y-401747D01*
Y-404654D01*
X19712Y-407461D01*
X21166Y-409979D01*
X23221Y-412034D01*
X25739Y-413488D01*
X28547Y-414240D01*
X31453D01*
X34261Y-413488D01*
X36779Y-412034D01*
X38834Y-409979D01*
X40288Y-407461D01*
X41040Y-404654D01*
Y-401747D01*
X40288Y-398939D01*
X38834Y-396421D01*
X36779Y-394366D01*
X34261Y-392912D01*
X31453Y-392160D01*
D02*
G37*
G36*
X6053D02*
X3147D01*
X339Y-392912D01*
X-2179Y-394366D01*
X-4234Y-396421D01*
X-5688Y-398939D01*
X-6440Y-401747D01*
Y-404654D01*
X-5688Y-407461D01*
X-4234Y-409979D01*
X-2179Y-412034D01*
X339Y-413488D01*
X3147Y-414240D01*
X6053D01*
X8861Y-413488D01*
X11379Y-412034D01*
X13434Y-409979D01*
X14888Y-407461D01*
X15640Y-404654D01*
Y-401747D01*
X14888Y-398939D01*
X13434Y-396421D01*
X11379Y-394366D01*
X8861Y-392912D01*
X6053Y-392160D01*
D02*
G37*
G36*
X564405Y-417201D02*
X561498D01*
X558690Y-417953D01*
X556173Y-419406D01*
X554118Y-421462D01*
X552664Y-423979D01*
X551912Y-426787D01*
Y-429694D01*
X552664Y-432502D01*
X554118Y-435019D01*
X556173Y-437075D01*
X558690Y-438528D01*
X561498Y-439281D01*
X564405D01*
X567213Y-438528D01*
X569730Y-437075D01*
X571786Y-435019D01*
X573239Y-432502D01*
X573992Y-429694D01*
Y-426787D01*
X573239Y-423979D01*
X571786Y-421462D01*
X569730Y-419406D01*
X567213Y-417953D01*
X564405Y-417201D01*
D02*
G37*
G36*
X31453Y-417560D02*
X28547D01*
X25739Y-418312D01*
X23221Y-419766D01*
X21166Y-421821D01*
X19712Y-424339D01*
X18960Y-427147D01*
Y-430053D01*
X19712Y-432861D01*
X21166Y-435379D01*
X23221Y-437434D01*
X25739Y-438888D01*
X28547Y-439640D01*
X31453D01*
X34261Y-438888D01*
X36779Y-437434D01*
X38834Y-435379D01*
X40288Y-432861D01*
X41040Y-430053D01*
Y-427147D01*
X40288Y-424339D01*
X38834Y-421821D01*
X36779Y-419766D01*
X34261Y-418312D01*
X31453Y-417560D01*
D02*
G37*
G36*
X6053D02*
X3147D01*
X339Y-418312D01*
X-2179Y-419766D01*
X-4234Y-421821D01*
X-5688Y-424339D01*
X-6440Y-427147D01*
Y-430053D01*
X-5688Y-432861D01*
X-4234Y-435379D01*
X-2179Y-437434D01*
X339Y-438888D01*
X3147Y-439640D01*
X6053D01*
X8861Y-438888D01*
X11379Y-437434D01*
X13434Y-435379D01*
X14888Y-432861D01*
X15640Y-430053D01*
Y-427147D01*
X14888Y-424339D01*
X13434Y-421821D01*
X11379Y-419766D01*
X8861Y-418312D01*
X6053Y-417560D01*
D02*
G37*
G36*
X564405Y-442601D02*
X561498D01*
X558690Y-443353D01*
X556173Y-444806D01*
X554118Y-446862D01*
X552664Y-449379D01*
X551912Y-452187D01*
Y-455094D01*
X552664Y-457902D01*
X554118Y-460419D01*
X556173Y-462475D01*
X558690Y-463928D01*
X561498Y-464680D01*
X564405D01*
X567213Y-463928D01*
X569730Y-462475D01*
X571786Y-460419D01*
X573239Y-457902D01*
X573992Y-455094D01*
Y-452187D01*
X573239Y-449379D01*
X571786Y-446862D01*
X569730Y-444806D01*
X567213Y-443353D01*
X564405Y-442601D01*
D02*
G37*
G36*
X31453Y-442960D02*
X28547D01*
X25739Y-443712D01*
X23221Y-445166D01*
X21166Y-447221D01*
X19712Y-449739D01*
X18960Y-452547D01*
Y-455453D01*
X19712Y-458261D01*
X21166Y-460779D01*
X23221Y-462834D01*
X25739Y-464288D01*
X28547Y-465040D01*
X31453D01*
X34261Y-464288D01*
X36779Y-462834D01*
X38834Y-460779D01*
X40288Y-458261D01*
X41040Y-455453D01*
Y-452547D01*
X40288Y-449739D01*
X38834Y-447221D01*
X36779Y-445166D01*
X34261Y-443712D01*
X31453Y-442960D01*
D02*
G37*
G36*
X6053D02*
X3147D01*
X339Y-443712D01*
X-2179Y-445166D01*
X-4234Y-447221D01*
X-5688Y-449739D01*
X-6440Y-452547D01*
Y-455453D01*
X-5688Y-458261D01*
X-4234Y-460779D01*
X-2179Y-462834D01*
X339Y-464288D01*
X3147Y-465040D01*
X6053D01*
X8861Y-464288D01*
X11379Y-462834D01*
X13434Y-460779D01*
X14888Y-458261D01*
X15640Y-455453D01*
Y-452547D01*
X14888Y-449739D01*
X13434Y-447221D01*
X11379Y-445166D01*
X8861Y-443712D01*
X6053Y-442960D01*
D02*
G37*
G36*
X564405Y-468001D02*
X561498D01*
X558690Y-468753D01*
X556173Y-470206D01*
X554118Y-472262D01*
X552664Y-474779D01*
X551912Y-477587D01*
Y-480494D01*
X552664Y-483302D01*
X554118Y-485819D01*
X556173Y-487875D01*
X558690Y-489328D01*
X561498Y-490080D01*
X564405D01*
X567213Y-489328D01*
X569730Y-487875D01*
X571786Y-485819D01*
X573239Y-483302D01*
X573992Y-480494D01*
Y-477587D01*
X573239Y-474779D01*
X571786Y-472262D01*
X569730Y-470206D01*
X567213Y-468753D01*
X564405Y-468001D01*
D02*
G37*
G36*
X6053Y-468360D02*
X3147D01*
X339Y-469112D01*
X-2179Y-470566D01*
X-4234Y-472621D01*
X-5688Y-475139D01*
X-6440Y-477947D01*
Y-480854D01*
X-5688Y-483661D01*
X-4234Y-486179D01*
X-2179Y-488234D01*
X339Y-489688D01*
X3147Y-490440D01*
X6053D01*
X8861Y-489688D01*
X11379Y-488234D01*
X13434Y-486179D01*
X14888Y-483661D01*
X15640Y-480854D01*
Y-477947D01*
X14888Y-475139D01*
X13434Y-472621D01*
X11379Y-470566D01*
X8861Y-469112D01*
X6053Y-468360D01*
D02*
G37*
G36*
X564405Y-493401D02*
X561498D01*
X558690Y-494153D01*
X556173Y-495606D01*
X554118Y-497662D01*
X552664Y-500179D01*
X551912Y-502987D01*
Y-505894D01*
X552664Y-508702D01*
X554118Y-511219D01*
X556173Y-513275D01*
X558690Y-514728D01*
X561498Y-515480D01*
X564405D01*
X567213Y-514728D01*
X569730Y-513275D01*
X571786Y-511219D01*
X573239Y-508702D01*
X573992Y-505894D01*
Y-502987D01*
X573239Y-500179D01*
X571786Y-497662D01*
X569730Y-495606D01*
X567213Y-494153D01*
X564405Y-493401D01*
D02*
G37*
G36*
Y-518801D02*
X561498D01*
X558690Y-519553D01*
X556173Y-521006D01*
X554118Y-523062D01*
X552664Y-525579D01*
X551912Y-528387D01*
Y-531294D01*
X552664Y-534102D01*
X554118Y-536619D01*
X556173Y-538675D01*
X558690Y-540128D01*
X561498Y-540881D01*
X564405D01*
X567213Y-540128D01*
X569730Y-538675D01*
X571786Y-536619D01*
X573239Y-534102D01*
X573992Y-531294D01*
Y-528387D01*
X573239Y-525579D01*
X571786Y-523062D01*
X569730Y-521006D01*
X567213Y-519553D01*
X564405Y-518801D01*
D02*
G37*
G36*
Y-544201D02*
X561498D01*
X558690Y-544953D01*
X556173Y-546406D01*
X554118Y-548462D01*
X552664Y-550979D01*
X551912Y-553787D01*
Y-556694D01*
X552664Y-559502D01*
X554118Y-562019D01*
X556173Y-564075D01*
X558690Y-565528D01*
X561498Y-566281D01*
X564405D01*
X567213Y-565528D01*
X569730Y-564075D01*
X571786Y-562019D01*
X573239Y-559502D01*
X573992Y-556694D01*
Y-553787D01*
X573239Y-550979D01*
X571786Y-548462D01*
X569730Y-546406D01*
X567213Y-544953D01*
X564405Y-544201D01*
D02*
G37*
G36*
X350653Y-618960D02*
X347747D01*
X344939Y-619712D01*
X342421Y-621166D01*
X340366Y-623221D01*
X338912Y-625739D01*
X338160Y-628547D01*
Y-631453D01*
X338912Y-634261D01*
X340366Y-636779D01*
X342421Y-638834D01*
X344939Y-640288D01*
X347747Y-641040D01*
X350653D01*
X353461Y-640288D01*
X355979Y-638834D01*
X358034Y-636779D01*
X359488Y-634261D01*
X360240Y-631453D01*
Y-628547D01*
X359488Y-625739D01*
X358034Y-623221D01*
X355979Y-621166D01*
X353461Y-619712D01*
X350653Y-618960D01*
D02*
G37*
G36*
X325253D02*
X322346D01*
X319539Y-619712D01*
X317021Y-621166D01*
X314966Y-623221D01*
X313512Y-625739D01*
X312760Y-628547D01*
Y-631453D01*
X313512Y-634261D01*
X314966Y-636779D01*
X317021Y-638834D01*
X319539Y-640288D01*
X322346Y-641040D01*
X325253D01*
X328061Y-640288D01*
X330579Y-638834D01*
X332634Y-636779D01*
X334088Y-634261D01*
X334840Y-631453D01*
Y-628547D01*
X334088Y-625739D01*
X332634Y-623221D01*
X330579Y-621166D01*
X328061Y-619712D01*
X325253Y-618960D01*
D02*
G37*
G36*
X528453Y-644360D02*
X525546D01*
X522739Y-645112D01*
X520221Y-646566D01*
X518166Y-648621D01*
X516712Y-651139D01*
X515960Y-653947D01*
Y-656853D01*
X516712Y-659661D01*
X518166Y-662179D01*
X520221Y-664234D01*
X522739Y-665688D01*
X525546Y-666440D01*
X528453D01*
X531261Y-665688D01*
X533779Y-664234D01*
X535834Y-662179D01*
X537288Y-659661D01*
X538040Y-656853D01*
Y-653947D01*
X537288Y-651139D01*
X535834Y-648621D01*
X533779Y-646566D01*
X531261Y-645112D01*
X528453Y-644360D01*
D02*
G37*
G36*
X376053D02*
X373147D01*
X370339Y-645112D01*
X367821Y-646566D01*
X365766Y-648621D01*
X364312Y-651139D01*
X363560Y-653947D01*
Y-656853D01*
X364312Y-659661D01*
X365766Y-662179D01*
X367821Y-664234D01*
X370339Y-665688D01*
X373147Y-666440D01*
X376053D01*
X378861Y-665688D01*
X381379Y-664234D01*
X383434Y-662179D01*
X384888Y-659661D01*
X385640Y-656853D01*
Y-653947D01*
X384888Y-651139D01*
X383434Y-648621D01*
X381379Y-646566D01*
X378861Y-645112D01*
X376053Y-644360D01*
D02*
G37*
G36*
X350653D02*
X347747D01*
X344939Y-645112D01*
X342421Y-646566D01*
X340366Y-648621D01*
X338912Y-651139D01*
X338160Y-653947D01*
Y-656853D01*
X338912Y-659661D01*
X340366Y-662179D01*
X342421Y-664234D01*
X344939Y-665688D01*
X347747Y-666440D01*
X350653D01*
X353461Y-665688D01*
X355979Y-664234D01*
X358034Y-662179D01*
X359488Y-659661D01*
X360240Y-656853D01*
Y-653947D01*
X359488Y-651139D01*
X358034Y-648621D01*
X355979Y-646566D01*
X353461Y-645112D01*
X350653Y-644360D01*
D02*
G37*
G36*
X325253D02*
X322346D01*
X319539Y-645112D01*
X317021Y-646566D01*
X314966Y-648621D01*
X313512Y-651139D01*
X312760Y-653947D01*
Y-656853D01*
X313512Y-659661D01*
X314966Y-662179D01*
X317021Y-664234D01*
X319539Y-665688D01*
X322346Y-666440D01*
X325253D01*
X328061Y-665688D01*
X330579Y-664234D01*
X332634Y-662179D01*
X334088Y-659661D01*
X334840Y-656853D01*
Y-653947D01*
X334088Y-651139D01*
X332634Y-648621D01*
X330579Y-646566D01*
X328061Y-645112D01*
X325253Y-644360D01*
D02*
G37*
G36*
X6053Y-544560D02*
X3147D01*
X339Y-545312D01*
X-2179Y-546766D01*
X-4234Y-548821D01*
X-5688Y-551339D01*
X-6440Y-554147D01*
Y-557053D01*
X-5688Y-559861D01*
X-4234Y-562379D01*
X-2851Y-563762D01*
Y-604145D01*
X-2592Y-606114D01*
X-1832Y-607948D01*
X-624Y-609523D01*
X50631Y-660778D01*
X52206Y-661986D01*
X54040Y-662746D01*
X56009Y-663005D01*
X290392D01*
X291621Y-664234D01*
X294139Y-665688D01*
X296947Y-666440D01*
X299853D01*
X302661Y-665688D01*
X305179Y-664234D01*
X307234Y-662179D01*
X308688Y-659661D01*
X309440Y-656853D01*
Y-653947D01*
X308688Y-651139D01*
X307234Y-648621D01*
X305179Y-646566D01*
X302661Y-645112D01*
X299853Y-644360D01*
X296947D01*
X294139Y-645112D01*
X291621Y-646566D01*
X290392Y-647795D01*
X59159D01*
X12359Y-600995D01*
Y-563454D01*
X13434Y-562379D01*
X14888Y-559861D01*
X15640Y-557053D01*
Y-554147D01*
X14888Y-551339D01*
X13434Y-548821D01*
X11379Y-546766D01*
X8861Y-545312D01*
X6053Y-544560D01*
D02*
G37*
%LPD*%
G36*
X75000Y-166385D02*
X160891Y-166385D01*
X459333Y-464827D01*
Y-483836D01*
X456793Y-484888D01*
X456381Y-484475D01*
X454354Y-483305D01*
X452093Y-482699D01*
X449752D01*
X447491Y-483305D01*
X445464Y-484475D01*
X443808Y-486130D01*
X442638Y-488158D01*
X442032Y-490419D01*
Y-492760D01*
X442101Y-493015D01*
X439823Y-494330D01*
X117347Y-171853D01*
X116087Y-171011D01*
X114600Y-170715D01*
X40638D01*
X39414Y-168579D01*
X40543Y-166175D01*
X73944D01*
X75000Y-166385D01*
D02*
G37*
D11*
X296676Y-73000D02*
X360125Y-136449D01*
X374520Y-169887D02*
Y-108778D01*
X315742Y-50000D02*
X374520Y-108778D01*
X266890Y-136890D02*
X430000Y-300000D01*
X463218Y-643137D02*
X475641Y-655560D01*
X162500Y-162500D02*
X463218Y-463218D01*
Y-643137D02*
Y-463218D01*
X359110Y-9110D02*
X514266Y-164265D01*
Y-642735D02*
Y-164265D01*
X501600Y-655400D02*
X514266Y-642735D01*
X502028Y-630000D02*
X502028Y-182028D01*
X342709Y-22709D02*
X502028Y-182028D01*
X239200Y-149200D02*
X450181Y-360181D01*
Y-426497D02*
Y-360181D01*
X450861Y-629939D02*
Y-491650D01*
X450800Y-630000D02*
X450861Y-629939D01*
Y-491650D02*
X450922Y-491589D01*
X438332Y-642533D02*
X451332Y-655534D01*
X438332Y-642533D02*
Y-498332D01*
X114600Y-174600D02*
X438332Y-498332D01*
X362324Y-492324D02*
X426100Y-556100D01*
Y-633591D02*
Y-556100D01*
X412946Y-642945D02*
X425400Y-655400D01*
X367890Y-517890D02*
X412946Y-562946D01*
Y-642945D02*
Y-562946D01*
X400000Y-630000D02*
Y-571660D01*
X358489Y-530149D02*
X400000Y-571660D01*
X30000Y-504800D02*
X334800D01*
X387662Y-643154D02*
X399916Y-655408D01*
X387662Y-643154D02*
Y-594115D01*
X323748Y-530200D02*
X387662Y-594115D01*
X30000Y-530200D02*
X323748D01*
X16910Y-136890D02*
X266890D01*
X4600Y-504800D02*
X17076Y-492324D01*
X362324D01*
X16910Y-9110D02*
X359110D01*
X30000Y-73000D02*
X296676D01*
X4600Y-149200D02*
X16910Y-136890D01*
X32400Y-50000D02*
X315742D01*
X30000Y-47600D02*
X32400Y-50000D01*
X75000Y-162500D02*
X162500Y-162500D01*
X162500D01*
X30000Y-174600D02*
X114600D01*
X30000Y-149200D02*
X239200D01*
X16910Y-162290D02*
X74790D01*
X75000Y-162500D01*
X4600Y-174600D02*
X16910Y-162290D01*
X30000Y-22200D02*
X30509Y-22709D01*
X342709D01*
X4600Y-22200D02*
Y-21420D01*
X16910Y-9110D01*
Y-517890D02*
X367890D01*
X4600Y-530200D02*
X16910Y-517890D01*
D19*
X56009Y-655400D02*
X298400D01*
X4754Y-604145D02*
Y-555754D01*
Y-604145D02*
X56009Y-655400D01*
D20*
X4600Y-149200D02*
D03*
X30000D02*
D03*
X4600Y-123800D02*
D03*
X30000D02*
D03*
X4600Y-98400D02*
D03*
X30000D02*
D03*
X4600Y-73000D02*
D03*
X30000D02*
D03*
X4600Y-47600D02*
D03*
X30000D02*
D03*
X4600Y3200D02*
D03*
X30000D02*
D03*
X4600Y28600D02*
D03*
X30000Y-22200D02*
D03*
X4600D02*
D03*
X30000Y-174600D02*
D03*
X4600D02*
D03*
X30000Y-200000D02*
D03*
X4600D02*
D03*
Y-504800D02*
D03*
X30000D02*
D03*
X4600Y-479400D02*
D03*
X30000D02*
D03*
X4600Y-454000D02*
D03*
X30000D02*
D03*
X4600Y-428600D02*
D03*
X30000D02*
D03*
X4600Y-403200D02*
D03*
X30000D02*
D03*
X4600Y-352400D02*
D03*
X30000D02*
D03*
X4600Y-327000D02*
D03*
X30000Y-377800D02*
D03*
X4600D02*
D03*
X30000Y-530200D02*
D03*
X4600D02*
D03*
X30000Y-555600D02*
D03*
X4600D02*
D03*
X412700Y80000D02*
D03*
X387300D02*
D03*
X311100D02*
D03*
X336500D02*
D03*
X361900D02*
D03*
X438100D02*
D03*
X463500D02*
D03*
X488900D02*
D03*
X514300D02*
D03*
X527000Y-655400D02*
D03*
Y-630000D02*
D03*
X501600Y-655400D02*
D03*
Y-630000D02*
D03*
X349200Y-655400D02*
D03*
Y-630000D02*
D03*
X298400Y-655400D02*
D03*
X323800Y-630000D02*
D03*
Y-655400D02*
D03*
X374600Y-630000D02*
D03*
Y-655400D02*
D03*
X400000Y-630000D02*
D03*
Y-655400D02*
D03*
X425400Y-630000D02*
D03*
Y-655400D02*
D03*
X450800Y-630000D02*
D03*
Y-655400D02*
D03*
X476200Y-630000D02*
D03*
Y-655400D02*
D03*
X562952Y-453641D02*
D03*
Y-428241D02*
D03*
Y-352040D02*
D03*
Y-377440D02*
D03*
Y-402840D02*
D03*
Y-479040D02*
D03*
Y-504440D02*
D03*
Y-529841D02*
D03*
Y-555241D02*
D03*
D21*
X30000Y28600D02*
D03*
Y-327000D02*
D03*
D22*
X285700Y80000D02*
D03*
D23*
X298400Y-630000D02*
D03*
D24*
X562952Y-326641D02*
D03*
D25*
X198950Y-620878D02*
D03*
X223950D02*
D03*
X248950D02*
D03*
X98950D02*
D03*
X173950D02*
D03*
X123950D02*
D03*
X148950D02*
D03*
X48950D02*
D03*
X73950D02*
D03*
X25000Y-650000D02*
D03*
Y-625000D02*
D03*
X3837Y-598683D02*
D03*
Y-573683D02*
D03*
X225023Y-655623D02*
D03*
X250023D02*
D03*
X275023D02*
D03*
X125023D02*
D03*
X200023D02*
D03*
X150023D02*
D03*
X175023D02*
D03*
X75023D02*
D03*
X100023D02*
D03*
X175000Y-675000D02*
D03*
X150000D02*
D03*
X125000D02*
D03*
X100000D02*
D03*
X75000D02*
D03*
X400000Y-175000D02*
D03*
Y-200000D02*
D03*
Y-225000D02*
D03*
Y-150000D02*
D03*
Y-250000D02*
D03*
X525000Y-575000D02*
D03*
Y-225000D02*
D03*
Y-400000D02*
D03*
Y-175000D02*
D03*
Y-300000D02*
D03*
Y-600000D02*
D03*
Y-375000D02*
D03*
Y-200000D02*
D03*
Y-275000D02*
D03*
Y-250000D02*
D03*
X274190D02*
D03*
Y-300000D02*
D03*
X300000Y-600000D02*
D03*
X250000Y-575000D02*
D03*
X200188Y-337305D02*
D03*
X225188D02*
D03*
X100188D02*
D03*
X175188D02*
D03*
X125188D02*
D03*
X150188D02*
D03*
X75188D02*
D03*
X349257Y-449524D02*
D03*
X424257D02*
D03*
X225000Y-450000D02*
D03*
X250000D02*
D03*
X300000D02*
D03*
X325000D02*
D03*
X0Y-675000D02*
D03*
X25000D02*
D03*
X50000D02*
D03*
X250000D02*
D03*
X225000D02*
D03*
X275000D02*
D03*
X200000D02*
D03*
X350000D02*
D03*
X325000D02*
D03*
X375000D02*
D03*
X300000D02*
D03*
X450000D02*
D03*
X425000D02*
D03*
X475000D02*
D03*
X400000D02*
D03*
X550000D02*
D03*
X525000D02*
D03*
X575000D02*
D03*
X500000D02*
D03*
X0Y-650000D02*
D03*
X550000D02*
D03*
X575000D02*
D03*
X0Y-625000D02*
D03*
X550000D02*
D03*
X575000D02*
D03*
X75000Y-600000D02*
D03*
X50000D02*
D03*
X150000D02*
D03*
X125000D02*
D03*
X175000D02*
D03*
X100000D02*
D03*
X250000D02*
D03*
X225000D02*
D03*
X275000D02*
D03*
X200000D02*
D03*
X550000D02*
D03*
X575000D02*
D03*
X75000Y-575000D02*
D03*
X25000D02*
D03*
X50000D02*
D03*
X150000D02*
D03*
X125000D02*
D03*
X175000D02*
D03*
X100000D02*
D03*
X225000D02*
D03*
X200000D02*
D03*
X550000D02*
D03*
X575000D02*
D03*
X75000Y-550000D02*
D03*
X50000D02*
D03*
X150000D02*
D03*
X125000D02*
D03*
X175000D02*
D03*
X100000D02*
D03*
X225000D02*
D03*
X200000D02*
D03*
X581577Y-549283D02*
D03*
X425000Y-525000D02*
D03*
X581577Y-524283D02*
D03*
Y-499283D02*
D03*
Y-474283D02*
D03*
Y-449283D02*
D03*
Y-424283D02*
D03*
Y-399283D02*
D03*
Y-374283D02*
D03*
Y-349283D02*
D03*
Y-324283D02*
D03*
X0Y-300000D02*
D03*
X75000D02*
D03*
X25000D02*
D03*
X50000D02*
D03*
X150000D02*
D03*
X125000D02*
D03*
X175000D02*
D03*
X100000D02*
D03*
X250000D02*
D03*
X225000D02*
D03*
X200000D02*
D03*
X350000D02*
D03*
X325000D02*
D03*
X450000D02*
D03*
X475000D02*
D03*
X550000D02*
D03*
X575000D02*
D03*
X0Y-275000D02*
D03*
X75000D02*
D03*
X25000D02*
D03*
X50000D02*
D03*
X150000D02*
D03*
X125000D02*
D03*
X175000D02*
D03*
X100000D02*
D03*
X250000D02*
D03*
X225000D02*
D03*
X200000D02*
D03*
X350000D02*
D03*
X325000D02*
D03*
X300000D02*
D03*
X450000D02*
D03*
X425000D02*
D03*
X475000D02*
D03*
X550000D02*
D03*
X575000D02*
D03*
X0Y-250000D02*
D03*
X75000D02*
D03*
X25000D02*
D03*
X50000D02*
D03*
X150000D02*
D03*
X125000D02*
D03*
X175000D02*
D03*
X100000D02*
D03*
X225000D02*
D03*
X200000D02*
D03*
X350000D02*
D03*
X325000D02*
D03*
X300000D02*
D03*
X450000D02*
D03*
X425000D02*
D03*
X475000D02*
D03*
X550000D02*
D03*
X575000D02*
D03*
X0Y-225000D02*
D03*
X75000D02*
D03*
X25000D02*
D03*
X50000D02*
D03*
X150000D02*
D03*
X125000D02*
D03*
X175000D02*
D03*
X100000D02*
D03*
X200000D02*
D03*
X325000D02*
D03*
X300000D02*
D03*
X450000D02*
D03*
X425000D02*
D03*
X475000D02*
D03*
X550000D02*
D03*
X575000D02*
D03*
X75000Y-200000D02*
D03*
X50000D02*
D03*
X150000D02*
D03*
X125000D02*
D03*
X175000D02*
D03*
X100000D02*
D03*
X275000D02*
D03*
X350000D02*
D03*
X300000D02*
D03*
X450000D02*
D03*
X425000D02*
D03*
X475000D02*
D03*
X550000D02*
D03*
X575000D02*
D03*
X150000Y-175000D02*
D03*
X125000D02*
D03*
X250000D02*
D03*
X275000D02*
D03*
X350000D02*
D03*
X325000D02*
D03*
X450000D02*
D03*
X425000D02*
D03*
X475000D02*
D03*
X550000D02*
D03*
X575000D02*
D03*
X250000Y-150000D02*
D03*
X350000D02*
D03*
X325000D02*
D03*
X300000D02*
D03*
X450000D02*
D03*
X425000D02*
D03*
X550000D02*
D03*
X525000D02*
D03*
X575000D02*
D03*
X275000Y-125000D02*
D03*
X325000D02*
D03*
X300000D02*
D03*
X425000D02*
D03*
X400000D02*
D03*
X550000D02*
D03*
X525000D02*
D03*
X575000D02*
D03*
X500000D02*
D03*
X250000Y-100000D02*
D03*
X275000D02*
D03*
X200000D02*
D03*
X350000D02*
D03*
X375000D02*
D03*
X300000D02*
D03*
X475000D02*
D03*
X400000D02*
D03*
X550000D02*
D03*
X525000D02*
D03*
X575000D02*
D03*
X500000D02*
D03*
X350000Y-75000D02*
D03*
X325000D02*
D03*
X375000D02*
D03*
X450000D02*
D03*
X475000D02*
D03*
X550000D02*
D03*
X525000D02*
D03*
X575000D02*
D03*
X500000D02*
D03*
X350000Y-50000D02*
D03*
X325000D02*
D03*
X450000D02*
D03*
X425000D02*
D03*
X475000D02*
D03*
X550000D02*
D03*
X525000D02*
D03*
X575000D02*
D03*
X500000D02*
D03*
X450000Y-25000D02*
D03*
X425000D02*
D03*
X475000D02*
D03*
X400000D02*
D03*
X550000D02*
D03*
X525000D02*
D03*
X575000D02*
D03*
X500000D02*
D03*
X75000Y0D02*
D03*
X150000D02*
D03*
X125000D02*
D03*
X175000D02*
D03*
X100000D02*
D03*
X350000D02*
D03*
X375000D02*
D03*
X300000D02*
D03*
X450000D02*
D03*
X425000D02*
D03*
X475000D02*
D03*
X400000D02*
D03*
X550000D02*
D03*
X525000D02*
D03*
X575000D02*
D03*
X500000D02*
D03*
X75000Y25000D02*
D03*
X50000D02*
D03*
X150000D02*
D03*
X125000D02*
D03*
X175000D02*
D03*
X100000D02*
D03*
X200000D02*
D03*
X325000D02*
D03*
X375000D02*
D03*
X450000D02*
D03*
X425000D02*
D03*
X475000D02*
D03*
X400000D02*
D03*
X550000D02*
D03*
X525000D02*
D03*
X575000D02*
D03*
X500000D02*
D03*
X0Y50000D02*
D03*
X75000D02*
D03*
X25000D02*
D03*
X50000D02*
D03*
X150000D02*
D03*
X125000D02*
D03*
X175000D02*
D03*
X100000D02*
D03*
X225000D02*
D03*
X200000D02*
D03*
X350000D02*
D03*
X450000D02*
D03*
X425000D02*
D03*
X475000D02*
D03*
X400000D02*
D03*
X550000D02*
D03*
X525000D02*
D03*
X575000D02*
D03*
X500000D02*
D03*
X0Y75000D02*
D03*
X75000D02*
D03*
X25000D02*
D03*
X50000D02*
D03*
X150000D02*
D03*
X125000D02*
D03*
X175000D02*
D03*
X100000D02*
D03*
X250000D02*
D03*
X225000D02*
D03*
X200000D02*
D03*
X550000D02*
D03*
X575000D02*
D03*
X0Y100000D02*
D03*
X75000D02*
D03*
X25000D02*
D03*
X50000D02*
D03*
X150000D02*
D03*
X125000D02*
D03*
X175000D02*
D03*
X100000D02*
D03*
X250000D02*
D03*
X225000D02*
D03*
X275000D02*
D03*
X200000D02*
D03*
X350000D02*
D03*
X325000D02*
D03*
X375000D02*
D03*
X300000D02*
D03*
X450000D02*
D03*
X425000D02*
D03*
X475000D02*
D03*
X400000D02*
D03*
X550000D02*
D03*
X525000D02*
D03*
X575000D02*
D03*
X500000D02*
D03*
X0Y125000D02*
D03*
X75000D02*
D03*
X25000D02*
D03*
X50000D02*
D03*
X150000D02*
D03*
X125000D02*
D03*
X175000D02*
D03*
X100000D02*
D03*
X250000D02*
D03*
X225000D02*
D03*
X275000D02*
D03*
X200000D02*
D03*
X350000D02*
D03*
X325000D02*
D03*
X375000D02*
D03*
X300000D02*
D03*
X450000D02*
D03*
X425000D02*
D03*
X475000D02*
D03*
X400000D02*
D03*
X550000D02*
D03*
X525000D02*
D03*
X575000D02*
D03*
X500000D02*
D03*
Y150000D02*
D03*
X575000D02*
D03*
X525000D02*
D03*
X550000D02*
D03*
X400000D02*
D03*
X475000D02*
D03*
X425000D02*
D03*
X450000D02*
D03*
X300000D02*
D03*
X375000D02*
D03*
X325000D02*
D03*
X350000D02*
D03*
X200000D02*
D03*
X275000D02*
D03*
X225000D02*
D03*
X250000D02*
D03*
X100000D02*
D03*
X175000D02*
D03*
X125000D02*
D03*
X150000D02*
D03*
X50000D02*
D03*
X25000D02*
D03*
X75000D02*
D03*
X0D02*
D03*
D26*
X360125Y-136449D02*
D03*
X374600Y-169596D02*
D03*
X450181Y-426497D02*
D03*
X450922Y-491589D02*
D03*
X359268Y-529842D02*
D03*
X333685Y-505269D02*
D03*
X429976Y-299249D02*
D03*
M02*
