G04*
G04 #@! TF.GenerationSoftware,Altium Limited,Altium Designer,25.6.2 (33)*
G04*
G04 Layer_Physical_Order=4*
G04 Layer_Color=16711680*
%FSLAX44Y44*%
%MOMM*%
G71*
G04*
G04 #@! TF.SameCoordinates,257071CF-CA64-45DC-81DD-B27BF0D561B2*
G04*
G04*
G04 #@! TF.FilePolarity,Positive*
G04*
G01*
G75*
%ADD11C,0.2540*%
%ADD20C,1.7000*%
%ADD21R,1.7000X1.7000*%
G04:AMPARAMS|DCode=22|XSize=1.7mm|YSize=1.7mm|CornerRadius=0mm|HoleSize=0mm|Usage=FLASHONLY|Rotation=0.000|XOffset=0mm|YOffset=0mm|HoleType=Round|Shape=Octagon|*
%AMOCTAGOND22*
4,1,8,0.8500,-0.4250,0.8500,0.4250,0.4250,0.8500,-0.4250,0.8500,-0.8500,0.4250,-0.8500,-0.4250,-0.4250,-0.8500,0.4250,-0.8500,0.8500,-0.4250,0.0*
%
%ADD22OCTAGOND22*%

%ADD23R,1.7000X1.7000*%
G04:AMPARAMS|DCode=24|XSize=1.7mm|YSize=1.7mm|CornerRadius=0mm|HoleSize=0mm|Usage=FLASHONLY|Rotation=270.000|XOffset=0mm|YOffset=0mm|HoleType=Round|Shape=Octagon|*
%AMOCTAGOND24*
4,1,8,-0.4250,-0.8500,0.4250,-0.8500,0.8500,-0.4250,0.8500,0.4250,0.4250,0.8500,-0.4250,0.8500,-0.8500,0.4250,-0.8500,-0.4250,-0.4250,-0.8500,0.0*
%
%ADD24OCTAGOND24*%

%ADD25C,0.4000*%
%ADD26C,1.2700*%
G36*
X600000Y-690000D02*
X-10000D01*
Y160000D01*
X600000D01*
Y-690000D01*
D02*
G37*
%LPC*%
G36*
X575903Y154540D02*
X574097D01*
X572428Y153849D01*
X571151Y152572D01*
X570460Y150903D01*
Y149097D01*
X571151Y147428D01*
X572428Y146151D01*
X574097Y145460D01*
X575903D01*
X577572Y146151D01*
X578849Y147428D01*
X579540Y149097D01*
Y150903D01*
X578849Y152572D01*
X577572Y153849D01*
X575903Y154540D01*
D02*
G37*
G36*
X550903D02*
X549097D01*
X547428Y153849D01*
X546151Y152572D01*
X545460Y150903D01*
Y149097D01*
X546151Y147428D01*
X547428Y146151D01*
X549097Y145460D01*
X550903D01*
X552572Y146151D01*
X553849Y147428D01*
X554540Y149097D01*
Y150903D01*
X553849Y152572D01*
X552572Y153849D01*
X550903Y154540D01*
D02*
G37*
G36*
X525903D02*
X524097D01*
X522428Y153849D01*
X521151Y152572D01*
X520460Y150903D01*
Y149097D01*
X521151Y147428D01*
X522428Y146151D01*
X524097Y145460D01*
X525903D01*
X527572Y146151D01*
X528849Y147428D01*
X529540Y149097D01*
Y150903D01*
X528849Y152572D01*
X527572Y153849D01*
X525903Y154540D01*
D02*
G37*
G36*
X500903D02*
X499097D01*
X497428Y153849D01*
X496151Y152572D01*
X495460Y150903D01*
Y149097D01*
X496151Y147428D01*
X497428Y146151D01*
X499097Y145460D01*
X500903D01*
X502572Y146151D01*
X503849Y147428D01*
X504540Y149097D01*
Y150903D01*
X503849Y152572D01*
X502572Y153849D01*
X500903Y154540D01*
D02*
G37*
G36*
X475903D02*
X474097D01*
X472428Y153849D01*
X471151Y152572D01*
X470460Y150903D01*
Y149097D01*
X471151Y147428D01*
X472428Y146151D01*
X474097Y145460D01*
X475903D01*
X477572Y146151D01*
X478849Y147428D01*
X479540Y149097D01*
Y150903D01*
X478849Y152572D01*
X477572Y153849D01*
X475903Y154540D01*
D02*
G37*
G36*
X450903D02*
X449097D01*
X447428Y153849D01*
X446151Y152572D01*
X445460Y150903D01*
Y149097D01*
X446151Y147428D01*
X447428Y146151D01*
X449097Y145460D01*
X450903D01*
X452572Y146151D01*
X453849Y147428D01*
X454540Y149097D01*
Y150903D01*
X453849Y152572D01*
X452572Y153849D01*
X450903Y154540D01*
D02*
G37*
G36*
X425903D02*
X424097D01*
X422428Y153849D01*
X421151Y152572D01*
X420460Y150903D01*
Y149097D01*
X421151Y147428D01*
X422428Y146151D01*
X424097Y145460D01*
X425903D01*
X427572Y146151D01*
X428849Y147428D01*
X429540Y149097D01*
Y150903D01*
X428849Y152572D01*
X427572Y153849D01*
X425903Y154540D01*
D02*
G37*
G36*
X400903D02*
X399097D01*
X397428Y153849D01*
X396151Y152572D01*
X395460Y150903D01*
Y149097D01*
X396151Y147428D01*
X397428Y146151D01*
X399097Y145460D01*
X400903D01*
X402572Y146151D01*
X403849Y147428D01*
X404540Y149097D01*
Y150903D01*
X403849Y152572D01*
X402572Y153849D01*
X400903Y154540D01*
D02*
G37*
G36*
X375903D02*
X374097D01*
X372428Y153849D01*
X371151Y152572D01*
X370460Y150903D01*
Y149097D01*
X371151Y147428D01*
X372428Y146151D01*
X374097Y145460D01*
X375903D01*
X377572Y146151D01*
X378849Y147428D01*
X379540Y149097D01*
Y150903D01*
X378849Y152572D01*
X377572Y153849D01*
X375903Y154540D01*
D02*
G37*
G36*
X350903D02*
X349097D01*
X347428Y153849D01*
X346151Y152572D01*
X345460Y150903D01*
Y149097D01*
X346151Y147428D01*
X347428Y146151D01*
X349097Y145460D01*
X350903D01*
X352572Y146151D01*
X353849Y147428D01*
X354540Y149097D01*
Y150903D01*
X353849Y152572D01*
X352572Y153849D01*
X350903Y154540D01*
D02*
G37*
G36*
X325903D02*
X324097D01*
X322428Y153849D01*
X321151Y152572D01*
X320460Y150903D01*
Y149097D01*
X321151Y147428D01*
X322428Y146151D01*
X324097Y145460D01*
X325903D01*
X327572Y146151D01*
X328849Y147428D01*
X329540Y149097D01*
Y150903D01*
X328849Y152572D01*
X327572Y153849D01*
X325903Y154540D01*
D02*
G37*
G36*
X300903D02*
X299097D01*
X297428Y153849D01*
X296151Y152572D01*
X295460Y150903D01*
Y149097D01*
X296151Y147428D01*
X297428Y146151D01*
X299097Y145460D01*
X300903D01*
X302572Y146151D01*
X303849Y147428D01*
X304540Y149097D01*
Y150903D01*
X303849Y152572D01*
X302572Y153849D01*
X300903Y154540D01*
D02*
G37*
G36*
X275903D02*
X274097D01*
X272428Y153849D01*
X271151Y152572D01*
X270460Y150903D01*
Y149097D01*
X271151Y147428D01*
X272428Y146151D01*
X274097Y145460D01*
X275903D01*
X277572Y146151D01*
X278849Y147428D01*
X279540Y149097D01*
Y150903D01*
X278849Y152572D01*
X277572Y153849D01*
X275903Y154540D01*
D02*
G37*
G36*
X250903D02*
X249097D01*
X247428Y153849D01*
X246151Y152572D01*
X245460Y150903D01*
Y149097D01*
X246151Y147428D01*
X247428Y146151D01*
X249097Y145460D01*
X250903D01*
X252572Y146151D01*
X253849Y147428D01*
X254540Y149097D01*
Y150903D01*
X253849Y152572D01*
X252572Y153849D01*
X250903Y154540D01*
D02*
G37*
G36*
X225903D02*
X224097D01*
X222428Y153849D01*
X221151Y152572D01*
X220460Y150903D01*
Y149097D01*
X221151Y147428D01*
X222428Y146151D01*
X224097Y145460D01*
X225903D01*
X227572Y146151D01*
X228849Y147428D01*
X229540Y149097D01*
Y150903D01*
X228849Y152572D01*
X227572Y153849D01*
X225903Y154540D01*
D02*
G37*
G36*
X200903D02*
X199097D01*
X197428Y153849D01*
X196151Y152572D01*
X195460Y150903D01*
Y149097D01*
X196151Y147428D01*
X197428Y146151D01*
X199097Y145460D01*
X200903D01*
X202572Y146151D01*
X203849Y147428D01*
X204540Y149097D01*
Y150903D01*
X203849Y152572D01*
X202572Y153849D01*
X200903Y154540D01*
D02*
G37*
G36*
X175903D02*
X174097D01*
X172428Y153849D01*
X171151Y152572D01*
X170460Y150903D01*
Y149097D01*
X171151Y147428D01*
X172428Y146151D01*
X174097Y145460D01*
X175903D01*
X177572Y146151D01*
X178849Y147428D01*
X179540Y149097D01*
Y150903D01*
X178849Y152572D01*
X177572Y153849D01*
X175903Y154540D01*
D02*
G37*
G36*
X150903D02*
X149097D01*
X147428Y153849D01*
X146151Y152572D01*
X145460Y150903D01*
Y149097D01*
X146151Y147428D01*
X147428Y146151D01*
X149097Y145460D01*
X150903D01*
X152572Y146151D01*
X153849Y147428D01*
X154540Y149097D01*
Y150903D01*
X153849Y152572D01*
X152572Y153849D01*
X150903Y154540D01*
D02*
G37*
G36*
X125903D02*
X124097D01*
X122428Y153849D01*
X121151Y152572D01*
X120460Y150903D01*
Y149097D01*
X121151Y147428D01*
X122428Y146151D01*
X124097Y145460D01*
X125903D01*
X127572Y146151D01*
X128849Y147428D01*
X129540Y149097D01*
Y150903D01*
X128849Y152572D01*
X127572Y153849D01*
X125903Y154540D01*
D02*
G37*
G36*
X100903D02*
X99097D01*
X97428Y153849D01*
X96151Y152572D01*
X95460Y150903D01*
Y149097D01*
X96151Y147428D01*
X97428Y146151D01*
X99097Y145460D01*
X100903D01*
X102572Y146151D01*
X103849Y147428D01*
X104540Y149097D01*
Y150903D01*
X103849Y152572D01*
X102572Y153849D01*
X100903Y154540D01*
D02*
G37*
G36*
X75903D02*
X74097D01*
X72428Y153849D01*
X71151Y152572D01*
X70460Y150903D01*
Y149097D01*
X71151Y147428D01*
X72428Y146151D01*
X74097Y145460D01*
X75903D01*
X77572Y146151D01*
X78849Y147428D01*
X79540Y149097D01*
Y150903D01*
X78849Y152572D01*
X77572Y153849D01*
X75903Y154540D01*
D02*
G37*
G36*
X50903D02*
X49097D01*
X47428Y153849D01*
X46151Y152572D01*
X45460Y150903D01*
Y149097D01*
X46151Y147428D01*
X47428Y146151D01*
X49097Y145460D01*
X50903D01*
X52572Y146151D01*
X53849Y147428D01*
X54540Y149097D01*
Y150903D01*
X53849Y152572D01*
X52572Y153849D01*
X50903Y154540D01*
D02*
G37*
G36*
X25903D02*
X24097D01*
X22428Y153849D01*
X21151Y152572D01*
X20460Y150903D01*
Y149097D01*
X21151Y147428D01*
X22428Y146151D01*
X24097Y145460D01*
X25903D01*
X27572Y146151D01*
X28849Y147428D01*
X29540Y149097D01*
Y150903D01*
X28849Y152572D01*
X27572Y153849D01*
X25903Y154540D01*
D02*
G37*
G36*
X903D02*
X-903D01*
X-2572Y153849D01*
X-3849Y152572D01*
X-4540Y150903D01*
Y149097D01*
X-3849Y147428D01*
X-2572Y146151D01*
X-903Y145460D01*
X903D01*
X2572Y146151D01*
X3849Y147428D01*
X4540Y149097D01*
Y150903D01*
X3849Y152572D01*
X2572Y153849D01*
X903Y154540D01*
D02*
G37*
G36*
X575903Y129540D02*
X574097D01*
X572428Y128849D01*
X571151Y127572D01*
X570460Y125903D01*
Y124097D01*
X571151Y122428D01*
X572428Y121151D01*
X574097Y120460D01*
X575903D01*
X577572Y121151D01*
X578849Y122428D01*
X579540Y124097D01*
Y125903D01*
X578849Y127572D01*
X577572Y128849D01*
X575903Y129540D01*
D02*
G37*
G36*
X550903D02*
X549097D01*
X547428Y128849D01*
X546151Y127572D01*
X545460Y125903D01*
Y124097D01*
X546151Y122428D01*
X547428Y121151D01*
X549097Y120460D01*
X550903D01*
X552572Y121151D01*
X553849Y122428D01*
X554540Y124097D01*
Y125903D01*
X553849Y127572D01*
X552572Y128849D01*
X550903Y129540D01*
D02*
G37*
G36*
X525903D02*
X524097D01*
X522428Y128849D01*
X521151Y127572D01*
X520460Y125903D01*
Y124097D01*
X521151Y122428D01*
X522428Y121151D01*
X524097Y120460D01*
X525903D01*
X527572Y121151D01*
X528849Y122428D01*
X529540Y124097D01*
Y125903D01*
X528849Y127572D01*
X527572Y128849D01*
X525903Y129540D01*
D02*
G37*
G36*
X500903D02*
X499097D01*
X497428Y128849D01*
X496151Y127572D01*
X495460Y125903D01*
Y124097D01*
X496151Y122428D01*
X497428Y121151D01*
X499097Y120460D01*
X500903D01*
X502572Y121151D01*
X503849Y122428D01*
X504540Y124097D01*
Y125903D01*
X503849Y127572D01*
X502572Y128849D01*
X500903Y129540D01*
D02*
G37*
G36*
X475903D02*
X474097D01*
X472428Y128849D01*
X471151Y127572D01*
X470460Y125903D01*
Y124097D01*
X471151Y122428D01*
X472428Y121151D01*
X474097Y120460D01*
X475903D01*
X477572Y121151D01*
X478849Y122428D01*
X479540Y124097D01*
Y125903D01*
X478849Y127572D01*
X477572Y128849D01*
X475903Y129540D01*
D02*
G37*
G36*
X450903D02*
X449097D01*
X447428Y128849D01*
X446151Y127572D01*
X445460Y125903D01*
Y124097D01*
X446151Y122428D01*
X447428Y121151D01*
X449097Y120460D01*
X450903D01*
X452572Y121151D01*
X453849Y122428D01*
X454540Y124097D01*
Y125903D01*
X453849Y127572D01*
X452572Y128849D01*
X450903Y129540D01*
D02*
G37*
G36*
X425903D02*
X424097D01*
X422428Y128849D01*
X421151Y127572D01*
X420460Y125903D01*
Y124097D01*
X421151Y122428D01*
X422428Y121151D01*
X424097Y120460D01*
X425903D01*
X427572Y121151D01*
X428849Y122428D01*
X429540Y124097D01*
Y125903D01*
X428849Y127572D01*
X427572Y128849D01*
X425903Y129540D01*
D02*
G37*
G36*
X400903D02*
X399097D01*
X397428Y128849D01*
X396151Y127572D01*
X395460Y125903D01*
Y124097D01*
X396151Y122428D01*
X397428Y121151D01*
X399097Y120460D01*
X400903D01*
X402572Y121151D01*
X403849Y122428D01*
X404540Y124097D01*
Y125903D01*
X403849Y127572D01*
X402572Y128849D01*
X400903Y129540D01*
D02*
G37*
G36*
X375903D02*
X374097D01*
X372428Y128849D01*
X371151Y127572D01*
X370460Y125903D01*
Y124097D01*
X371151Y122428D01*
X372428Y121151D01*
X374097Y120460D01*
X375903D01*
X377572Y121151D01*
X378849Y122428D01*
X379540Y124097D01*
Y125903D01*
X378849Y127572D01*
X377572Y128849D01*
X375903Y129540D01*
D02*
G37*
G36*
X350903D02*
X349097D01*
X347428Y128849D01*
X346151Y127572D01*
X345460Y125903D01*
Y124097D01*
X346151Y122428D01*
X347428Y121151D01*
X349097Y120460D01*
X350903D01*
X352572Y121151D01*
X353849Y122428D01*
X354540Y124097D01*
Y125903D01*
X353849Y127572D01*
X352572Y128849D01*
X350903Y129540D01*
D02*
G37*
G36*
X325903D02*
X324097D01*
X322428Y128849D01*
X321151Y127572D01*
X320460Y125903D01*
Y124097D01*
X321151Y122428D01*
X322428Y121151D01*
X324097Y120460D01*
X325903D01*
X327572Y121151D01*
X328849Y122428D01*
X329540Y124097D01*
Y125903D01*
X328849Y127572D01*
X327572Y128849D01*
X325903Y129540D01*
D02*
G37*
G36*
X300903D02*
X299097D01*
X297428Y128849D01*
X296151Y127572D01*
X295460Y125903D01*
Y124097D01*
X296151Y122428D01*
X297428Y121151D01*
X299097Y120460D01*
X300903D01*
X302572Y121151D01*
X303849Y122428D01*
X304540Y124097D01*
Y125903D01*
X303849Y127572D01*
X302572Y128849D01*
X300903Y129540D01*
D02*
G37*
G36*
X275903D02*
X274097D01*
X272428Y128849D01*
X271151Y127572D01*
X270460Y125903D01*
Y124097D01*
X271151Y122428D01*
X272428Y121151D01*
X274097Y120460D01*
X275903D01*
X277572Y121151D01*
X278849Y122428D01*
X279540Y124097D01*
Y125903D01*
X278849Y127572D01*
X277572Y128849D01*
X275903Y129540D01*
D02*
G37*
G36*
X250903D02*
X249097D01*
X247428Y128849D01*
X246151Y127572D01*
X245460Y125903D01*
Y124097D01*
X246151Y122428D01*
X247428Y121151D01*
X249097Y120460D01*
X250903D01*
X252572Y121151D01*
X253849Y122428D01*
X254540Y124097D01*
Y125903D01*
X253849Y127572D01*
X252572Y128849D01*
X250903Y129540D01*
D02*
G37*
G36*
X225903D02*
X224097D01*
X222428Y128849D01*
X221151Y127572D01*
X220460Y125903D01*
Y124097D01*
X221151Y122428D01*
X222428Y121151D01*
X224097Y120460D01*
X225903D01*
X227572Y121151D01*
X228849Y122428D01*
X229540Y124097D01*
Y125903D01*
X228849Y127572D01*
X227572Y128849D01*
X225903Y129540D01*
D02*
G37*
G36*
X200903D02*
X199097D01*
X197428Y128849D01*
X196151Y127572D01*
X195460Y125903D01*
Y124097D01*
X196151Y122428D01*
X197428Y121151D01*
X199097Y120460D01*
X200903D01*
X202572Y121151D01*
X203849Y122428D01*
X204540Y124097D01*
Y125903D01*
X203849Y127572D01*
X202572Y128849D01*
X200903Y129540D01*
D02*
G37*
G36*
X175903D02*
X174097D01*
X172428Y128849D01*
X171151Y127572D01*
X170460Y125903D01*
Y124097D01*
X171151Y122428D01*
X172428Y121151D01*
X174097Y120460D01*
X175903D01*
X177572Y121151D01*
X178849Y122428D01*
X179540Y124097D01*
Y125903D01*
X178849Y127572D01*
X177572Y128849D01*
X175903Y129540D01*
D02*
G37*
G36*
X150903D02*
X149097D01*
X147428Y128849D01*
X146151Y127572D01*
X145460Y125903D01*
Y124097D01*
X146151Y122428D01*
X147428Y121151D01*
X149097Y120460D01*
X150903D01*
X152572Y121151D01*
X153849Y122428D01*
X154540Y124097D01*
Y125903D01*
X153849Y127572D01*
X152572Y128849D01*
X150903Y129540D01*
D02*
G37*
G36*
X125903D02*
X124097D01*
X122428Y128849D01*
X121151Y127572D01*
X120460Y125903D01*
Y124097D01*
X121151Y122428D01*
X122428Y121151D01*
X124097Y120460D01*
X125903D01*
X127572Y121151D01*
X128849Y122428D01*
X129540Y124097D01*
Y125903D01*
X128849Y127572D01*
X127572Y128849D01*
X125903Y129540D01*
D02*
G37*
G36*
X100903D02*
X99097D01*
X97428Y128849D01*
X96151Y127572D01*
X95460Y125903D01*
Y124097D01*
X96151Y122428D01*
X97428Y121151D01*
X99097Y120460D01*
X100903D01*
X102572Y121151D01*
X103849Y122428D01*
X104540Y124097D01*
Y125903D01*
X103849Y127572D01*
X102572Y128849D01*
X100903Y129540D01*
D02*
G37*
G36*
X75903D02*
X74097D01*
X72428Y128849D01*
X71151Y127572D01*
X70460Y125903D01*
Y124097D01*
X71151Y122428D01*
X72428Y121151D01*
X74097Y120460D01*
X75903D01*
X77572Y121151D01*
X78849Y122428D01*
X79540Y124097D01*
Y125903D01*
X78849Y127572D01*
X77572Y128849D01*
X75903Y129540D01*
D02*
G37*
G36*
X50903D02*
X49097D01*
X47428Y128849D01*
X46151Y127572D01*
X45460Y125903D01*
Y124097D01*
X46151Y122428D01*
X47428Y121151D01*
X49097Y120460D01*
X50903D01*
X52572Y121151D01*
X53849Y122428D01*
X54540Y124097D01*
Y125903D01*
X53849Y127572D01*
X52572Y128849D01*
X50903Y129540D01*
D02*
G37*
G36*
X25903D02*
X24097D01*
X22428Y128849D01*
X21151Y127572D01*
X20460Y125903D01*
Y124097D01*
X21151Y122428D01*
X22428Y121151D01*
X24097Y120460D01*
X25903D01*
X27572Y121151D01*
X28849Y122428D01*
X29540Y124097D01*
Y125903D01*
X28849Y127572D01*
X27572Y128849D01*
X25903Y129540D01*
D02*
G37*
G36*
X903D02*
X-903D01*
X-2572Y128849D01*
X-3849Y127572D01*
X-4540Y125903D01*
Y124097D01*
X-3849Y122428D01*
X-2572Y121151D01*
X-903Y120460D01*
X903D01*
X2572Y121151D01*
X3849Y122428D01*
X4540Y124097D01*
Y125903D01*
X3849Y127572D01*
X2572Y128849D01*
X903Y129540D01*
D02*
G37*
G36*
X575903Y104540D02*
X574097D01*
X572428Y103849D01*
X571151Y102572D01*
X570460Y100903D01*
Y99097D01*
X571151Y97428D01*
X572428Y96151D01*
X574097Y95460D01*
X575903D01*
X577572Y96151D01*
X578849Y97428D01*
X579540Y99097D01*
Y100903D01*
X578849Y102572D01*
X577572Y103849D01*
X575903Y104540D01*
D02*
G37*
G36*
X550903D02*
X549097D01*
X547428Y103849D01*
X546151Y102572D01*
X545460Y100903D01*
Y99097D01*
X546151Y97428D01*
X547428Y96151D01*
X549097Y95460D01*
X550903D01*
X552572Y96151D01*
X553849Y97428D01*
X554540Y99097D01*
Y100903D01*
X553849Y102572D01*
X552572Y103849D01*
X550903Y104540D01*
D02*
G37*
G36*
X525903D02*
X524097D01*
X522428Y103849D01*
X521151Y102572D01*
X520460Y100903D01*
Y99097D01*
X521151Y97428D01*
X522428Y96151D01*
X524097Y95460D01*
X525903D01*
X527572Y96151D01*
X528849Y97428D01*
X529540Y99097D01*
Y100903D01*
X528849Y102572D01*
X527572Y103849D01*
X525903Y104540D01*
D02*
G37*
G36*
X500903D02*
X499097D01*
X497428Y103849D01*
X496151Y102572D01*
X495460Y100903D01*
Y99097D01*
X496151Y97428D01*
X497428Y96151D01*
X499097Y95460D01*
X500903D01*
X502572Y96151D01*
X503849Y97428D01*
X504540Y99097D01*
Y100903D01*
X503849Y102572D01*
X502572Y103849D01*
X500903Y104540D01*
D02*
G37*
G36*
X475903D02*
X474097D01*
X472428Y103849D01*
X471151Y102572D01*
X470460Y100903D01*
Y99097D01*
X471151Y97428D01*
X472428Y96151D01*
X474097Y95460D01*
X475903D01*
X477572Y96151D01*
X478849Y97428D01*
X479540Y99097D01*
Y100903D01*
X478849Y102572D01*
X477572Y103849D01*
X475903Y104540D01*
D02*
G37*
G36*
X450903D02*
X449097D01*
X447428Y103849D01*
X446151Y102572D01*
X445460Y100903D01*
Y99097D01*
X446151Y97428D01*
X447428Y96151D01*
X449097Y95460D01*
X450903D01*
X452572Y96151D01*
X453849Y97428D01*
X454540Y99097D01*
Y100903D01*
X453849Y102572D01*
X452572Y103849D01*
X450903Y104540D01*
D02*
G37*
G36*
X425903D02*
X424097D01*
X422428Y103849D01*
X421151Y102572D01*
X420460Y100903D01*
Y99097D01*
X421151Y97428D01*
X422428Y96151D01*
X424097Y95460D01*
X425903D01*
X427572Y96151D01*
X428849Y97428D01*
X429540Y99097D01*
Y100903D01*
X428849Y102572D01*
X427572Y103849D01*
X425903Y104540D01*
D02*
G37*
G36*
X400903D02*
X399097D01*
X397428Y103849D01*
X396151Y102572D01*
X395460Y100903D01*
Y99097D01*
X396151Y97428D01*
X397428Y96151D01*
X399097Y95460D01*
X400903D01*
X402572Y96151D01*
X403849Y97428D01*
X404540Y99097D01*
Y100903D01*
X403849Y102572D01*
X402572Y103849D01*
X400903Y104540D01*
D02*
G37*
G36*
X375903D02*
X374097D01*
X372428Y103849D01*
X371151Y102572D01*
X370460Y100903D01*
Y99097D01*
X371151Y97428D01*
X372428Y96151D01*
X374097Y95460D01*
X375903D01*
X377572Y96151D01*
X378849Y97428D01*
X379540Y99097D01*
Y100903D01*
X378849Y102572D01*
X377572Y103849D01*
X375903Y104540D01*
D02*
G37*
G36*
X350903D02*
X349097D01*
X347428Y103849D01*
X346151Y102572D01*
X345460Y100903D01*
Y99097D01*
X346151Y97428D01*
X347428Y96151D01*
X349097Y95460D01*
X350903D01*
X352572Y96151D01*
X353849Y97428D01*
X354540Y99097D01*
Y100903D01*
X353849Y102572D01*
X352572Y103849D01*
X350903Y104540D01*
D02*
G37*
G36*
X325903D02*
X324097D01*
X322428Y103849D01*
X321151Y102572D01*
X320460Y100903D01*
Y99097D01*
X321151Y97428D01*
X322428Y96151D01*
X324097Y95460D01*
X325903D01*
X327572Y96151D01*
X328849Y97428D01*
X329540Y99097D01*
Y100903D01*
X328849Y102572D01*
X327572Y103849D01*
X325903Y104540D01*
D02*
G37*
G36*
X300903D02*
X299097D01*
X297428Y103849D01*
X296151Y102572D01*
X295460Y100903D01*
Y99097D01*
X296151Y97428D01*
X297428Y96151D01*
X299097Y95460D01*
X300903D01*
X302572Y96151D01*
X303849Y97428D01*
X304540Y99097D01*
Y100903D01*
X303849Y102572D01*
X302572Y103849D01*
X300903Y104540D01*
D02*
G37*
G36*
X275903D02*
X274097D01*
X272428Y103849D01*
X271151Y102572D01*
X270460Y100903D01*
Y99097D01*
X271151Y97428D01*
X272428Y96151D01*
X274097Y95460D01*
X275903D01*
X277572Y96151D01*
X278849Y97428D01*
X279540Y99097D01*
Y100903D01*
X278849Y102572D01*
X277572Y103849D01*
X275903Y104540D01*
D02*
G37*
G36*
X250903D02*
X249097D01*
X247428Y103849D01*
X246151Y102572D01*
X245460Y100903D01*
Y99097D01*
X246151Y97428D01*
X247428Y96151D01*
X249097Y95460D01*
X250903D01*
X252572Y96151D01*
X253849Y97428D01*
X254540Y99097D01*
Y100903D01*
X253849Y102572D01*
X252572Y103849D01*
X250903Y104540D01*
D02*
G37*
G36*
X225903D02*
X224097D01*
X222428Y103849D01*
X221151Y102572D01*
X220460Y100903D01*
Y99097D01*
X221151Y97428D01*
X222428Y96151D01*
X224097Y95460D01*
X225903D01*
X227572Y96151D01*
X228849Y97428D01*
X229540Y99097D01*
Y100903D01*
X228849Y102572D01*
X227572Y103849D01*
X225903Y104540D01*
D02*
G37*
G36*
X200903D02*
X199097D01*
X197428Y103849D01*
X196151Y102572D01*
X195460Y100903D01*
Y99097D01*
X196151Y97428D01*
X197428Y96151D01*
X199097Y95460D01*
X200903D01*
X202572Y96151D01*
X203849Y97428D01*
X204540Y99097D01*
Y100903D01*
X203849Y102572D01*
X202572Y103849D01*
X200903Y104540D01*
D02*
G37*
G36*
X175903D02*
X174097D01*
X172428Y103849D01*
X171151Y102572D01*
X170460Y100903D01*
Y99097D01*
X171151Y97428D01*
X172428Y96151D01*
X174097Y95460D01*
X175903D01*
X177572Y96151D01*
X178849Y97428D01*
X179540Y99097D01*
Y100903D01*
X178849Y102572D01*
X177572Y103849D01*
X175903Y104540D01*
D02*
G37*
G36*
X150903D02*
X149097D01*
X147428Y103849D01*
X146151Y102572D01*
X145460Y100903D01*
Y99097D01*
X146151Y97428D01*
X147428Y96151D01*
X149097Y95460D01*
X150903D01*
X152572Y96151D01*
X153849Y97428D01*
X154540Y99097D01*
Y100903D01*
X153849Y102572D01*
X152572Y103849D01*
X150903Y104540D01*
D02*
G37*
G36*
X125903D02*
X124097D01*
X122428Y103849D01*
X121151Y102572D01*
X120460Y100903D01*
Y99097D01*
X121151Y97428D01*
X122428Y96151D01*
X124097Y95460D01*
X125903D01*
X127572Y96151D01*
X128849Y97428D01*
X129540Y99097D01*
Y100903D01*
X128849Y102572D01*
X127572Y103849D01*
X125903Y104540D01*
D02*
G37*
G36*
X100903D02*
X99097D01*
X97428Y103849D01*
X96151Y102572D01*
X95460Y100903D01*
Y99097D01*
X96151Y97428D01*
X97428Y96151D01*
X99097Y95460D01*
X100903D01*
X102572Y96151D01*
X103849Y97428D01*
X104540Y99097D01*
Y100903D01*
X103849Y102572D01*
X102572Y103849D01*
X100903Y104540D01*
D02*
G37*
G36*
X75903D02*
X74097D01*
X72428Y103849D01*
X71151Y102572D01*
X70460Y100903D01*
Y99097D01*
X71151Y97428D01*
X72428Y96151D01*
X74097Y95460D01*
X75903D01*
X77572Y96151D01*
X78849Y97428D01*
X79540Y99097D01*
Y100903D01*
X78849Y102572D01*
X77572Y103849D01*
X75903Y104540D01*
D02*
G37*
G36*
X50903D02*
X49097D01*
X47428Y103849D01*
X46151Y102572D01*
X45460Y100903D01*
Y99097D01*
X46151Y97428D01*
X47428Y96151D01*
X49097Y95460D01*
X50903D01*
X52572Y96151D01*
X53849Y97428D01*
X54540Y99097D01*
Y100903D01*
X53849Y102572D01*
X52572Y103849D01*
X50903Y104540D01*
D02*
G37*
G36*
X25903D02*
X24097D01*
X22428Y103849D01*
X21151Y102572D01*
X20460Y100903D01*
Y99097D01*
X21151Y97428D01*
X22428Y96151D01*
X24097Y95460D01*
X25903D01*
X27572Y96151D01*
X28849Y97428D01*
X29540Y99097D01*
Y100903D01*
X28849Y102572D01*
X27572Y103849D01*
X25903Y104540D01*
D02*
G37*
G36*
X903D02*
X-903D01*
X-2572Y103849D01*
X-3849Y102572D01*
X-4540Y100903D01*
Y99097D01*
X-3849Y97428D01*
X-2572Y96151D01*
X-903Y95460D01*
X903D01*
X2572Y96151D01*
X3849Y97428D01*
X4540Y99097D01*
Y100903D01*
X3849Y102572D01*
X2572Y103849D01*
X903Y104540D01*
D02*
G37*
G36*
X575903Y79540D02*
X574097D01*
X572428Y78849D01*
X571151Y77572D01*
X570460Y75903D01*
Y74097D01*
X571151Y72428D01*
X572428Y71151D01*
X574097Y70460D01*
X575903D01*
X577572Y71151D01*
X578849Y72428D01*
X579540Y74097D01*
Y75903D01*
X578849Y77572D01*
X577572Y78849D01*
X575903Y79540D01*
D02*
G37*
G36*
X550903D02*
X549097D01*
X547428Y78849D01*
X546151Y77572D01*
X545460Y75903D01*
Y74097D01*
X546151Y72428D01*
X547428Y71151D01*
X549097Y70460D01*
X550903D01*
X552572Y71151D01*
X553849Y72428D01*
X554540Y74097D01*
Y75903D01*
X553849Y77572D01*
X552572Y78849D01*
X550903Y79540D01*
D02*
G37*
G36*
X250903D02*
X249097D01*
X247428Y78849D01*
X246151Y77572D01*
X245460Y75903D01*
Y74097D01*
X246151Y72428D01*
X247428Y71151D01*
X249097Y70460D01*
X250903D01*
X252572Y71151D01*
X253849Y72428D01*
X254540Y74097D01*
Y75903D01*
X253849Y77572D01*
X252572Y78849D01*
X250903Y79540D01*
D02*
G37*
G36*
X225903D02*
X224097D01*
X222428Y78849D01*
X221151Y77572D01*
X220460Y75903D01*
Y74097D01*
X221151Y72428D01*
X222428Y71151D01*
X224097Y70460D01*
X225903D01*
X227572Y71151D01*
X228849Y72428D01*
X229540Y74097D01*
Y75903D01*
X228849Y77572D01*
X227572Y78849D01*
X225903Y79540D01*
D02*
G37*
G36*
X200903D02*
X199097D01*
X197428Y78849D01*
X196151Y77572D01*
X195460Y75903D01*
Y74097D01*
X196151Y72428D01*
X197428Y71151D01*
X199097Y70460D01*
X200903D01*
X202572Y71151D01*
X203849Y72428D01*
X204540Y74097D01*
Y75903D01*
X203849Y77572D01*
X202572Y78849D01*
X200903Y79540D01*
D02*
G37*
G36*
X175903D02*
X174097D01*
X172428Y78849D01*
X171151Y77572D01*
X170460Y75903D01*
Y74097D01*
X171151Y72428D01*
X172428Y71151D01*
X174097Y70460D01*
X175903D01*
X177572Y71151D01*
X178849Y72428D01*
X179540Y74097D01*
Y75903D01*
X178849Y77572D01*
X177572Y78849D01*
X175903Y79540D01*
D02*
G37*
G36*
X150903D02*
X149097D01*
X147428Y78849D01*
X146151Y77572D01*
X145460Y75903D01*
Y74097D01*
X146151Y72428D01*
X147428Y71151D01*
X149097Y70460D01*
X150903D01*
X152572Y71151D01*
X153849Y72428D01*
X154540Y74097D01*
Y75903D01*
X153849Y77572D01*
X152572Y78849D01*
X150903Y79540D01*
D02*
G37*
G36*
X125903D02*
X124097D01*
X122428Y78849D01*
X121151Y77572D01*
X120460Y75903D01*
Y74097D01*
X121151Y72428D01*
X122428Y71151D01*
X124097Y70460D01*
X125903D01*
X127572Y71151D01*
X128849Y72428D01*
X129540Y74097D01*
Y75903D01*
X128849Y77572D01*
X127572Y78849D01*
X125903Y79540D01*
D02*
G37*
G36*
X100903D02*
X99097D01*
X97428Y78849D01*
X96151Y77572D01*
X95460Y75903D01*
Y74097D01*
X96151Y72428D01*
X97428Y71151D01*
X99097Y70460D01*
X100903D01*
X102572Y71151D01*
X103849Y72428D01*
X104540Y74097D01*
Y75903D01*
X103849Y77572D01*
X102572Y78849D01*
X100903Y79540D01*
D02*
G37*
G36*
X75903D02*
X74097D01*
X72428Y78849D01*
X71151Y77572D01*
X70460Y75903D01*
Y74097D01*
X71151Y72428D01*
X72428Y71151D01*
X74097Y70460D01*
X75903D01*
X77572Y71151D01*
X78849Y72428D01*
X79540Y74097D01*
Y75903D01*
X78849Y77572D01*
X77572Y78849D01*
X75903Y79540D01*
D02*
G37*
G36*
X50903D02*
X49097D01*
X47428Y78849D01*
X46151Y77572D01*
X45460Y75903D01*
Y74097D01*
X46151Y72428D01*
X47428Y71151D01*
X49097Y70460D01*
X50903D01*
X52572Y71151D01*
X53849Y72428D01*
X54540Y74097D01*
Y75903D01*
X53849Y77572D01*
X52572Y78849D01*
X50903Y79540D01*
D02*
G37*
G36*
X25903D02*
X24097D01*
X22428Y78849D01*
X21151Y77572D01*
X20460Y75903D01*
Y74097D01*
X21151Y72428D01*
X22428Y71151D01*
X24097Y70460D01*
X25903D01*
X27572Y71151D01*
X28849Y72428D01*
X29540Y74097D01*
Y75903D01*
X28849Y77572D01*
X27572Y78849D01*
X25903Y79540D01*
D02*
G37*
G36*
X903D02*
X-903D01*
X-2572Y78849D01*
X-3849Y77572D01*
X-4540Y75903D01*
Y74097D01*
X-3849Y72428D01*
X-2572Y71151D01*
X-903Y70460D01*
X903D01*
X2572Y71151D01*
X3849Y72428D01*
X4540Y74097D01*
Y75903D01*
X3849Y77572D01*
X2572Y78849D01*
X903Y79540D01*
D02*
G37*
G36*
X515753Y91040D02*
X512846D01*
X510039Y90288D01*
X507521Y88834D01*
X505466Y86779D01*
X504012Y84261D01*
X503260Y81453D01*
Y78547D01*
X504012Y75739D01*
X505466Y73221D01*
X507521Y71166D01*
X510039Y69712D01*
X512846Y68960D01*
X515753D01*
X518561Y69712D01*
X521079Y71166D01*
X523134Y73221D01*
X524588Y75739D01*
X525340Y78547D01*
Y81453D01*
X524588Y84261D01*
X523134Y86779D01*
X521079Y88834D01*
X518561Y90288D01*
X515753Y91040D01*
D02*
G37*
G36*
X439553D02*
X436646D01*
X433839Y90288D01*
X431321Y88834D01*
X429266Y86779D01*
X427812Y84261D01*
X427060Y81453D01*
Y78547D01*
X427812Y75739D01*
X429266Y73221D01*
X431321Y71166D01*
X433839Y69712D01*
X436646Y68960D01*
X439553D01*
X442361Y69712D01*
X444879Y71166D01*
X446934Y73221D01*
X448388Y75739D01*
X449140Y78547D01*
Y81453D01*
X448388Y84261D01*
X446934Y86779D01*
X444879Y88834D01*
X442361Y90288D01*
X439553Y91040D01*
D02*
G37*
G36*
X414153D02*
X411246D01*
X408439Y90288D01*
X405921Y88834D01*
X403866Y86779D01*
X402412Y84261D01*
X401660Y81453D01*
Y78547D01*
X402412Y75739D01*
X403866Y73221D01*
X405921Y71166D01*
X408439Y69712D01*
X411246Y68960D01*
X414153D01*
X416961Y69712D01*
X419479Y71166D01*
X421534Y73221D01*
X422988Y75739D01*
X423740Y78547D01*
Y81453D01*
X422988Y84261D01*
X421534Y86779D01*
X419479Y88834D01*
X416961Y90288D01*
X414153Y91040D01*
D02*
G37*
G36*
X388753D02*
X385846D01*
X383039Y90288D01*
X380521Y88834D01*
X378466Y86779D01*
X377012Y84261D01*
X376260Y81453D01*
Y78547D01*
X377012Y75739D01*
X378466Y73221D01*
X380521Y71166D01*
X383039Y69712D01*
X385846Y68960D01*
X388753D01*
X391561Y69712D01*
X394079Y71166D01*
X396134Y73221D01*
X397588Y75739D01*
X398340Y78547D01*
Y81453D01*
X397588Y84261D01*
X396134Y86779D01*
X394079Y88834D01*
X391561Y90288D01*
X388753Y91040D01*
D02*
G37*
G36*
X363353D02*
X360447D01*
X357639Y90288D01*
X355121Y88834D01*
X353066Y86779D01*
X351612Y84261D01*
X350860Y81453D01*
Y78547D01*
X351612Y75739D01*
X353066Y73221D01*
X355121Y71166D01*
X357639Y69712D01*
X360447Y68960D01*
X363353D01*
X366161Y69712D01*
X368679Y71166D01*
X370734Y73221D01*
X372188Y75739D01*
X372940Y78547D01*
Y81453D01*
X372188Y84261D01*
X370734Y86779D01*
X368679Y88834D01*
X366161Y90288D01*
X363353Y91040D01*
D02*
G37*
G36*
X337953D02*
X335047D01*
X332239Y90288D01*
X329721Y88834D01*
X327666Y86779D01*
X326212Y84261D01*
X325460Y81453D01*
Y78547D01*
X326212Y75739D01*
X327666Y73221D01*
X329721Y71166D01*
X332239Y69712D01*
X335047Y68960D01*
X337953D01*
X340761Y69712D01*
X343279Y71166D01*
X345334Y73221D01*
X346788Y75739D01*
X347540Y78547D01*
Y81453D01*
X346788Y84261D01*
X345334Y86779D01*
X343279Y88834D01*
X340761Y90288D01*
X337953Y91040D01*
D02*
G37*
G36*
X312553D02*
X309646D01*
X306839Y90288D01*
X304321Y88834D01*
X302266Y86779D01*
X300812Y84261D01*
X300060Y81453D01*
Y78547D01*
X300812Y75739D01*
X302266Y73221D01*
X304321Y71166D01*
X306839Y69712D01*
X309646Y68960D01*
X312553D01*
X315361Y69712D01*
X317879Y71166D01*
X319934Y73221D01*
X321388Y75739D01*
X322140Y78547D01*
Y81453D01*
X321388Y84261D01*
X319934Y86779D01*
X317879Y88834D01*
X315361Y90288D01*
X312553Y91040D01*
D02*
G37*
G36*
X291220D02*
X280180D01*
X274660Y85520D01*
Y74480D01*
X280180Y68960D01*
X291220D01*
X296740Y74480D01*
Y85520D01*
X291220Y91040D01*
D02*
G37*
G36*
X575903Y54540D02*
X574097D01*
X572428Y53849D01*
X571151Y52572D01*
X570460Y50903D01*
Y49097D01*
X571151Y47428D01*
X572428Y46151D01*
X574097Y45460D01*
X575903D01*
X577572Y46151D01*
X578849Y47428D01*
X579540Y49097D01*
Y50903D01*
X578849Y52572D01*
X577572Y53849D01*
X575903Y54540D01*
D02*
G37*
G36*
X550903D02*
X549097D01*
X547428Y53849D01*
X546151Y52572D01*
X545460Y50903D01*
Y49097D01*
X546151Y47428D01*
X547428Y46151D01*
X549097Y45460D01*
X550903D01*
X552572Y46151D01*
X553849Y47428D01*
X554540Y49097D01*
Y50903D01*
X553849Y52572D01*
X552572Y53849D01*
X550903Y54540D01*
D02*
G37*
G36*
X525903D02*
X524097D01*
X522428Y53849D01*
X521151Y52572D01*
X520460Y50903D01*
Y49097D01*
X521151Y47428D01*
X522428Y46151D01*
X524097Y45460D01*
X525903D01*
X527572Y46151D01*
X528849Y47428D01*
X529540Y49097D01*
Y50903D01*
X528849Y52572D01*
X527572Y53849D01*
X525903Y54540D01*
D02*
G37*
G36*
X500903D02*
X499097D01*
X497428Y53849D01*
X496151Y52572D01*
X495460Y50903D01*
Y49097D01*
X496151Y47428D01*
X497428Y46151D01*
X499097Y45460D01*
X500903D01*
X502572Y46151D01*
X503849Y47428D01*
X504540Y49097D01*
Y50903D01*
X503849Y52572D01*
X502572Y53849D01*
X500903Y54540D01*
D02*
G37*
G36*
X475903D02*
X474097D01*
X472428Y53849D01*
X471151Y52572D01*
X470460Y50903D01*
Y49097D01*
X471151Y47428D01*
X472428Y46151D01*
X474097Y45460D01*
X475903D01*
X477572Y46151D01*
X478849Y47428D01*
X479540Y49097D01*
Y50903D01*
X478849Y52572D01*
X477572Y53849D01*
X475903Y54540D01*
D02*
G37*
G36*
X450903D02*
X449097D01*
X447428Y53849D01*
X446151Y52572D01*
X445460Y50903D01*
Y49097D01*
X446151Y47428D01*
X447428Y46151D01*
X449097Y45460D01*
X450903D01*
X452572Y46151D01*
X453849Y47428D01*
X454540Y49097D01*
Y50903D01*
X453849Y52572D01*
X452572Y53849D01*
X450903Y54540D01*
D02*
G37*
G36*
X425903D02*
X424097D01*
X422428Y53849D01*
X421151Y52572D01*
X420460Y50903D01*
Y49097D01*
X421151Y47428D01*
X422428Y46151D01*
X424097Y45460D01*
X425903D01*
X427572Y46151D01*
X428849Y47428D01*
X429540Y49097D01*
Y50903D01*
X428849Y52572D01*
X427572Y53849D01*
X425903Y54540D01*
D02*
G37*
G36*
X400903D02*
X399097D01*
X397428Y53849D01*
X396151Y52572D01*
X395460Y50903D01*
Y49097D01*
X396151Y47428D01*
X397428Y46151D01*
X399097Y45460D01*
X400903D01*
X402572Y46151D01*
X403849Y47428D01*
X404540Y49097D01*
Y50903D01*
X403849Y52572D01*
X402572Y53849D01*
X400903Y54540D01*
D02*
G37*
G36*
X350903D02*
X349097D01*
X347428Y53849D01*
X346151Y52572D01*
X345460Y50903D01*
Y49097D01*
X346151Y47428D01*
X347428Y46151D01*
X349097Y45460D01*
X350903D01*
X352572Y46151D01*
X353849Y47428D01*
X354540Y49097D01*
Y50903D01*
X353849Y52572D01*
X352572Y53849D01*
X350903Y54540D01*
D02*
G37*
G36*
X225903D02*
X224097D01*
X222428Y53849D01*
X221151Y52572D01*
X220460Y50903D01*
Y49097D01*
X221151Y47428D01*
X222428Y46151D01*
X224097Y45460D01*
X225903D01*
X227572Y46151D01*
X228849Y47428D01*
X229540Y49097D01*
Y50903D01*
X228849Y52572D01*
X227572Y53849D01*
X225903Y54540D01*
D02*
G37*
G36*
X200903D02*
X199097D01*
X197428Y53849D01*
X196151Y52572D01*
X195460Y50903D01*
Y49097D01*
X196151Y47428D01*
X197428Y46151D01*
X199097Y45460D01*
X200903D01*
X202572Y46151D01*
X203849Y47428D01*
X204540Y49097D01*
Y50903D01*
X203849Y52572D01*
X202572Y53849D01*
X200903Y54540D01*
D02*
G37*
G36*
X175903D02*
X174097D01*
X172428Y53849D01*
X171151Y52572D01*
X170460Y50903D01*
Y49097D01*
X171151Y47428D01*
X172428Y46151D01*
X174097Y45460D01*
X175903D01*
X177572Y46151D01*
X178849Y47428D01*
X179540Y49097D01*
Y50903D01*
X178849Y52572D01*
X177572Y53849D01*
X175903Y54540D01*
D02*
G37*
G36*
X150903D02*
X149097D01*
X147428Y53849D01*
X146151Y52572D01*
X145460Y50903D01*
Y49097D01*
X146151Y47428D01*
X147428Y46151D01*
X149097Y45460D01*
X150903D01*
X152572Y46151D01*
X153849Y47428D01*
X154540Y49097D01*
Y50903D01*
X153849Y52572D01*
X152572Y53849D01*
X150903Y54540D01*
D02*
G37*
G36*
X125903D02*
X124097D01*
X122428Y53849D01*
X121151Y52572D01*
X120460Y50903D01*
Y49097D01*
X121151Y47428D01*
X122428Y46151D01*
X124097Y45460D01*
X125903D01*
X127572Y46151D01*
X128849Y47428D01*
X129540Y49097D01*
Y50903D01*
X128849Y52572D01*
X127572Y53849D01*
X125903Y54540D01*
D02*
G37*
G36*
X100903D02*
X99097D01*
X97428Y53849D01*
X96151Y52572D01*
X95460Y50903D01*
Y49097D01*
X96151Y47428D01*
X97428Y46151D01*
X99097Y45460D01*
X100903D01*
X102572Y46151D01*
X103849Y47428D01*
X104540Y49097D01*
Y50903D01*
X103849Y52572D01*
X102572Y53849D01*
X100903Y54540D01*
D02*
G37*
G36*
X75903D02*
X74097D01*
X72428Y53849D01*
X71151Y52572D01*
X70460Y50903D01*
Y49097D01*
X71151Y47428D01*
X72428Y46151D01*
X74097Y45460D01*
X75903D01*
X77572Y46151D01*
X78849Y47428D01*
X79540Y49097D01*
Y50903D01*
X78849Y52572D01*
X77572Y53849D01*
X75903Y54540D01*
D02*
G37*
G36*
X50903D02*
X49097D01*
X47428Y53849D01*
X46151Y52572D01*
X45460Y50903D01*
Y49097D01*
X46151Y47428D01*
X47428Y46151D01*
X49097Y45460D01*
X50903D01*
X52572Y46151D01*
X53849Y47428D01*
X54540Y49097D01*
Y50903D01*
X53849Y52572D01*
X52572Y53849D01*
X50903Y54540D01*
D02*
G37*
G36*
X25903D02*
X24097D01*
X22428Y53849D01*
X21151Y52572D01*
X20460Y50903D01*
Y49097D01*
X21151Y47428D01*
X22428Y46151D01*
X24097Y45460D01*
X25903D01*
X27572Y46151D01*
X28849Y47428D01*
X29540Y49097D01*
Y50903D01*
X28849Y52572D01*
X27572Y53849D01*
X25903Y54540D01*
D02*
G37*
G36*
X903D02*
X-903D01*
X-2572Y53849D01*
X-3849Y52572D01*
X-4540Y50903D01*
Y49097D01*
X-3849Y47428D01*
X-2572Y46151D01*
X-903Y45460D01*
X903D01*
X2572Y46151D01*
X3849Y47428D01*
X4540Y49097D01*
Y50903D01*
X3849Y52572D01*
X2572Y53849D01*
X903Y54540D01*
D02*
G37*
G36*
X575903Y29540D02*
X574097D01*
X572428Y28849D01*
X571151Y27572D01*
X570460Y25903D01*
Y24097D01*
X571151Y22428D01*
X572428Y21151D01*
X574097Y20460D01*
X575903D01*
X577572Y21151D01*
X578849Y22428D01*
X579540Y24097D01*
Y25903D01*
X578849Y27572D01*
X577572Y28849D01*
X575903Y29540D01*
D02*
G37*
G36*
X550903D02*
X549097D01*
X547428Y28849D01*
X546151Y27572D01*
X545460Y25903D01*
Y24097D01*
X546151Y22428D01*
X547428Y21151D01*
X549097Y20460D01*
X550903D01*
X552572Y21151D01*
X553849Y22428D01*
X554540Y24097D01*
Y25903D01*
X553849Y27572D01*
X552572Y28849D01*
X550903Y29540D01*
D02*
G37*
G36*
X525903D02*
X524097D01*
X522428Y28849D01*
X521151Y27572D01*
X520460Y25903D01*
Y24097D01*
X521151Y22428D01*
X522428Y21151D01*
X524097Y20460D01*
X525903D01*
X527572Y21151D01*
X528849Y22428D01*
X529540Y24097D01*
Y25903D01*
X528849Y27572D01*
X527572Y28849D01*
X525903Y29540D01*
D02*
G37*
G36*
X500903D02*
X499097D01*
X497428Y28849D01*
X496151Y27572D01*
X495460Y25903D01*
Y24097D01*
X496151Y22428D01*
X497428Y21151D01*
X499097Y20460D01*
X500903D01*
X502572Y21151D01*
X503849Y22428D01*
X504540Y24097D01*
Y25903D01*
X503849Y27572D01*
X502572Y28849D01*
X500903Y29540D01*
D02*
G37*
G36*
X475903D02*
X474097D01*
X472428Y28849D01*
X471151Y27572D01*
X470460Y25903D01*
Y24097D01*
X471151Y22428D01*
X472428Y21151D01*
X474097Y20460D01*
X475903D01*
X477572Y21151D01*
X478849Y22428D01*
X479540Y24097D01*
Y25903D01*
X478849Y27572D01*
X477572Y28849D01*
X475903Y29540D01*
D02*
G37*
G36*
X450903D02*
X449097D01*
X447428Y28849D01*
X446151Y27572D01*
X445460Y25903D01*
Y24097D01*
X446151Y22428D01*
X447428Y21151D01*
X449097Y20460D01*
X450903D01*
X452572Y21151D01*
X453849Y22428D01*
X454540Y24097D01*
Y25903D01*
X453849Y27572D01*
X452572Y28849D01*
X450903Y29540D01*
D02*
G37*
G36*
X425903D02*
X424097D01*
X422428Y28849D01*
X421151Y27572D01*
X420460Y25903D01*
Y24097D01*
X421151Y22428D01*
X422428Y21151D01*
X424097Y20460D01*
X425903D01*
X427572Y21151D01*
X428849Y22428D01*
X429540Y24097D01*
Y25903D01*
X428849Y27572D01*
X427572Y28849D01*
X425903Y29540D01*
D02*
G37*
G36*
X400903D02*
X399097D01*
X397428Y28849D01*
X396151Y27572D01*
X395460Y25903D01*
Y24097D01*
X396151Y22428D01*
X397428Y21151D01*
X399097Y20460D01*
X400903D01*
X402572Y21151D01*
X403849Y22428D01*
X404540Y24097D01*
Y25903D01*
X403849Y27572D01*
X402572Y28849D01*
X400903Y29540D01*
D02*
G37*
G36*
X375903D02*
X374097D01*
X372428Y28849D01*
X371151Y27572D01*
X370460Y25903D01*
Y24097D01*
X371151Y22428D01*
X372428Y21151D01*
X374097Y20460D01*
X375903D01*
X377572Y21151D01*
X378849Y22428D01*
X379540Y24097D01*
Y25903D01*
X378849Y27572D01*
X377572Y28849D01*
X375903Y29540D01*
D02*
G37*
G36*
X325903D02*
X324097D01*
X322428Y28849D01*
X321151Y27572D01*
X320460Y25903D01*
Y24097D01*
X321151Y22428D01*
X322428Y21151D01*
X324097Y20460D01*
X325903D01*
X327572Y21151D01*
X328849Y22428D01*
X329540Y24097D01*
Y25903D01*
X328849Y27572D01*
X327572Y28849D01*
X325903Y29540D01*
D02*
G37*
G36*
X200903D02*
X199097D01*
X197428Y28849D01*
X196151Y27572D01*
X195460Y25903D01*
Y24097D01*
X196151Y22428D01*
X197428Y21151D01*
X199097Y20460D01*
X200903D01*
X202572Y21151D01*
X203849Y22428D01*
X204540Y24097D01*
Y25903D01*
X203849Y27572D01*
X202572Y28849D01*
X200903Y29540D01*
D02*
G37*
G36*
X175903D02*
X174097D01*
X172428Y28849D01*
X171151Y27572D01*
X170460Y25903D01*
Y24097D01*
X171151Y22428D01*
X172428Y21151D01*
X174097Y20460D01*
X175903D01*
X177572Y21151D01*
X178849Y22428D01*
X179540Y24097D01*
Y25903D01*
X178849Y27572D01*
X177572Y28849D01*
X175903Y29540D01*
D02*
G37*
G36*
X150903D02*
X149097D01*
X147428Y28849D01*
X146151Y27572D01*
X145460Y25903D01*
Y24097D01*
X146151Y22428D01*
X147428Y21151D01*
X149097Y20460D01*
X150903D01*
X152572Y21151D01*
X153849Y22428D01*
X154540Y24097D01*
Y25903D01*
X153849Y27572D01*
X152572Y28849D01*
X150903Y29540D01*
D02*
G37*
G36*
X125903D02*
X124097D01*
X122428Y28849D01*
X121151Y27572D01*
X120460Y25903D01*
Y24097D01*
X121151Y22428D01*
X122428Y21151D01*
X124097Y20460D01*
X125903D01*
X127572Y21151D01*
X128849Y22428D01*
X129540Y24097D01*
Y25903D01*
X128849Y27572D01*
X127572Y28849D01*
X125903Y29540D01*
D02*
G37*
G36*
X100903D02*
X99097D01*
X97428Y28849D01*
X96151Y27572D01*
X95460Y25903D01*
Y24097D01*
X96151Y22428D01*
X97428Y21151D01*
X99097Y20460D01*
X100903D01*
X102572Y21151D01*
X103849Y22428D01*
X104540Y24097D01*
Y25903D01*
X103849Y27572D01*
X102572Y28849D01*
X100903Y29540D01*
D02*
G37*
G36*
X75903D02*
X74097D01*
X72428Y28849D01*
X71151Y27572D01*
X70460Y25903D01*
Y24097D01*
X71151Y22428D01*
X72428Y21151D01*
X74097Y20460D01*
X75903D01*
X77572Y21151D01*
X78849Y22428D01*
X79540Y24097D01*
Y25903D01*
X78849Y27572D01*
X77572Y28849D01*
X75903Y29540D01*
D02*
G37*
G36*
X50903D02*
X49097D01*
X47428Y28849D01*
X46151Y27572D01*
X45460Y25903D01*
Y24097D01*
X46151Y22428D01*
X47428Y21151D01*
X49097Y20460D01*
X50903D01*
X52572Y21151D01*
X53849Y22428D01*
X54540Y24097D01*
Y25903D01*
X53849Y27572D01*
X52572Y28849D01*
X50903Y29540D01*
D02*
G37*
G36*
X41040Y39640D02*
X18960D01*
Y17560D01*
X41040D01*
Y39640D01*
D02*
G37*
G36*
X6053D02*
X3147D01*
X339Y38888D01*
X-2179Y37434D01*
X-4234Y35379D01*
X-5688Y32861D01*
X-6440Y30053D01*
Y27146D01*
X-5688Y24339D01*
X-4234Y21821D01*
X-2179Y19766D01*
X339Y18312D01*
X3147Y17560D01*
X6053D01*
X8861Y18312D01*
X11379Y19766D01*
X13434Y21821D01*
X14888Y24339D01*
X15640Y27146D01*
Y30053D01*
X14888Y32861D01*
X13434Y35379D01*
X11379Y37434D01*
X8861Y38888D01*
X6053Y39640D01*
D02*
G37*
G36*
X31453Y14240D02*
X28547D01*
X25739Y13488D01*
X23221Y12034D01*
X21166Y9979D01*
X19712Y7461D01*
X19061Y5030D01*
X17884Y4272D01*
X16420Y3753D01*
X15640Y4283D01*
Y4653D01*
X14888Y7461D01*
X13434Y9979D01*
X11379Y12034D01*
X8861Y13488D01*
X6053Y14240D01*
X3147D01*
X339Y13488D01*
X-2179Y12034D01*
X-4234Y9979D01*
X-5688Y7461D01*
X-6440Y4653D01*
Y1746D01*
X-5688Y-1061D01*
X-4234Y-3579D01*
X-2179Y-5634D01*
X339Y-7088D01*
X3147Y-7840D01*
X6053D01*
X8861Y-7088D01*
X11379Y-5634D01*
X12151Y-4862D01*
X19290Y-12001D01*
X20312Y-12684D01*
X20786Y-13464D01*
X20940Y-13871D01*
X21166Y-15421D01*
X19712Y-17939D01*
X18960Y-20747D01*
Y-23654D01*
X19712Y-26461D01*
X21166Y-28979D01*
X23221Y-31034D01*
X25739Y-32488D01*
X28547Y-33240D01*
X31453D01*
X34261Y-32488D01*
X36779Y-31034D01*
X38834Y-28979D01*
X40288Y-26461D01*
X41040Y-23654D01*
Y-20747D01*
X40813Y-19899D01*
X43090Y-18584D01*
X264495Y-239989D01*
Y-508380D01*
X264791Y-509867D01*
X265633Y-511127D01*
X332039Y-577533D01*
Y-619215D01*
X329933Y-620316D01*
X327685Y-619055D01*
Y-603800D01*
X327389Y-602313D01*
X326547Y-601053D01*
X176747Y-451253D01*
X175487Y-450411D01*
X174000Y-450115D01*
X40388D01*
X40288Y-449739D01*
X38834Y-447221D01*
X36779Y-445166D01*
X34261Y-443712D01*
X31453Y-442960D01*
X28547D01*
X25739Y-443712D01*
X23221Y-445166D01*
X21166Y-447221D01*
X19712Y-449739D01*
X18960Y-452547D01*
Y-455453D01*
X19683Y-458150D01*
X19701Y-458284D01*
X18339Y-460963D01*
X17248Y-461154D01*
X14693Y-458599D01*
X14888Y-458261D01*
X15640Y-455453D01*
Y-452547D01*
X14888Y-449739D01*
X13434Y-447221D01*
X11379Y-445166D01*
X8861Y-443712D01*
X6053Y-442960D01*
X3147D01*
X339Y-443712D01*
X-2179Y-445166D01*
X-4234Y-447221D01*
X-5688Y-449739D01*
X-6440Y-452547D01*
Y-455453D01*
X-5688Y-458261D01*
X-4234Y-460779D01*
X-2179Y-462834D01*
X339Y-464288D01*
X3147Y-465040D01*
X6053D01*
X8861Y-464288D01*
X9199Y-464093D01*
X14163Y-469057D01*
X15423Y-469899D01*
X16910Y-470195D01*
X20000D01*
X20973Y-472221D01*
X21100Y-472735D01*
X19712Y-475139D01*
X18960Y-477947D01*
Y-480854D01*
X19712Y-483661D01*
X21166Y-486179D01*
X23221Y-488234D01*
X25739Y-489688D01*
X28547Y-490440D01*
X31453D01*
X34261Y-489688D01*
X36779Y-488234D01*
X38834Y-486179D01*
X40288Y-483661D01*
X41040Y-480854D01*
Y-477947D01*
X40288Y-475139D01*
X38900Y-472735D01*
X39026Y-472221D01*
X40000Y-470195D01*
X175630D01*
X298549Y-593113D01*
X297829Y-595985D01*
X297428Y-596151D01*
X296151Y-597428D01*
X295460Y-599097D01*
Y-600903D01*
X296151Y-602572D01*
X297428Y-603849D01*
X299097Y-604540D01*
X300903D01*
X302572Y-603849D01*
X303849Y-602572D01*
X306361Y-603025D01*
X307480Y-603921D01*
Y-618960D01*
X287360D01*
Y-641040D01*
X307480D01*
Y-642965D01*
X307776Y-644452D01*
X308618Y-645712D01*
X313707Y-650801D01*
X313512Y-651139D01*
X312760Y-653947D01*
Y-656853D01*
X313512Y-659661D01*
X314966Y-662179D01*
X317021Y-664234D01*
X319539Y-665688D01*
X322346Y-666440D01*
X325253D01*
X328061Y-665688D01*
X330579Y-664234D01*
X332634Y-662179D01*
X334088Y-659661D01*
X334840Y-656853D01*
Y-653947D01*
X334088Y-651139D01*
X332634Y-648621D01*
X330579Y-646566D01*
X328061Y-645112D01*
X325253Y-644360D01*
X322346D01*
X319539Y-645112D01*
X319201Y-645307D01*
X316500Y-642607D01*
X316696Y-641579D01*
X319528Y-640281D01*
X319539Y-640288D01*
X322346Y-641040D01*
X325253D01*
X328061Y-640288D01*
X329506Y-639453D01*
X330053Y-639529D01*
X332039Y-640785D01*
Y-641984D01*
X332187Y-642723D01*
X332335Y-643470D01*
X332335Y-643470D01*
X332335Y-643471D01*
X332661Y-643958D01*
X333177Y-644731D01*
X333921Y-645475D01*
X333921Y-645475D01*
X333921Y-645475D01*
X339159Y-650712D01*
X338912Y-651139D01*
X338160Y-653947D01*
Y-656853D01*
X338912Y-659661D01*
X340366Y-662179D01*
X342421Y-664234D01*
X344939Y-665688D01*
X347747Y-666440D01*
X350653D01*
X353461Y-665688D01*
X355979Y-664234D01*
X358034Y-662179D01*
X359488Y-659661D01*
X360240Y-656853D01*
Y-653947D01*
X359488Y-651139D01*
X358034Y-648621D01*
X355979Y-646566D01*
X353461Y-645112D01*
X350653Y-644360D01*
X347747D01*
X344939Y-645112D01*
X344690Y-645256D01*
X341363Y-641929D01*
X341504Y-641237D01*
X344358Y-639952D01*
X344939Y-640288D01*
X347747Y-641040D01*
X350653D01*
X353461Y-640288D01*
X355979Y-638834D01*
X358034Y-636779D01*
X359488Y-634261D01*
X360240Y-631453D01*
Y-628547D01*
X359488Y-625739D01*
X358034Y-623221D01*
X355979Y-621166D01*
X353461Y-619712D01*
X353085Y-619612D01*
Y-576376D01*
X352789Y-574889D01*
X351947Y-573629D01*
X283885Y-505567D01*
Y-230000D01*
X283589Y-228513D01*
X282747Y-227253D01*
X49547Y5947D01*
X48287Y6789D01*
X46800Y7085D01*
X40388D01*
X40288Y7461D01*
X38834Y9979D01*
X36779Y12034D01*
X34261Y13488D01*
X31453Y14240D01*
D02*
G37*
G36*
X575903Y4540D02*
X574097D01*
X572428Y3849D01*
X571151Y2572D01*
X570460Y903D01*
Y-903D01*
X571151Y-2572D01*
X572428Y-3849D01*
X574097Y-4540D01*
X575903D01*
X577572Y-3849D01*
X578849Y-2572D01*
X579540Y-903D01*
Y903D01*
X578849Y2572D01*
X577572Y3849D01*
X575903Y4540D01*
D02*
G37*
G36*
X550903D02*
X549097D01*
X547428Y3849D01*
X546151Y2572D01*
X545460Y903D01*
Y-903D01*
X546151Y-2572D01*
X547428Y-3849D01*
X549097Y-4540D01*
X550903D01*
X552572Y-3849D01*
X553849Y-2572D01*
X554540Y-903D01*
Y903D01*
X553849Y2572D01*
X552572Y3849D01*
X550903Y4540D01*
D02*
G37*
G36*
X525903D02*
X524097D01*
X522428Y3849D01*
X521151Y2572D01*
X520460Y903D01*
Y-903D01*
X521151Y-2572D01*
X522428Y-3849D01*
X524097Y-4540D01*
X525903D01*
X527572Y-3849D01*
X528849Y-2572D01*
X529540Y-903D01*
Y903D01*
X528849Y2572D01*
X527572Y3849D01*
X525903Y4540D01*
D02*
G37*
G36*
X500903D02*
X499097D01*
X497428Y3849D01*
X496151Y2572D01*
X495460Y903D01*
Y-903D01*
X496151Y-2572D01*
X497428Y-3849D01*
X499097Y-4540D01*
X500903D01*
X502572Y-3849D01*
X503849Y-2572D01*
X504540Y-903D01*
Y903D01*
X503849Y2572D01*
X502572Y3849D01*
X500903Y4540D01*
D02*
G37*
G36*
X475903D02*
X474097D01*
X472428Y3849D01*
X471151Y2572D01*
X470460Y903D01*
Y-903D01*
X471151Y-2572D01*
X472428Y-3849D01*
X474097Y-4540D01*
X475903D01*
X477572Y-3849D01*
X478849Y-2572D01*
X479540Y-903D01*
Y903D01*
X478849Y2572D01*
X477572Y3849D01*
X475903Y4540D01*
D02*
G37*
G36*
X450903D02*
X449097D01*
X447428Y3849D01*
X446151Y2572D01*
X445460Y903D01*
Y-903D01*
X446151Y-2572D01*
X447428Y-3849D01*
X449097Y-4540D01*
X450903D01*
X452572Y-3849D01*
X453849Y-2572D01*
X454540Y-903D01*
Y903D01*
X453849Y2572D01*
X452572Y3849D01*
X450903Y4540D01*
D02*
G37*
G36*
X425903D02*
X424097D01*
X422428Y3849D01*
X421151Y2572D01*
X420460Y903D01*
Y-903D01*
X421151Y-2572D01*
X422428Y-3849D01*
X424097Y-4540D01*
X425903D01*
X427572Y-3849D01*
X428849Y-2572D01*
X429540Y-903D01*
Y903D01*
X428849Y2572D01*
X427572Y3849D01*
X425903Y4540D01*
D02*
G37*
G36*
X400903D02*
X399097D01*
X397428Y3849D01*
X396151Y2572D01*
X395460Y903D01*
Y-903D01*
X396151Y-2572D01*
X397428Y-3849D01*
X399097Y-4540D01*
X400903D01*
X402572Y-3849D01*
X403849Y-2572D01*
X404540Y-903D01*
Y903D01*
X403849Y2572D01*
X402572Y3849D01*
X400903Y4540D01*
D02*
G37*
G36*
X375903D02*
X374097D01*
X372428Y3849D01*
X371151Y2572D01*
X370460Y903D01*
Y-903D01*
X371151Y-2572D01*
X372428Y-3849D01*
X374097Y-4540D01*
X375903D01*
X377572Y-3849D01*
X378849Y-2572D01*
X379540Y-903D01*
Y903D01*
X378849Y2572D01*
X377572Y3849D01*
X375903Y4540D01*
D02*
G37*
G36*
X350903D02*
X349097D01*
X347428Y3849D01*
X346151Y2572D01*
X345460Y903D01*
Y-903D01*
X346151Y-2572D01*
X347428Y-3849D01*
X349097Y-4540D01*
X350903D01*
X352572Y-3849D01*
X353849Y-2572D01*
X354540Y-903D01*
Y903D01*
X353849Y2572D01*
X352572Y3849D01*
X350903Y4540D01*
D02*
G37*
G36*
X300903D02*
X299097D01*
X297428Y3849D01*
X296151Y2572D01*
X295460Y903D01*
Y-903D01*
X296151Y-2572D01*
X297428Y-3849D01*
X299097Y-4540D01*
X300903D01*
X302572Y-3849D01*
X303849Y-2572D01*
X304540Y-903D01*
Y903D01*
X303849Y2572D01*
X302572Y3849D01*
X300903Y4540D01*
D02*
G37*
G36*
X175903D02*
X174097D01*
X172428Y3849D01*
X171151Y2572D01*
X170460Y903D01*
Y-903D01*
X171151Y-2572D01*
X172428Y-3849D01*
X174097Y-4540D01*
X175903D01*
X177572Y-3849D01*
X178849Y-2572D01*
X179540Y-903D01*
Y903D01*
X178849Y2572D01*
X177572Y3849D01*
X175903Y4540D01*
D02*
G37*
G36*
X150903D02*
X149097D01*
X147428Y3849D01*
X146151Y2572D01*
X145460Y903D01*
Y-903D01*
X146151Y-2572D01*
X147428Y-3849D01*
X149097Y-4540D01*
X150903D01*
X152572Y-3849D01*
X153849Y-2572D01*
X154540Y-903D01*
Y903D01*
X153849Y2572D01*
X152572Y3849D01*
X150903Y4540D01*
D02*
G37*
G36*
X125903D02*
X124097D01*
X122428Y3849D01*
X121151Y2572D01*
X120460Y903D01*
Y-903D01*
X121151Y-2572D01*
X122428Y-3849D01*
X124097Y-4540D01*
X125903D01*
X127572Y-3849D01*
X128849Y-2572D01*
X129540Y-903D01*
Y903D01*
X128849Y2572D01*
X127572Y3849D01*
X125903Y4540D01*
D02*
G37*
G36*
X100903D02*
X99097D01*
X97428Y3849D01*
X96151Y2572D01*
X95460Y903D01*
Y-903D01*
X96151Y-2572D01*
X97428Y-3849D01*
X99097Y-4540D01*
X100903D01*
X102572Y-3849D01*
X103849Y-2572D01*
X104540Y-903D01*
Y903D01*
X103849Y2572D01*
X102572Y3849D01*
X100903Y4540D01*
D02*
G37*
G36*
X75903D02*
X74097D01*
X72428Y3849D01*
X71151Y2572D01*
X70460Y903D01*
Y-903D01*
X71151Y-2572D01*
X72428Y-3849D01*
X74097Y-4540D01*
X75903D01*
X77572Y-3849D01*
X78849Y-2572D01*
X79540Y-903D01*
Y903D01*
X78849Y2572D01*
X77572Y3849D01*
X75903Y4540D01*
D02*
G37*
G36*
X575903Y-20460D02*
X574097D01*
X572428Y-21151D01*
X571151Y-22428D01*
X570460Y-24097D01*
Y-25903D01*
X571151Y-27572D01*
X572428Y-28849D01*
X574097Y-29540D01*
X575903D01*
X577572Y-28849D01*
X578849Y-27572D01*
X579540Y-25903D01*
Y-24097D01*
X578849Y-22428D01*
X577572Y-21151D01*
X575903Y-20460D01*
D02*
G37*
G36*
X550903D02*
X549097D01*
X547428Y-21151D01*
X546151Y-22428D01*
X545460Y-24097D01*
Y-25903D01*
X546151Y-27572D01*
X547428Y-28849D01*
X549097Y-29540D01*
X550903D01*
X552572Y-28849D01*
X553849Y-27572D01*
X554540Y-25903D01*
Y-24097D01*
X553849Y-22428D01*
X552572Y-21151D01*
X550903Y-20460D01*
D02*
G37*
G36*
X525903D02*
X524097D01*
X522428Y-21151D01*
X521151Y-22428D01*
X520460Y-24097D01*
Y-25903D01*
X521151Y-27572D01*
X522428Y-28849D01*
X524097Y-29540D01*
X525903D01*
X527572Y-28849D01*
X528849Y-27572D01*
X529540Y-25903D01*
Y-24097D01*
X528849Y-22428D01*
X527572Y-21151D01*
X525903Y-20460D01*
D02*
G37*
G36*
X500903D02*
X499097D01*
X497428Y-21151D01*
X496151Y-22428D01*
X495460Y-24097D01*
Y-25903D01*
X496151Y-27572D01*
X497428Y-28849D01*
X499097Y-29540D01*
X500903D01*
X502572Y-28849D01*
X503849Y-27572D01*
X504540Y-25903D01*
Y-24097D01*
X503849Y-22428D01*
X502572Y-21151D01*
X500903Y-20460D01*
D02*
G37*
G36*
X475903D02*
X474097D01*
X472428Y-21151D01*
X471151Y-22428D01*
X470460Y-24097D01*
Y-25903D01*
X471151Y-27572D01*
X472428Y-28849D01*
X474097Y-29540D01*
X475903D01*
X477572Y-28849D01*
X478849Y-27572D01*
X479540Y-25903D01*
Y-24097D01*
X478849Y-22428D01*
X477572Y-21151D01*
X475903Y-20460D01*
D02*
G37*
G36*
X450903D02*
X449097D01*
X447428Y-21151D01*
X446151Y-22428D01*
X445460Y-24097D01*
Y-25903D01*
X446151Y-27572D01*
X447428Y-28849D01*
X449097Y-29540D01*
X450903D01*
X452572Y-28849D01*
X453849Y-27572D01*
X454540Y-25903D01*
Y-24097D01*
X453849Y-22428D01*
X452572Y-21151D01*
X450903Y-20460D01*
D02*
G37*
G36*
X425903D02*
X424097D01*
X422428Y-21151D01*
X421151Y-22428D01*
X420460Y-24097D01*
Y-25903D01*
X421151Y-27572D01*
X422428Y-28849D01*
X424097Y-29540D01*
X425903D01*
X427572Y-28849D01*
X428849Y-27572D01*
X429540Y-25903D01*
Y-24097D01*
X428849Y-22428D01*
X427572Y-21151D01*
X425903Y-20460D01*
D02*
G37*
G36*
X400903D02*
X399097D01*
X397428Y-21151D01*
X396151Y-22428D01*
X395460Y-24097D01*
Y-25903D01*
X396151Y-27572D01*
X397428Y-28849D01*
X399097Y-29540D01*
X400903D01*
X402572Y-28849D01*
X403849Y-27572D01*
X404540Y-25903D01*
Y-24097D01*
X403849Y-22428D01*
X402572Y-21151D01*
X400903Y-20460D01*
D02*
G37*
G36*
X6053Y-11160D02*
X3147D01*
X339Y-11912D01*
X-2179Y-13366D01*
X-4234Y-15421D01*
X-5688Y-17939D01*
X-6440Y-20747D01*
Y-23654D01*
X-5688Y-26461D01*
X-4234Y-28979D01*
X-2179Y-31034D01*
X339Y-32488D01*
X3147Y-33240D01*
X6053D01*
X8861Y-32488D01*
X11379Y-31034D01*
X13434Y-28979D01*
X14888Y-26461D01*
X15640Y-23654D01*
Y-20747D01*
X14888Y-17939D01*
X13434Y-15421D01*
X11379Y-13366D01*
X8861Y-11912D01*
X6053Y-11160D01*
D02*
G37*
G36*
X575903Y-45460D02*
X574097D01*
X572428Y-46151D01*
X571151Y-47428D01*
X570460Y-49097D01*
Y-50903D01*
X571151Y-52572D01*
X572428Y-53849D01*
X574097Y-54540D01*
X575903D01*
X577572Y-53849D01*
X578849Y-52572D01*
X579540Y-50903D01*
Y-49097D01*
X578849Y-47428D01*
X577572Y-46151D01*
X575903Y-45460D01*
D02*
G37*
G36*
X550903D02*
X549097D01*
X547428Y-46151D01*
X546151Y-47428D01*
X545460Y-49097D01*
Y-50903D01*
X546151Y-52572D01*
X547428Y-53849D01*
X549097Y-54540D01*
X550903D01*
X552572Y-53849D01*
X553849Y-52572D01*
X554540Y-50903D01*
Y-49097D01*
X553849Y-47428D01*
X552572Y-46151D01*
X550903Y-45460D01*
D02*
G37*
G36*
X525903D02*
X524097D01*
X522428Y-46151D01*
X521151Y-47428D01*
X520460Y-49097D01*
Y-50903D01*
X521151Y-52572D01*
X522428Y-53849D01*
X524097Y-54540D01*
X525903D01*
X527572Y-53849D01*
X528849Y-52572D01*
X529540Y-50903D01*
Y-49097D01*
X528849Y-47428D01*
X527572Y-46151D01*
X525903Y-45460D01*
D02*
G37*
G36*
X500903D02*
X499097D01*
X497428Y-46151D01*
X496151Y-47428D01*
X495460Y-49097D01*
Y-50903D01*
X496151Y-52572D01*
X497428Y-53849D01*
X499097Y-54540D01*
X500903D01*
X502572Y-53849D01*
X503849Y-52572D01*
X504540Y-50903D01*
Y-49097D01*
X503849Y-47428D01*
X502572Y-46151D01*
X500903Y-45460D01*
D02*
G37*
G36*
X475903D02*
X474097D01*
X472428Y-46151D01*
X471151Y-47428D01*
X470460Y-49097D01*
Y-50903D01*
X471151Y-52572D01*
X472428Y-53849D01*
X474097Y-54540D01*
X475903D01*
X477572Y-53849D01*
X478849Y-52572D01*
X479540Y-50903D01*
Y-49097D01*
X478849Y-47428D01*
X477572Y-46151D01*
X475903Y-45460D01*
D02*
G37*
G36*
X450903D02*
X449097D01*
X447428Y-46151D01*
X446151Y-47428D01*
X445460Y-49097D01*
Y-50903D01*
X446151Y-52572D01*
X447428Y-53849D01*
X449097Y-54540D01*
X450903D01*
X452572Y-53849D01*
X453849Y-52572D01*
X454540Y-50903D01*
Y-49097D01*
X453849Y-47428D01*
X452572Y-46151D01*
X450903Y-45460D01*
D02*
G37*
G36*
X425903D02*
X424097D01*
X422428Y-46151D01*
X421151Y-47428D01*
X420460Y-49097D01*
Y-50903D01*
X421151Y-52572D01*
X422428Y-53849D01*
X424097Y-54540D01*
X425903D01*
X427572Y-53849D01*
X428849Y-52572D01*
X429540Y-50903D01*
Y-49097D01*
X428849Y-47428D01*
X427572Y-46151D01*
X425903Y-45460D01*
D02*
G37*
G36*
X350903D02*
X349097D01*
X347428Y-46151D01*
X346151Y-47428D01*
X345460Y-49097D01*
Y-50903D01*
X346151Y-52572D01*
X347428Y-53849D01*
X349097Y-54540D01*
X350903D01*
X352572Y-53849D01*
X353849Y-52572D01*
X354540Y-50903D01*
Y-49097D01*
X353849Y-47428D01*
X352572Y-46151D01*
X350903Y-45460D01*
D02*
G37*
G36*
X325903D02*
X324097D01*
X322428Y-46151D01*
X321151Y-47428D01*
X320460Y-49097D01*
Y-50903D01*
X321151Y-52572D01*
X322428Y-53849D01*
X324097Y-54540D01*
X325903D01*
X327572Y-53849D01*
X328849Y-52572D01*
X329540Y-50903D01*
Y-49097D01*
X328849Y-47428D01*
X327572Y-46151D01*
X325903Y-45460D01*
D02*
G37*
G36*
X31453Y-36560D02*
X28547D01*
X25739Y-37312D01*
X23221Y-38766D01*
X21166Y-40821D01*
X19712Y-43339D01*
X18960Y-46147D01*
Y-49054D01*
X19712Y-51861D01*
X21166Y-54379D01*
X23221Y-56434D01*
X25739Y-57888D01*
X28547Y-58640D01*
X31453D01*
X34261Y-57888D01*
X36779Y-56434D01*
X38834Y-54379D01*
X40288Y-51861D01*
X41040Y-49054D01*
Y-46147D01*
X40288Y-43339D01*
X38834Y-40821D01*
X36779Y-38766D01*
X34261Y-37312D01*
X31453Y-36560D01*
D02*
G37*
G36*
X6053D02*
X3147D01*
X339Y-37312D01*
X-2179Y-38766D01*
X-4234Y-40821D01*
X-5688Y-43339D01*
X-6440Y-46147D01*
Y-49054D01*
X-5688Y-51861D01*
X-4234Y-54379D01*
X-2179Y-56434D01*
X339Y-57888D01*
X3147Y-58640D01*
X6053D01*
X8861Y-57888D01*
X11379Y-56434D01*
X13434Y-54379D01*
X14888Y-51861D01*
X15640Y-49054D01*
Y-46147D01*
X14888Y-43339D01*
X13434Y-40821D01*
X11379Y-38766D01*
X8861Y-37312D01*
X6053Y-36560D01*
D02*
G37*
G36*
X575903Y-70460D02*
X574097D01*
X572428Y-71151D01*
X571151Y-72428D01*
X570460Y-74097D01*
Y-75903D01*
X571151Y-77572D01*
X572428Y-78849D01*
X574097Y-79540D01*
X575903D01*
X577572Y-78849D01*
X578849Y-77572D01*
X579540Y-75903D01*
Y-74097D01*
X578849Y-72428D01*
X577572Y-71151D01*
X575903Y-70460D01*
D02*
G37*
G36*
X550903D02*
X549097D01*
X547428Y-71151D01*
X546151Y-72428D01*
X545460Y-74097D01*
Y-75903D01*
X546151Y-77572D01*
X547428Y-78849D01*
X549097Y-79540D01*
X550903D01*
X552572Y-78849D01*
X553849Y-77572D01*
X554540Y-75903D01*
Y-74097D01*
X553849Y-72428D01*
X552572Y-71151D01*
X550903Y-70460D01*
D02*
G37*
G36*
X525903D02*
X524097D01*
X522428Y-71151D01*
X521151Y-72428D01*
X520460Y-74097D01*
Y-75903D01*
X521151Y-77572D01*
X522428Y-78849D01*
X524097Y-79540D01*
X525903D01*
X527572Y-78849D01*
X528849Y-77572D01*
X529540Y-75903D01*
Y-74097D01*
X528849Y-72428D01*
X527572Y-71151D01*
X525903Y-70460D01*
D02*
G37*
G36*
X500903D02*
X499097D01*
X497428Y-71151D01*
X496151Y-72428D01*
X495460Y-74097D01*
Y-75903D01*
X496151Y-77572D01*
X497428Y-78849D01*
X499097Y-79540D01*
X500903D01*
X502572Y-78849D01*
X503849Y-77572D01*
X504540Y-75903D01*
Y-74097D01*
X503849Y-72428D01*
X502572Y-71151D01*
X500903Y-70460D01*
D02*
G37*
G36*
X475903D02*
X474097D01*
X472428Y-71151D01*
X471151Y-72428D01*
X470460Y-74097D01*
Y-75903D01*
X471151Y-77572D01*
X472428Y-78849D01*
X474097Y-79540D01*
X475903D01*
X477572Y-78849D01*
X478849Y-77572D01*
X479540Y-75903D01*
Y-74097D01*
X478849Y-72428D01*
X477572Y-71151D01*
X475903Y-70460D01*
D02*
G37*
G36*
X450903D02*
X449097D01*
X447428Y-71151D01*
X446151Y-72428D01*
X445460Y-74097D01*
Y-75903D01*
X446151Y-77572D01*
X447428Y-78849D01*
X449097Y-79540D01*
X450903D01*
X452572Y-78849D01*
X453849Y-77572D01*
X454540Y-75903D01*
Y-74097D01*
X453849Y-72428D01*
X452572Y-71151D01*
X450903Y-70460D01*
D02*
G37*
G36*
X375903D02*
X374097D01*
X372428Y-71151D01*
X371151Y-72428D01*
X370460Y-74097D01*
Y-75903D01*
X371151Y-77572D01*
X372428Y-78849D01*
X374097Y-79540D01*
X375903D01*
X377572Y-78849D01*
X378849Y-77572D01*
X379540Y-75903D01*
Y-74097D01*
X378849Y-72428D01*
X377572Y-71151D01*
X375903Y-70460D01*
D02*
G37*
G36*
X350903D02*
X349097D01*
X347428Y-71151D01*
X346151Y-72428D01*
X345460Y-74097D01*
Y-75903D01*
X346151Y-77572D01*
X347428Y-78849D01*
X349097Y-79540D01*
X350903D01*
X352572Y-78849D01*
X353849Y-77572D01*
X354540Y-75903D01*
Y-74097D01*
X353849Y-72428D01*
X352572Y-71151D01*
X350903Y-70460D01*
D02*
G37*
G36*
X325903D02*
X324097D01*
X322428Y-71151D01*
X321151Y-72428D01*
X320460Y-74097D01*
Y-75903D01*
X321151Y-77572D01*
X322428Y-78849D01*
X324097Y-79540D01*
X325903D01*
X327572Y-78849D01*
X328849Y-77572D01*
X329540Y-75903D01*
Y-74097D01*
X328849Y-72428D01*
X327572Y-71151D01*
X325903Y-70460D01*
D02*
G37*
G36*
X31453Y-61960D02*
X28547D01*
X25739Y-62712D01*
X23221Y-64166D01*
X21166Y-66221D01*
X19712Y-68739D01*
X18960Y-71547D01*
Y-74454D01*
X19712Y-77261D01*
X21166Y-79779D01*
X23221Y-81834D01*
X25739Y-83288D01*
X28547Y-84040D01*
X31453D01*
X34261Y-83288D01*
X36779Y-81834D01*
X38834Y-79779D01*
X40288Y-77261D01*
X41040Y-74454D01*
Y-71547D01*
X40288Y-68739D01*
X38834Y-66221D01*
X36779Y-64166D01*
X34261Y-62712D01*
X31453Y-61960D01*
D02*
G37*
G36*
X6053D02*
X3147D01*
X339Y-62712D01*
X-2179Y-64166D01*
X-4234Y-66221D01*
X-5688Y-68739D01*
X-6440Y-71547D01*
Y-74454D01*
X-5688Y-77261D01*
X-4234Y-79779D01*
X-2179Y-81834D01*
X339Y-83288D01*
X3147Y-84040D01*
X6053D01*
X8861Y-83288D01*
X11379Y-81834D01*
X13434Y-79779D01*
X14888Y-77261D01*
X15640Y-74454D01*
Y-71547D01*
X14888Y-68739D01*
X13434Y-66221D01*
X11379Y-64166D01*
X8861Y-62712D01*
X6053Y-61960D01*
D02*
G37*
G36*
X575903Y-95460D02*
X574097D01*
X572428Y-96151D01*
X571151Y-97428D01*
X570460Y-99097D01*
Y-100903D01*
X571151Y-102572D01*
X572428Y-103849D01*
X574097Y-104540D01*
X575903D01*
X577572Y-103849D01*
X578849Y-102572D01*
X579540Y-100903D01*
Y-99097D01*
X578849Y-97428D01*
X577572Y-96151D01*
X575903Y-95460D01*
D02*
G37*
G36*
X550903D02*
X549097D01*
X547428Y-96151D01*
X546151Y-97428D01*
X545460Y-99097D01*
Y-100903D01*
X546151Y-102572D01*
X547428Y-103849D01*
X549097Y-104540D01*
X550903D01*
X552572Y-103849D01*
X553849Y-102572D01*
X554540Y-100903D01*
Y-99097D01*
X553849Y-97428D01*
X552572Y-96151D01*
X550903Y-95460D01*
D02*
G37*
G36*
X525903D02*
X524097D01*
X522428Y-96151D01*
X521151Y-97428D01*
X520460Y-99097D01*
Y-100903D01*
X521151Y-102572D01*
X522428Y-103849D01*
X524097Y-104540D01*
X525903D01*
X527572Y-103849D01*
X528849Y-102572D01*
X529540Y-100903D01*
Y-99097D01*
X528849Y-97428D01*
X527572Y-96151D01*
X525903Y-95460D01*
D02*
G37*
G36*
X500903D02*
X499097D01*
X497428Y-96151D01*
X496151Y-97428D01*
X495460Y-99097D01*
Y-100903D01*
X496151Y-102572D01*
X497428Y-103849D01*
X499097Y-104540D01*
X500903D01*
X502572Y-103849D01*
X503849Y-102572D01*
X504540Y-100903D01*
Y-99097D01*
X503849Y-97428D01*
X502572Y-96151D01*
X500903Y-95460D01*
D02*
G37*
G36*
X475903D02*
X474097D01*
X472428Y-96151D01*
X471151Y-97428D01*
X470460Y-99097D01*
Y-100903D01*
X471151Y-102572D01*
X472428Y-103849D01*
X474097Y-104540D01*
X475903D01*
X477572Y-103849D01*
X478849Y-102572D01*
X479540Y-100903D01*
Y-99097D01*
X478849Y-97428D01*
X477572Y-96151D01*
X475903Y-95460D01*
D02*
G37*
G36*
X400903D02*
X399097D01*
X397428Y-96151D01*
X396151Y-97428D01*
X395460Y-99097D01*
Y-100903D01*
X396151Y-102572D01*
X397428Y-103849D01*
X399097Y-104540D01*
X400903D01*
X402572Y-103849D01*
X403849Y-102572D01*
X404540Y-100903D01*
Y-99097D01*
X403849Y-97428D01*
X402572Y-96151D01*
X400903Y-95460D01*
D02*
G37*
G36*
X375903D02*
X374097D01*
X372428Y-96151D01*
X371151Y-97428D01*
X370460Y-99097D01*
Y-100903D01*
X371151Y-102572D01*
X372428Y-103849D01*
X374097Y-104540D01*
X375903D01*
X377572Y-103849D01*
X378849Y-102572D01*
X379540Y-100903D01*
Y-99097D01*
X378849Y-97428D01*
X377572Y-96151D01*
X375903Y-95460D01*
D02*
G37*
G36*
X350903D02*
X349097D01*
X347428Y-96151D01*
X346151Y-97428D01*
X345460Y-99097D01*
Y-100903D01*
X346151Y-102572D01*
X347428Y-103849D01*
X349097Y-104540D01*
X350903D01*
X352572Y-103849D01*
X353849Y-102572D01*
X354540Y-100903D01*
Y-99097D01*
X353849Y-97428D01*
X352572Y-96151D01*
X350903Y-95460D01*
D02*
G37*
G36*
X300903D02*
X299097D01*
X297428Y-96151D01*
X296151Y-97428D01*
X295460Y-99097D01*
Y-100903D01*
X296151Y-102572D01*
X297428Y-103849D01*
X299097Y-104540D01*
X300903D01*
X302572Y-103849D01*
X303849Y-102572D01*
X304540Y-100903D01*
Y-99097D01*
X303849Y-97428D01*
X302572Y-96151D01*
X300903Y-95460D01*
D02*
G37*
G36*
X275903D02*
X274097D01*
X272428Y-96151D01*
X271151Y-97428D01*
X270460Y-99097D01*
Y-100903D01*
X271151Y-102572D01*
X272428Y-103849D01*
X274097Y-104540D01*
X275903D01*
X277572Y-103849D01*
X278849Y-102572D01*
X279540Y-100903D01*
Y-99097D01*
X278849Y-97428D01*
X277572Y-96151D01*
X275903Y-95460D01*
D02*
G37*
G36*
X250903D02*
X249097D01*
X247428Y-96151D01*
X246151Y-97428D01*
X245460Y-99097D01*
Y-100903D01*
X246151Y-102572D01*
X247428Y-103849D01*
X249097Y-104540D01*
X250903D01*
X252572Y-103849D01*
X253849Y-102572D01*
X254540Y-100903D01*
Y-99097D01*
X253849Y-97428D01*
X252572Y-96151D01*
X250903Y-95460D01*
D02*
G37*
G36*
X200903D02*
X199097D01*
X197428Y-96151D01*
X196151Y-97428D01*
X195460Y-99097D01*
Y-100903D01*
X196151Y-102572D01*
X197428Y-103849D01*
X199097Y-104540D01*
X200903D01*
X202572Y-103849D01*
X203849Y-102572D01*
X204540Y-100903D01*
Y-99097D01*
X203849Y-97428D01*
X202572Y-96151D01*
X200903Y-95460D01*
D02*
G37*
G36*
X31453Y-87360D02*
X28547D01*
X25739Y-88112D01*
X23221Y-89566D01*
X21166Y-91621D01*
X19712Y-94139D01*
X18960Y-96947D01*
Y-99853D01*
X19712Y-102661D01*
X21166Y-105179D01*
X23221Y-107234D01*
X25739Y-108688D01*
X28547Y-109440D01*
X31453D01*
X34261Y-108688D01*
X36779Y-107234D01*
X38834Y-105179D01*
X40288Y-102661D01*
X41040Y-99853D01*
Y-96947D01*
X40288Y-94139D01*
X38834Y-91621D01*
X36779Y-89566D01*
X34261Y-88112D01*
X31453Y-87360D01*
D02*
G37*
G36*
X6053D02*
X3147D01*
X339Y-88112D01*
X-2179Y-89566D01*
X-4234Y-91621D01*
X-5688Y-94139D01*
X-6440Y-96947D01*
Y-99853D01*
X-5688Y-102661D01*
X-4234Y-105179D01*
X-2179Y-107234D01*
X339Y-108688D01*
X3147Y-109440D01*
X6053D01*
X8861Y-108688D01*
X11379Y-107234D01*
X13434Y-105179D01*
X14888Y-102661D01*
X15640Y-99853D01*
Y-96947D01*
X14888Y-94139D01*
X13434Y-91621D01*
X11379Y-89566D01*
X8861Y-88112D01*
X6053Y-87360D01*
D02*
G37*
G36*
X575903Y-120460D02*
X574097D01*
X572428Y-121151D01*
X571151Y-122428D01*
X570460Y-124097D01*
Y-125903D01*
X571151Y-127572D01*
X572428Y-128849D01*
X574097Y-129540D01*
X575903D01*
X577572Y-128849D01*
X578849Y-127572D01*
X579540Y-125903D01*
Y-124097D01*
X578849Y-122428D01*
X577572Y-121151D01*
X575903Y-120460D01*
D02*
G37*
G36*
X550903D02*
X549097D01*
X547428Y-121151D01*
X546151Y-122428D01*
X545460Y-124097D01*
Y-125903D01*
X546151Y-127572D01*
X547428Y-128849D01*
X549097Y-129540D01*
X550903D01*
X552572Y-128849D01*
X553849Y-127572D01*
X554540Y-125903D01*
Y-124097D01*
X553849Y-122428D01*
X552572Y-121151D01*
X550903Y-120460D01*
D02*
G37*
G36*
X525903D02*
X524097D01*
X522428Y-121151D01*
X521151Y-122428D01*
X520460Y-124097D01*
Y-125903D01*
X521151Y-127572D01*
X522428Y-128849D01*
X524097Y-129540D01*
X525903D01*
X527572Y-128849D01*
X528849Y-127572D01*
X529540Y-125903D01*
Y-124097D01*
X528849Y-122428D01*
X527572Y-121151D01*
X525903Y-120460D01*
D02*
G37*
G36*
X500903D02*
X499097D01*
X497428Y-121151D01*
X496151Y-122428D01*
X495460Y-124097D01*
Y-125903D01*
X496151Y-127572D01*
X497428Y-128849D01*
X499097Y-129540D01*
X500903D01*
X502572Y-128849D01*
X503849Y-127572D01*
X504540Y-125903D01*
Y-124097D01*
X503849Y-122428D01*
X502572Y-121151D01*
X500903Y-120460D01*
D02*
G37*
G36*
X425903D02*
X424097D01*
X422428Y-121151D01*
X421151Y-122428D01*
X420460Y-124097D01*
Y-125903D01*
X421151Y-127572D01*
X422428Y-128849D01*
X424097Y-129540D01*
X425903D01*
X427572Y-128849D01*
X428849Y-127572D01*
X429540Y-125903D01*
Y-124097D01*
X428849Y-122428D01*
X427572Y-121151D01*
X425903Y-120460D01*
D02*
G37*
G36*
X400903D02*
X399097D01*
X397428Y-121151D01*
X396151Y-122428D01*
X395460Y-124097D01*
Y-125903D01*
X396151Y-127572D01*
X397428Y-128849D01*
X399097Y-129540D01*
X400903D01*
X402572Y-128849D01*
X403849Y-127572D01*
X404540Y-125903D01*
Y-124097D01*
X403849Y-122428D01*
X402572Y-121151D01*
X400903Y-120460D01*
D02*
G37*
G36*
X325903D02*
X324097D01*
X322428Y-121151D01*
X321151Y-122428D01*
X320460Y-124097D01*
Y-125903D01*
X321151Y-127572D01*
X322428Y-128849D01*
X324097Y-129540D01*
X325903D01*
X327572Y-128849D01*
X328849Y-127572D01*
X329540Y-125903D01*
Y-124097D01*
X328849Y-122428D01*
X327572Y-121151D01*
X325903Y-120460D01*
D02*
G37*
G36*
X300903D02*
X299097D01*
X297428Y-121151D01*
X296151Y-122428D01*
X295460Y-124097D01*
Y-125903D01*
X296151Y-127572D01*
X297428Y-128849D01*
X299097Y-129540D01*
X300903D01*
X302572Y-128849D01*
X303849Y-127572D01*
X304540Y-125903D01*
Y-124097D01*
X303849Y-122428D01*
X302572Y-121151D01*
X300903Y-120460D01*
D02*
G37*
G36*
X275903D02*
X274097D01*
X272428Y-121151D01*
X271151Y-122428D01*
X270460Y-124097D01*
Y-125903D01*
X271151Y-127572D01*
X272428Y-128849D01*
X274097Y-129540D01*
X275903D01*
X277572Y-128849D01*
X278849Y-127572D01*
X279540Y-125903D01*
Y-124097D01*
X278849Y-122428D01*
X277572Y-121151D01*
X275903Y-120460D01*
D02*
G37*
G36*
X31453Y-112760D02*
X28547D01*
X25739Y-113512D01*
X23221Y-114966D01*
X21166Y-117021D01*
X19712Y-119539D01*
X18960Y-122347D01*
Y-125253D01*
X19712Y-128061D01*
X21166Y-130579D01*
X23221Y-132634D01*
X25739Y-134088D01*
X28547Y-134840D01*
X31453D01*
X34261Y-134088D01*
X36779Y-132634D01*
X38834Y-130579D01*
X40288Y-128061D01*
X41040Y-125253D01*
Y-122347D01*
X40288Y-119539D01*
X38834Y-117021D01*
X36779Y-114966D01*
X34261Y-113512D01*
X31453Y-112760D01*
D02*
G37*
G36*
X6053D02*
X3147D01*
X339Y-113512D01*
X-2179Y-114966D01*
X-4234Y-117021D01*
X-5688Y-119539D01*
X-6440Y-122347D01*
Y-125253D01*
X-5688Y-128061D01*
X-4234Y-130579D01*
X-2179Y-132634D01*
X339Y-134088D01*
X3147Y-134840D01*
X6053D01*
X8861Y-134088D01*
X11379Y-132634D01*
X13434Y-130579D01*
X14888Y-128061D01*
X15640Y-125253D01*
Y-122347D01*
X14888Y-119539D01*
X13434Y-117021D01*
X11379Y-114966D01*
X8861Y-113512D01*
X6053Y-112760D01*
D02*
G37*
G36*
X575903Y-145460D02*
X574097D01*
X572428Y-146151D01*
X571151Y-147428D01*
X570460Y-149097D01*
Y-150903D01*
X571151Y-152572D01*
X572428Y-153849D01*
X574097Y-154540D01*
X575903D01*
X577572Y-153849D01*
X578849Y-152572D01*
X579540Y-150903D01*
Y-149097D01*
X578849Y-147428D01*
X577572Y-146151D01*
X575903Y-145460D01*
D02*
G37*
G36*
X550903D02*
X549097D01*
X547428Y-146151D01*
X546151Y-147428D01*
X545460Y-149097D01*
Y-150903D01*
X546151Y-152572D01*
X547428Y-153849D01*
X549097Y-154540D01*
X550903D01*
X552572Y-153849D01*
X553849Y-152572D01*
X554540Y-150903D01*
Y-149097D01*
X553849Y-147428D01*
X552572Y-146151D01*
X550903Y-145460D01*
D02*
G37*
G36*
X525903D02*
X524097D01*
X522428Y-146151D01*
X521151Y-147428D01*
X520460Y-149097D01*
Y-150903D01*
X521151Y-152572D01*
X522428Y-153849D01*
X524097Y-154540D01*
X525903D01*
X527572Y-153849D01*
X528849Y-152572D01*
X529540Y-150903D01*
Y-149097D01*
X528849Y-147428D01*
X527572Y-146151D01*
X525903Y-145460D01*
D02*
G37*
G36*
X450903D02*
X449097D01*
X447428Y-146151D01*
X446151Y-147428D01*
X445460Y-149097D01*
Y-150903D01*
X446151Y-152572D01*
X447428Y-153849D01*
X449097Y-154540D01*
X450903D01*
X452572Y-153849D01*
X453849Y-152572D01*
X454540Y-150903D01*
Y-149097D01*
X453849Y-147428D01*
X452572Y-146151D01*
X450903Y-145460D01*
D02*
G37*
G36*
X425903D02*
X424097D01*
X422428Y-146151D01*
X421151Y-147428D01*
X420460Y-149097D01*
Y-150903D01*
X421151Y-152572D01*
X422428Y-153849D01*
X424097Y-154540D01*
X425903D01*
X427572Y-153849D01*
X428849Y-152572D01*
X429540Y-150903D01*
Y-149097D01*
X428849Y-147428D01*
X427572Y-146151D01*
X425903Y-145460D01*
D02*
G37*
G36*
X400903D02*
X399097D01*
X397428Y-146151D01*
X396151Y-147428D01*
X395460Y-149097D01*
Y-150903D01*
X396151Y-152572D01*
X397428Y-153849D01*
X399097Y-154540D01*
X400903D01*
X402572Y-153849D01*
X403849Y-152572D01*
X404540Y-150903D01*
Y-149097D01*
X403849Y-147428D01*
X402572Y-146151D01*
X400903Y-145460D01*
D02*
G37*
G36*
X350903D02*
X349097D01*
X347428Y-146151D01*
X346151Y-147428D01*
X345460Y-149097D01*
Y-150903D01*
X346151Y-152572D01*
X347428Y-153849D01*
X349097Y-154540D01*
X350903D01*
X352572Y-153849D01*
X353849Y-152572D01*
X354540Y-150903D01*
Y-149097D01*
X353849Y-147428D01*
X352572Y-146151D01*
X350903Y-145460D01*
D02*
G37*
G36*
X325903D02*
X324097D01*
X322428Y-146151D01*
X321151Y-147428D01*
X320460Y-149097D01*
Y-150903D01*
X321151Y-152572D01*
X322428Y-153849D01*
X324097Y-154540D01*
X325903D01*
X327572Y-153849D01*
X328849Y-152572D01*
X329540Y-150903D01*
Y-149097D01*
X328849Y-147428D01*
X327572Y-146151D01*
X325903Y-145460D01*
D02*
G37*
G36*
X300903D02*
X299097D01*
X297428Y-146151D01*
X296151Y-147428D01*
X295460Y-149097D01*
Y-150903D01*
X296151Y-152572D01*
X297428Y-153849D01*
X299097Y-154540D01*
X300903D01*
X302572Y-153849D01*
X303849Y-152572D01*
X304540Y-150903D01*
Y-149097D01*
X303849Y-147428D01*
X302572Y-146151D01*
X300903Y-145460D01*
D02*
G37*
G36*
X250903D02*
X249097D01*
X247428Y-146151D01*
X246151Y-147428D01*
X245460Y-149097D01*
Y-150903D01*
X246151Y-152572D01*
X247428Y-153849D01*
X249097Y-154540D01*
X250903D01*
X252572Y-153849D01*
X253849Y-152572D01*
X254540Y-150903D01*
Y-149097D01*
X253849Y-147428D01*
X252572Y-146151D01*
X250903Y-145460D01*
D02*
G37*
G36*
X31453Y-138160D02*
X28547D01*
X25739Y-138912D01*
X23221Y-140366D01*
X21166Y-142421D01*
X19712Y-144939D01*
X18960Y-147747D01*
Y-150653D01*
X19712Y-153461D01*
X21166Y-155979D01*
X23221Y-158034D01*
X25739Y-159488D01*
X28547Y-160240D01*
X31453D01*
X34261Y-159488D01*
X36779Y-158034D01*
X38834Y-155979D01*
X40288Y-153461D01*
X41040Y-150653D01*
Y-147747D01*
X40288Y-144939D01*
X38834Y-142421D01*
X36779Y-140366D01*
X34261Y-138912D01*
X31453Y-138160D01*
D02*
G37*
G36*
X6053D02*
X3147D01*
X339Y-138912D01*
X-2179Y-140366D01*
X-4234Y-142421D01*
X-5688Y-144939D01*
X-6440Y-147747D01*
Y-150653D01*
X-5688Y-153461D01*
X-4234Y-155979D01*
X-2179Y-158034D01*
X339Y-159488D01*
X3147Y-160240D01*
X6053D01*
X8861Y-159488D01*
X11379Y-158034D01*
X13434Y-155979D01*
X14888Y-153461D01*
X15640Y-150653D01*
Y-147747D01*
X14888Y-144939D01*
X13434Y-142421D01*
X11379Y-140366D01*
X8861Y-138912D01*
X6053Y-138160D01*
D02*
G37*
G36*
X575903Y-170460D02*
X574097D01*
X572428Y-171151D01*
X571151Y-172428D01*
X570460Y-174097D01*
Y-175903D01*
X571151Y-177572D01*
X572428Y-178849D01*
X574097Y-179540D01*
X575903D01*
X577572Y-178849D01*
X578849Y-177572D01*
X579540Y-175903D01*
Y-174097D01*
X578849Y-172428D01*
X577572Y-171151D01*
X575903Y-170460D01*
D02*
G37*
G36*
X550903D02*
X549097D01*
X547428Y-171151D01*
X546151Y-172428D01*
X545460Y-174097D01*
Y-175903D01*
X546151Y-177572D01*
X547428Y-178849D01*
X549097Y-179540D01*
X550903D01*
X552572Y-178849D01*
X553849Y-177572D01*
X554540Y-175903D01*
Y-174097D01*
X553849Y-172428D01*
X552572Y-171151D01*
X550903Y-170460D01*
D02*
G37*
G36*
X525903D02*
X524097D01*
X522428Y-171151D01*
X521151Y-172428D01*
X520460Y-174097D01*
Y-175903D01*
X521151Y-177572D01*
X522428Y-178849D01*
X524097Y-179540D01*
X525903D01*
X527572Y-178849D01*
X528849Y-177572D01*
X529540Y-175903D01*
Y-174097D01*
X528849Y-172428D01*
X527572Y-171151D01*
X525903Y-170460D01*
D02*
G37*
G36*
X475903D02*
X474097D01*
X472428Y-171151D01*
X471151Y-172428D01*
X470460Y-174097D01*
Y-175903D01*
X471151Y-177572D01*
X472428Y-178849D01*
X474097Y-179540D01*
X475903D01*
X477572Y-178849D01*
X478849Y-177572D01*
X479540Y-175903D01*
Y-174097D01*
X478849Y-172428D01*
X477572Y-171151D01*
X475903Y-170460D01*
D02*
G37*
G36*
X450903D02*
X449097D01*
X447428Y-171151D01*
X446151Y-172428D01*
X445460Y-174097D01*
Y-175903D01*
X446151Y-177572D01*
X447428Y-178849D01*
X449097Y-179540D01*
X450903D01*
X452572Y-178849D01*
X453849Y-177572D01*
X454540Y-175903D01*
Y-174097D01*
X453849Y-172428D01*
X452572Y-171151D01*
X450903Y-170460D01*
D02*
G37*
G36*
X425903D02*
X424097D01*
X422428Y-171151D01*
X421151Y-172428D01*
X420460Y-174097D01*
Y-175903D01*
X421151Y-177572D01*
X422428Y-178849D01*
X424097Y-179540D01*
X425903D01*
X427572Y-178849D01*
X428849Y-177572D01*
X429540Y-175903D01*
Y-174097D01*
X428849Y-172428D01*
X427572Y-171151D01*
X425903Y-170460D01*
D02*
G37*
G36*
X400903D02*
X399097D01*
X397428Y-171151D01*
X396151Y-172428D01*
X395460Y-174097D01*
Y-175903D01*
X396151Y-177572D01*
X397428Y-178849D01*
X399097Y-179540D01*
X400903D01*
X402572Y-178849D01*
X403849Y-177572D01*
X404540Y-175903D01*
Y-174097D01*
X403849Y-172428D01*
X402572Y-171151D01*
X400903Y-170460D01*
D02*
G37*
G36*
X350903D02*
X349097D01*
X347428Y-171151D01*
X346151Y-172428D01*
X345460Y-174097D01*
Y-175903D01*
X346151Y-177572D01*
X347428Y-178849D01*
X349097Y-179540D01*
X350903D01*
X352572Y-178849D01*
X353849Y-177572D01*
X354540Y-175903D01*
Y-174097D01*
X353849Y-172428D01*
X352572Y-171151D01*
X350903Y-170460D01*
D02*
G37*
G36*
X325903D02*
X324097D01*
X322428Y-171151D01*
X321151Y-172428D01*
X320460Y-174097D01*
Y-175903D01*
X321151Y-177572D01*
X322428Y-178849D01*
X324097Y-179540D01*
X325903D01*
X327572Y-178849D01*
X328849Y-177572D01*
X329540Y-175903D01*
Y-174097D01*
X328849Y-172428D01*
X327572Y-171151D01*
X325903Y-170460D01*
D02*
G37*
G36*
X275903D02*
X274097D01*
X272428Y-171151D01*
X271151Y-172428D01*
X270460Y-174097D01*
Y-175903D01*
X271151Y-177572D01*
X272428Y-178849D01*
X274097Y-179540D01*
X275903D01*
X277572Y-178849D01*
X278849Y-177572D01*
X279540Y-175903D01*
Y-174097D01*
X278849Y-172428D01*
X277572Y-171151D01*
X275903Y-170460D01*
D02*
G37*
G36*
X250903D02*
X249097D01*
X247428Y-171151D01*
X246151Y-172428D01*
X245460Y-174097D01*
Y-175903D01*
X246151Y-177572D01*
X247428Y-178849D01*
X249097Y-179540D01*
X250903D01*
X252572Y-178849D01*
X253849Y-177572D01*
X254540Y-175903D01*
Y-174097D01*
X253849Y-172428D01*
X252572Y-171151D01*
X250903Y-170460D01*
D02*
G37*
G36*
X150903D02*
X149097D01*
X147428Y-171151D01*
X146151Y-172428D01*
X145460Y-174097D01*
Y-175903D01*
X146151Y-177572D01*
X147428Y-178849D01*
X149097Y-179540D01*
X150903D01*
X152572Y-178849D01*
X153849Y-177572D01*
X154540Y-175903D01*
Y-174097D01*
X153849Y-172428D01*
X152572Y-171151D01*
X150903Y-170460D01*
D02*
G37*
G36*
X125903D02*
X124097D01*
X122428Y-171151D01*
X121151Y-172428D01*
X120460Y-174097D01*
Y-175903D01*
X121151Y-177572D01*
X122428Y-178849D01*
X124097Y-179540D01*
X125903D01*
X127572Y-178849D01*
X128849Y-177572D01*
X129540Y-175903D01*
Y-174097D01*
X128849Y-172428D01*
X127572Y-171151D01*
X125903Y-170460D01*
D02*
G37*
G36*
X31453Y-163560D02*
X28547D01*
X25739Y-164312D01*
X23221Y-165766D01*
X21166Y-167821D01*
X19712Y-170339D01*
X18960Y-173147D01*
Y-176054D01*
X19712Y-178861D01*
X21166Y-181379D01*
X23221Y-183434D01*
X25739Y-184888D01*
X28547Y-185640D01*
X31453D01*
X34261Y-184888D01*
X36779Y-183434D01*
X38834Y-181379D01*
X40288Y-178861D01*
X41040Y-176054D01*
Y-173147D01*
X40288Y-170339D01*
X38834Y-167821D01*
X36779Y-165766D01*
X34261Y-164312D01*
X31453Y-163560D01*
D02*
G37*
G36*
X6053D02*
X3147D01*
X339Y-164312D01*
X-2179Y-165766D01*
X-4234Y-167821D01*
X-5688Y-170339D01*
X-6440Y-173147D01*
Y-176054D01*
X-5688Y-178861D01*
X-4234Y-181379D01*
X-2179Y-183434D01*
X339Y-184888D01*
X3147Y-185640D01*
X6053D01*
X8861Y-184888D01*
X11379Y-183434D01*
X13434Y-181379D01*
X14888Y-178861D01*
X15640Y-176054D01*
Y-173147D01*
X14888Y-170339D01*
X13434Y-167821D01*
X11379Y-165766D01*
X8861Y-164312D01*
X6053Y-163560D01*
D02*
G37*
G36*
X575903Y-195460D02*
X574097D01*
X572428Y-196151D01*
X571151Y-197428D01*
X570460Y-199097D01*
Y-200903D01*
X571151Y-202572D01*
X572428Y-203849D01*
X574097Y-204540D01*
X575903D01*
X577572Y-203849D01*
X578849Y-202572D01*
X579540Y-200903D01*
Y-199097D01*
X578849Y-197428D01*
X577572Y-196151D01*
X575903Y-195460D01*
D02*
G37*
G36*
X550903D02*
X549097D01*
X547428Y-196151D01*
X546151Y-197428D01*
X545460Y-199097D01*
Y-200903D01*
X546151Y-202572D01*
X547428Y-203849D01*
X549097Y-204540D01*
X550903D01*
X552572Y-203849D01*
X553849Y-202572D01*
X554540Y-200903D01*
Y-199097D01*
X553849Y-197428D01*
X552572Y-196151D01*
X550903Y-195460D01*
D02*
G37*
G36*
X525903D02*
X524097D01*
X522428Y-196151D01*
X521151Y-197428D01*
X520460Y-199097D01*
Y-200903D01*
X521151Y-202572D01*
X522428Y-203849D01*
X524097Y-204540D01*
X525903D01*
X527572Y-203849D01*
X528849Y-202572D01*
X529540Y-200903D01*
Y-199097D01*
X528849Y-197428D01*
X527572Y-196151D01*
X525903Y-195460D01*
D02*
G37*
G36*
X475903D02*
X474097D01*
X472428Y-196151D01*
X471151Y-197428D01*
X470460Y-199097D01*
Y-200903D01*
X471151Y-202572D01*
X472428Y-203849D01*
X474097Y-204540D01*
X475903D01*
X477572Y-203849D01*
X478849Y-202572D01*
X479540Y-200903D01*
Y-199097D01*
X478849Y-197428D01*
X477572Y-196151D01*
X475903Y-195460D01*
D02*
G37*
G36*
X450903D02*
X449097D01*
X447428Y-196151D01*
X446151Y-197428D01*
X445460Y-199097D01*
Y-200903D01*
X446151Y-202572D01*
X447428Y-203849D01*
X449097Y-204540D01*
X450903D01*
X452572Y-203849D01*
X453849Y-202572D01*
X454540Y-200903D01*
Y-199097D01*
X453849Y-197428D01*
X452572Y-196151D01*
X450903Y-195460D01*
D02*
G37*
G36*
X425903D02*
X424097D01*
X422428Y-196151D01*
X421151Y-197428D01*
X420460Y-199097D01*
Y-200903D01*
X421151Y-202572D01*
X422428Y-203849D01*
X424097Y-204540D01*
X425903D01*
X427572Y-203849D01*
X428849Y-202572D01*
X429540Y-200903D01*
Y-199097D01*
X428849Y-197428D01*
X427572Y-196151D01*
X425903Y-195460D01*
D02*
G37*
G36*
X400903D02*
X399097D01*
X397428Y-196151D01*
X396151Y-197428D01*
X395460Y-199097D01*
Y-200903D01*
X396151Y-202572D01*
X397428Y-203849D01*
X399097Y-204540D01*
X400903D01*
X402572Y-203849D01*
X403849Y-202572D01*
X404540Y-200903D01*
Y-199097D01*
X403849Y-197428D01*
X402572Y-196151D01*
X400903Y-195460D01*
D02*
G37*
G36*
X350903D02*
X349097D01*
X347428Y-196151D01*
X346151Y-197428D01*
X345460Y-199097D01*
Y-200903D01*
X346151Y-202572D01*
X347428Y-203849D01*
X349097Y-204540D01*
X350903D01*
X352572Y-203849D01*
X353849Y-202572D01*
X354540Y-200903D01*
Y-199097D01*
X353849Y-197428D01*
X352572Y-196151D01*
X350903Y-195460D01*
D02*
G37*
G36*
X300903D02*
X299097D01*
X297428Y-196151D01*
X296151Y-197428D01*
X295460Y-199097D01*
Y-200903D01*
X296151Y-202572D01*
X297428Y-203849D01*
X299097Y-204540D01*
X300903D01*
X302572Y-203849D01*
X303849Y-202572D01*
X304540Y-200903D01*
Y-199097D01*
X303849Y-197428D01*
X302572Y-196151D01*
X300903Y-195460D01*
D02*
G37*
G36*
X275903D02*
X274097D01*
X272428Y-196151D01*
X271151Y-197428D01*
X270460Y-199097D01*
Y-200903D01*
X271151Y-202572D01*
X272428Y-203849D01*
X274097Y-204540D01*
X275903D01*
X277572Y-203849D01*
X278849Y-202572D01*
X279540Y-200903D01*
Y-199097D01*
X278849Y-197428D01*
X277572Y-196151D01*
X275903Y-195460D01*
D02*
G37*
G36*
X175903D02*
X174097D01*
X172428Y-196151D01*
X171151Y-197428D01*
X170460Y-199097D01*
Y-200903D01*
X171151Y-202572D01*
X172428Y-203849D01*
X174097Y-204540D01*
X175903D01*
X177572Y-203849D01*
X178849Y-202572D01*
X179540Y-200903D01*
Y-199097D01*
X178849Y-197428D01*
X177572Y-196151D01*
X175903Y-195460D01*
D02*
G37*
G36*
X150903D02*
X149097D01*
X147428Y-196151D01*
X146151Y-197428D01*
X145460Y-199097D01*
Y-200903D01*
X146151Y-202572D01*
X147428Y-203849D01*
X149097Y-204540D01*
X150903D01*
X152572Y-203849D01*
X153849Y-202572D01*
X154540Y-200903D01*
Y-199097D01*
X153849Y-197428D01*
X152572Y-196151D01*
X150903Y-195460D01*
D02*
G37*
G36*
X125903D02*
X124097D01*
X122428Y-196151D01*
X121151Y-197428D01*
X120460Y-199097D01*
Y-200903D01*
X121151Y-202572D01*
X122428Y-203849D01*
X124097Y-204540D01*
X125903D01*
X127572Y-203849D01*
X128849Y-202572D01*
X129540Y-200903D01*
Y-199097D01*
X128849Y-197428D01*
X127572Y-196151D01*
X125903Y-195460D01*
D02*
G37*
G36*
X100903D02*
X99097D01*
X97428Y-196151D01*
X96151Y-197428D01*
X95460Y-199097D01*
Y-200903D01*
X96151Y-202572D01*
X97428Y-203849D01*
X99097Y-204540D01*
X100903D01*
X102572Y-203849D01*
X103849Y-202572D01*
X104540Y-200903D01*
Y-199097D01*
X103849Y-197428D01*
X102572Y-196151D01*
X100903Y-195460D01*
D02*
G37*
G36*
X75903D02*
X74097D01*
X72428Y-196151D01*
X71151Y-197428D01*
X70460Y-199097D01*
Y-200903D01*
X71151Y-202572D01*
X72428Y-203849D01*
X74097Y-204540D01*
X75903D01*
X77572Y-203849D01*
X78849Y-202572D01*
X79540Y-200903D01*
Y-199097D01*
X78849Y-197428D01*
X77572Y-196151D01*
X75903Y-195460D01*
D02*
G37*
G36*
X50903D02*
X49097D01*
X47428Y-196151D01*
X46151Y-197428D01*
X45460Y-199097D01*
Y-200903D01*
X46151Y-202572D01*
X47428Y-203849D01*
X49097Y-204540D01*
X50903D01*
X52572Y-203849D01*
X53849Y-202572D01*
X54540Y-200903D01*
Y-199097D01*
X53849Y-197428D01*
X52572Y-196151D01*
X50903Y-195460D01*
D02*
G37*
G36*
X31453Y-188960D02*
X28547D01*
X25739Y-189712D01*
X23221Y-191166D01*
X21166Y-193221D01*
X19712Y-195739D01*
X18960Y-198547D01*
Y-201453D01*
X19712Y-204261D01*
X21166Y-206779D01*
X23221Y-208834D01*
X25739Y-210288D01*
X28547Y-211040D01*
X31453D01*
X34261Y-210288D01*
X36779Y-208834D01*
X38834Y-206779D01*
X40288Y-204261D01*
X41040Y-201453D01*
Y-198547D01*
X40288Y-195739D01*
X38834Y-193221D01*
X36779Y-191166D01*
X34261Y-189712D01*
X31453Y-188960D01*
D02*
G37*
G36*
X575903Y-220460D02*
X574097D01*
X572428Y-221151D01*
X571151Y-222428D01*
X570460Y-224097D01*
Y-225903D01*
X571151Y-227572D01*
X572428Y-228849D01*
X574097Y-229540D01*
X575903D01*
X577572Y-228849D01*
X578849Y-227572D01*
X579540Y-225903D01*
Y-224097D01*
X578849Y-222428D01*
X577572Y-221151D01*
X575903Y-220460D01*
D02*
G37*
G36*
X550903D02*
X549097D01*
X547428Y-221151D01*
X546151Y-222428D01*
X545460Y-224097D01*
Y-225903D01*
X546151Y-227572D01*
X547428Y-228849D01*
X549097Y-229540D01*
X550903D01*
X552572Y-228849D01*
X553849Y-227572D01*
X554540Y-225903D01*
Y-224097D01*
X553849Y-222428D01*
X552572Y-221151D01*
X550903Y-220460D01*
D02*
G37*
G36*
X525903D02*
X524097D01*
X522428Y-221151D01*
X521151Y-222428D01*
X520460Y-224097D01*
Y-225903D01*
X521151Y-227572D01*
X522428Y-228849D01*
X524097Y-229540D01*
X525903D01*
X527572Y-228849D01*
X528849Y-227572D01*
X529540Y-225903D01*
Y-224097D01*
X528849Y-222428D01*
X527572Y-221151D01*
X525903Y-220460D01*
D02*
G37*
G36*
X475903D02*
X474097D01*
X472428Y-221151D01*
X471151Y-222428D01*
X470460Y-224097D01*
Y-225903D01*
X471151Y-227572D01*
X472428Y-228849D01*
X474097Y-229540D01*
X475903D01*
X477572Y-228849D01*
X478849Y-227572D01*
X479540Y-225903D01*
Y-224097D01*
X478849Y-222428D01*
X477572Y-221151D01*
X475903Y-220460D01*
D02*
G37*
G36*
X450903D02*
X449097D01*
X447428Y-221151D01*
X446151Y-222428D01*
X445460Y-224097D01*
Y-225903D01*
X446151Y-227572D01*
X447428Y-228849D01*
X449097Y-229540D01*
X450903D01*
X452572Y-228849D01*
X453849Y-227572D01*
X454540Y-225903D01*
Y-224097D01*
X453849Y-222428D01*
X452572Y-221151D01*
X450903Y-220460D01*
D02*
G37*
G36*
X425903D02*
X424097D01*
X422428Y-221151D01*
X421151Y-222428D01*
X420460Y-224097D01*
Y-225903D01*
X421151Y-227572D01*
X422428Y-228849D01*
X424097Y-229540D01*
X425903D01*
X427572Y-228849D01*
X428849Y-227572D01*
X429540Y-225903D01*
Y-224097D01*
X428849Y-222428D01*
X427572Y-221151D01*
X425903Y-220460D01*
D02*
G37*
G36*
X400903D02*
X399097D01*
X397428Y-221151D01*
X396151Y-222428D01*
X395460Y-224097D01*
Y-225903D01*
X396151Y-227572D01*
X397428Y-228849D01*
X399097Y-229540D01*
X400903D01*
X402572Y-228849D01*
X403849Y-227572D01*
X404540Y-225903D01*
Y-224097D01*
X403849Y-222428D01*
X402572Y-221151D01*
X400903Y-220460D01*
D02*
G37*
G36*
X325903D02*
X324097D01*
X322428Y-221151D01*
X321151Y-222428D01*
X320460Y-224097D01*
Y-225903D01*
X321151Y-227572D01*
X322428Y-228849D01*
X324097Y-229540D01*
X325903D01*
X327572Y-228849D01*
X328849Y-227572D01*
X329540Y-225903D01*
Y-224097D01*
X328849Y-222428D01*
X327572Y-221151D01*
X325903Y-220460D01*
D02*
G37*
G36*
X300903D02*
X299097D01*
X297428Y-221151D01*
X296151Y-222428D01*
X295460Y-224097D01*
Y-225903D01*
X296151Y-227572D01*
X297428Y-228849D01*
X299097Y-229540D01*
X300903D01*
X302572Y-228849D01*
X303849Y-227572D01*
X304540Y-225903D01*
Y-224097D01*
X303849Y-222428D01*
X302572Y-221151D01*
X300903Y-220460D01*
D02*
G37*
G36*
X200903D02*
X199097D01*
X197428Y-221151D01*
X196151Y-222428D01*
X195460Y-224097D01*
Y-225903D01*
X196151Y-227572D01*
X197428Y-228849D01*
X199097Y-229540D01*
X200903D01*
X202572Y-228849D01*
X203849Y-227572D01*
X204540Y-225903D01*
Y-224097D01*
X203849Y-222428D01*
X202572Y-221151D01*
X200903Y-220460D01*
D02*
G37*
G36*
X175903D02*
X174097D01*
X172428Y-221151D01*
X171151Y-222428D01*
X170460Y-224097D01*
Y-225903D01*
X171151Y-227572D01*
X172428Y-228849D01*
X174097Y-229540D01*
X175903D01*
X177572Y-228849D01*
X178849Y-227572D01*
X179540Y-225903D01*
Y-224097D01*
X178849Y-222428D01*
X177572Y-221151D01*
X175903Y-220460D01*
D02*
G37*
G36*
X150903D02*
X149097D01*
X147428Y-221151D01*
X146151Y-222428D01*
X145460Y-224097D01*
Y-225903D01*
X146151Y-227572D01*
X147428Y-228849D01*
X149097Y-229540D01*
X150903D01*
X152572Y-228849D01*
X153849Y-227572D01*
X154540Y-225903D01*
Y-224097D01*
X153849Y-222428D01*
X152572Y-221151D01*
X150903Y-220460D01*
D02*
G37*
G36*
X125903D02*
X124097D01*
X122428Y-221151D01*
X121151Y-222428D01*
X120460Y-224097D01*
Y-225903D01*
X121151Y-227572D01*
X122428Y-228849D01*
X124097Y-229540D01*
X125903D01*
X127572Y-228849D01*
X128849Y-227572D01*
X129540Y-225903D01*
Y-224097D01*
X128849Y-222428D01*
X127572Y-221151D01*
X125903Y-220460D01*
D02*
G37*
G36*
X100903D02*
X99097D01*
X97428Y-221151D01*
X96151Y-222428D01*
X95460Y-224097D01*
Y-225903D01*
X96151Y-227572D01*
X97428Y-228849D01*
X99097Y-229540D01*
X100903D01*
X102572Y-228849D01*
X103849Y-227572D01*
X104540Y-225903D01*
Y-224097D01*
X103849Y-222428D01*
X102572Y-221151D01*
X100903Y-220460D01*
D02*
G37*
G36*
X75903D02*
X74097D01*
X72428Y-221151D01*
X71151Y-222428D01*
X70460Y-224097D01*
Y-225903D01*
X71151Y-227572D01*
X72428Y-228849D01*
X74097Y-229540D01*
X75903D01*
X77572Y-228849D01*
X78849Y-227572D01*
X79540Y-225903D01*
Y-224097D01*
X78849Y-222428D01*
X77572Y-221151D01*
X75903Y-220460D01*
D02*
G37*
G36*
X50903D02*
X49097D01*
X47428Y-221151D01*
X46151Y-222428D01*
X45460Y-224097D01*
Y-225903D01*
X46151Y-227572D01*
X47428Y-228849D01*
X49097Y-229540D01*
X50903D01*
X52572Y-228849D01*
X53849Y-227572D01*
X54540Y-225903D01*
Y-224097D01*
X53849Y-222428D01*
X52572Y-221151D01*
X50903Y-220460D01*
D02*
G37*
G36*
X25903D02*
X24097D01*
X22428Y-221151D01*
X21151Y-222428D01*
X20460Y-224097D01*
Y-225903D01*
X21151Y-227572D01*
X22428Y-228849D01*
X24097Y-229540D01*
X25903D01*
X27572Y-228849D01*
X28849Y-227572D01*
X29540Y-225903D01*
Y-224097D01*
X28849Y-222428D01*
X27572Y-221151D01*
X25903Y-220460D01*
D02*
G37*
G36*
X903D02*
X-903D01*
X-2572Y-221151D01*
X-3849Y-222428D01*
X-4540Y-224097D01*
Y-225903D01*
X-3849Y-227572D01*
X-2572Y-228849D01*
X-903Y-229540D01*
X903D01*
X2572Y-228849D01*
X3849Y-227572D01*
X4540Y-225903D01*
Y-224097D01*
X3849Y-222428D01*
X2572Y-221151D01*
X903Y-220460D01*
D02*
G37*
G36*
X575903Y-245460D02*
X574097D01*
X572428Y-246151D01*
X571151Y-247428D01*
X570460Y-249097D01*
Y-250903D01*
X571151Y-252572D01*
X572428Y-253849D01*
X574097Y-254540D01*
X575903D01*
X577572Y-253849D01*
X578849Y-252572D01*
X579540Y-250903D01*
Y-249097D01*
X578849Y-247428D01*
X577572Y-246151D01*
X575903Y-245460D01*
D02*
G37*
G36*
X550903D02*
X549097D01*
X547428Y-246151D01*
X546151Y-247428D01*
X545460Y-249097D01*
Y-250903D01*
X546151Y-252572D01*
X547428Y-253849D01*
X549097Y-254540D01*
X550903D01*
X552572Y-253849D01*
X553849Y-252572D01*
X554540Y-250903D01*
Y-249097D01*
X553849Y-247428D01*
X552572Y-246151D01*
X550903Y-245460D01*
D02*
G37*
G36*
X525903D02*
X524097D01*
X522428Y-246151D01*
X521151Y-247428D01*
X520460Y-249097D01*
Y-250903D01*
X521151Y-252572D01*
X522428Y-253849D01*
X524097Y-254540D01*
X525903D01*
X527572Y-253849D01*
X528849Y-252572D01*
X529540Y-250903D01*
Y-249097D01*
X528849Y-247428D01*
X527572Y-246151D01*
X525903Y-245460D01*
D02*
G37*
G36*
X475903D02*
X474097D01*
X472428Y-246151D01*
X471151Y-247428D01*
X470460Y-249097D01*
Y-250903D01*
X471151Y-252572D01*
X472428Y-253849D01*
X474097Y-254540D01*
X475903D01*
X477572Y-253849D01*
X478849Y-252572D01*
X479540Y-250903D01*
Y-249097D01*
X478849Y-247428D01*
X477572Y-246151D01*
X475903Y-245460D01*
D02*
G37*
G36*
X450903D02*
X449097D01*
X447428Y-246151D01*
X446151Y-247428D01*
X445460Y-249097D01*
Y-250903D01*
X446151Y-252572D01*
X447428Y-253849D01*
X449097Y-254540D01*
X450903D01*
X452572Y-253849D01*
X453849Y-252572D01*
X454540Y-250903D01*
Y-249097D01*
X453849Y-247428D01*
X452572Y-246151D01*
X450903Y-245460D01*
D02*
G37*
G36*
X425903D02*
X424097D01*
X422428Y-246151D01*
X421151Y-247428D01*
X420460Y-249097D01*
Y-250903D01*
X421151Y-252572D01*
X422428Y-253849D01*
X424097Y-254540D01*
X425903D01*
X427572Y-253849D01*
X428849Y-252572D01*
X429540Y-250903D01*
Y-249097D01*
X428849Y-247428D01*
X427572Y-246151D01*
X425903Y-245460D01*
D02*
G37*
G36*
X400903D02*
X399097D01*
X397428Y-246151D01*
X396151Y-247428D01*
X395460Y-249097D01*
Y-250903D01*
X396151Y-252572D01*
X397428Y-253849D01*
X399097Y-254540D01*
X400903D01*
X402572Y-253849D01*
X403849Y-252572D01*
X404540Y-250903D01*
Y-249097D01*
X403849Y-247428D01*
X402572Y-246151D01*
X400903Y-245460D01*
D02*
G37*
G36*
X350903D02*
X349097D01*
X347428Y-246151D01*
X346151Y-247428D01*
X345460Y-249097D01*
Y-250903D01*
X346151Y-252572D01*
X347428Y-253849D01*
X349097Y-254540D01*
X350903D01*
X352572Y-253849D01*
X353849Y-252572D01*
X354540Y-250903D01*
Y-249097D01*
X353849Y-247428D01*
X352572Y-246151D01*
X350903Y-245460D01*
D02*
G37*
G36*
X325903D02*
X324097D01*
X322428Y-246151D01*
X321151Y-247428D01*
X320460Y-249097D01*
Y-250903D01*
X321151Y-252572D01*
X322428Y-253849D01*
X324097Y-254540D01*
X325903D01*
X327572Y-253849D01*
X328849Y-252572D01*
X329540Y-250903D01*
Y-249097D01*
X328849Y-247428D01*
X327572Y-246151D01*
X325903Y-245460D01*
D02*
G37*
G36*
X300903D02*
X299097D01*
X297428Y-246151D01*
X296151Y-247428D01*
X295460Y-249097D01*
Y-250903D01*
X296151Y-252572D01*
X297428Y-253849D01*
X299097Y-254540D01*
X300903D01*
X302572Y-253849D01*
X303849Y-252572D01*
X304540Y-250903D01*
Y-249097D01*
X303849Y-247428D01*
X302572Y-246151D01*
X300903Y-245460D01*
D02*
G37*
G36*
X225903D02*
X224097D01*
X222428Y-246151D01*
X221151Y-247428D01*
X220460Y-249097D01*
Y-250903D01*
X221151Y-252572D01*
X222428Y-253849D01*
X224097Y-254540D01*
X225903D01*
X227572Y-253849D01*
X228849Y-252572D01*
X229540Y-250903D01*
Y-249097D01*
X228849Y-247428D01*
X227572Y-246151D01*
X225903Y-245460D01*
D02*
G37*
G36*
X200903D02*
X199097D01*
X197428Y-246151D01*
X196151Y-247428D01*
X195460Y-249097D01*
Y-250903D01*
X196151Y-252572D01*
X197428Y-253849D01*
X199097Y-254540D01*
X200903D01*
X202572Y-253849D01*
X203849Y-252572D01*
X204540Y-250903D01*
Y-249097D01*
X203849Y-247428D01*
X202572Y-246151D01*
X200903Y-245460D01*
D02*
G37*
G36*
X175903D02*
X174097D01*
X172428Y-246151D01*
X171151Y-247428D01*
X170460Y-249097D01*
Y-250903D01*
X171151Y-252572D01*
X172428Y-253849D01*
X174097Y-254540D01*
X175903D01*
X177572Y-253849D01*
X178849Y-252572D01*
X179540Y-250903D01*
Y-249097D01*
X178849Y-247428D01*
X177572Y-246151D01*
X175903Y-245460D01*
D02*
G37*
G36*
X150903D02*
X149097D01*
X147428Y-246151D01*
X146151Y-247428D01*
X145460Y-249097D01*
Y-250903D01*
X146151Y-252572D01*
X147428Y-253849D01*
X149097Y-254540D01*
X150903D01*
X152572Y-253849D01*
X153849Y-252572D01*
X154540Y-250903D01*
Y-249097D01*
X153849Y-247428D01*
X152572Y-246151D01*
X150903Y-245460D01*
D02*
G37*
G36*
X125903D02*
X124097D01*
X122428Y-246151D01*
X121151Y-247428D01*
X120460Y-249097D01*
Y-250903D01*
X121151Y-252572D01*
X122428Y-253849D01*
X124097Y-254540D01*
X125903D01*
X127572Y-253849D01*
X128849Y-252572D01*
X129540Y-250903D01*
Y-249097D01*
X128849Y-247428D01*
X127572Y-246151D01*
X125903Y-245460D01*
D02*
G37*
G36*
X100903D02*
X99097D01*
X97428Y-246151D01*
X96151Y-247428D01*
X95460Y-249097D01*
Y-250903D01*
X96151Y-252572D01*
X97428Y-253849D01*
X99097Y-254540D01*
X100903D01*
X102572Y-253849D01*
X103849Y-252572D01*
X104540Y-250903D01*
Y-249097D01*
X103849Y-247428D01*
X102572Y-246151D01*
X100903Y-245460D01*
D02*
G37*
G36*
X75903D02*
X74097D01*
X72428Y-246151D01*
X71151Y-247428D01*
X70460Y-249097D01*
Y-250903D01*
X71151Y-252572D01*
X72428Y-253849D01*
X74097Y-254540D01*
X75903D01*
X77572Y-253849D01*
X78849Y-252572D01*
X79540Y-250903D01*
Y-249097D01*
X78849Y-247428D01*
X77572Y-246151D01*
X75903Y-245460D01*
D02*
G37*
G36*
X50903D02*
X49097D01*
X47428Y-246151D01*
X46151Y-247428D01*
X45460Y-249097D01*
Y-250903D01*
X46151Y-252572D01*
X47428Y-253849D01*
X49097Y-254540D01*
X50903D01*
X52572Y-253849D01*
X53849Y-252572D01*
X54540Y-250903D01*
Y-249097D01*
X53849Y-247428D01*
X52572Y-246151D01*
X50903Y-245460D01*
D02*
G37*
G36*
X25903D02*
X24097D01*
X22428Y-246151D01*
X21151Y-247428D01*
X20460Y-249097D01*
Y-250903D01*
X21151Y-252572D01*
X22428Y-253849D01*
X24097Y-254540D01*
X25903D01*
X27572Y-253849D01*
X28849Y-252572D01*
X29540Y-250903D01*
Y-249097D01*
X28849Y-247428D01*
X27572Y-246151D01*
X25903Y-245460D01*
D02*
G37*
G36*
X903D02*
X-903D01*
X-2572Y-246151D01*
X-3849Y-247428D01*
X-4540Y-249097D01*
Y-250903D01*
X-3849Y-252572D01*
X-2572Y-253849D01*
X-903Y-254540D01*
X903D01*
X2572Y-253849D01*
X3849Y-252572D01*
X4540Y-250903D01*
Y-249097D01*
X3849Y-247428D01*
X2572Y-246151D01*
X903Y-245460D01*
D02*
G37*
G36*
X575903Y-270460D02*
X574097D01*
X572428Y-271151D01*
X571151Y-272428D01*
X570460Y-274097D01*
Y-275903D01*
X571151Y-277572D01*
X572428Y-278849D01*
X574097Y-279540D01*
X575903D01*
X577572Y-278849D01*
X578849Y-277572D01*
X579540Y-275903D01*
Y-274097D01*
X578849Y-272428D01*
X577572Y-271151D01*
X575903Y-270460D01*
D02*
G37*
G36*
X550903D02*
X549097D01*
X547428Y-271151D01*
X546151Y-272428D01*
X545460Y-274097D01*
Y-275903D01*
X546151Y-277572D01*
X547428Y-278849D01*
X549097Y-279540D01*
X550903D01*
X552572Y-278849D01*
X553849Y-277572D01*
X554540Y-275903D01*
Y-274097D01*
X553849Y-272428D01*
X552572Y-271151D01*
X550903Y-270460D01*
D02*
G37*
G36*
X525903D02*
X524097D01*
X522428Y-271151D01*
X521151Y-272428D01*
X520460Y-274097D01*
Y-275903D01*
X521151Y-277572D01*
X522428Y-278849D01*
X524097Y-279540D01*
X525903D01*
X527572Y-278849D01*
X528849Y-277572D01*
X529540Y-275903D01*
Y-274097D01*
X528849Y-272428D01*
X527572Y-271151D01*
X525903Y-270460D01*
D02*
G37*
G36*
X475903D02*
X474097D01*
X472428Y-271151D01*
X471151Y-272428D01*
X470460Y-274097D01*
Y-275903D01*
X471151Y-277572D01*
X472428Y-278849D01*
X474097Y-279540D01*
X475903D01*
X477572Y-278849D01*
X478849Y-277572D01*
X479540Y-275903D01*
Y-274097D01*
X478849Y-272428D01*
X477572Y-271151D01*
X475903Y-270460D01*
D02*
G37*
G36*
X450903D02*
X449097D01*
X447428Y-271151D01*
X446151Y-272428D01*
X445460Y-274097D01*
Y-275903D01*
X446151Y-277572D01*
X447428Y-278849D01*
X449097Y-279540D01*
X450903D01*
X452572Y-278849D01*
X453849Y-277572D01*
X454540Y-275903D01*
Y-274097D01*
X453849Y-272428D01*
X452572Y-271151D01*
X450903Y-270460D01*
D02*
G37*
G36*
X425903D02*
X424097D01*
X422428Y-271151D01*
X421151Y-272428D01*
X420460Y-274097D01*
Y-275903D01*
X421151Y-277572D01*
X422428Y-278849D01*
X424097Y-279540D01*
X425903D01*
X427572Y-278849D01*
X428849Y-277572D01*
X429540Y-275903D01*
Y-274097D01*
X428849Y-272428D01*
X427572Y-271151D01*
X425903Y-270460D01*
D02*
G37*
G36*
X350903D02*
X349097D01*
X347428Y-271151D01*
X346151Y-272428D01*
X345460Y-274097D01*
Y-275903D01*
X346151Y-277572D01*
X347428Y-278849D01*
X349097Y-279540D01*
X350903D01*
X352572Y-278849D01*
X353849Y-277572D01*
X354540Y-275903D01*
Y-274097D01*
X353849Y-272428D01*
X352572Y-271151D01*
X350903Y-270460D01*
D02*
G37*
G36*
X325903D02*
X324097D01*
X322428Y-271151D01*
X321151Y-272428D01*
X320460Y-274097D01*
Y-275903D01*
X321151Y-277572D01*
X322428Y-278849D01*
X324097Y-279540D01*
X325903D01*
X327572Y-278849D01*
X328849Y-277572D01*
X329540Y-275903D01*
Y-274097D01*
X328849Y-272428D01*
X327572Y-271151D01*
X325903Y-270460D01*
D02*
G37*
G36*
X300903D02*
X299097D01*
X297428Y-271151D01*
X296151Y-272428D01*
X295460Y-274097D01*
Y-275903D01*
X296151Y-277572D01*
X297428Y-278849D01*
X299097Y-279540D01*
X300903D01*
X302572Y-278849D01*
X303849Y-277572D01*
X304540Y-275903D01*
Y-274097D01*
X303849Y-272428D01*
X302572Y-271151D01*
X300903Y-270460D01*
D02*
G37*
G36*
X250903D02*
X249097D01*
X247428Y-271151D01*
X246151Y-272428D01*
X245460Y-274097D01*
Y-275903D01*
X246151Y-277572D01*
X247428Y-278849D01*
X249097Y-279540D01*
X250903D01*
X252572Y-278849D01*
X253849Y-277572D01*
X254540Y-275903D01*
Y-274097D01*
X253849Y-272428D01*
X252572Y-271151D01*
X250903Y-270460D01*
D02*
G37*
G36*
X225903D02*
X224097D01*
X222428Y-271151D01*
X221151Y-272428D01*
X220460Y-274097D01*
Y-275903D01*
X221151Y-277572D01*
X222428Y-278849D01*
X224097Y-279540D01*
X225903D01*
X227572Y-278849D01*
X228849Y-277572D01*
X229540Y-275903D01*
Y-274097D01*
X228849Y-272428D01*
X227572Y-271151D01*
X225903Y-270460D01*
D02*
G37*
G36*
X200903D02*
X199097D01*
X197428Y-271151D01*
X196151Y-272428D01*
X195460Y-274097D01*
Y-275903D01*
X196151Y-277572D01*
X197428Y-278849D01*
X199097Y-279540D01*
X200903D01*
X202572Y-278849D01*
X203849Y-277572D01*
X204540Y-275903D01*
Y-274097D01*
X203849Y-272428D01*
X202572Y-271151D01*
X200903Y-270460D01*
D02*
G37*
G36*
X175903D02*
X174097D01*
X172428Y-271151D01*
X171151Y-272428D01*
X170460Y-274097D01*
Y-275903D01*
X171151Y-277572D01*
X172428Y-278849D01*
X174097Y-279540D01*
X175903D01*
X177572Y-278849D01*
X178849Y-277572D01*
X179540Y-275903D01*
Y-274097D01*
X178849Y-272428D01*
X177572Y-271151D01*
X175903Y-270460D01*
D02*
G37*
G36*
X150903D02*
X149097D01*
X147428Y-271151D01*
X146151Y-272428D01*
X145460Y-274097D01*
Y-275903D01*
X146151Y-277572D01*
X147428Y-278849D01*
X149097Y-279540D01*
X150903D01*
X152572Y-278849D01*
X153849Y-277572D01*
X154540Y-275903D01*
Y-274097D01*
X153849Y-272428D01*
X152572Y-271151D01*
X150903Y-270460D01*
D02*
G37*
G36*
X125903D02*
X124097D01*
X122428Y-271151D01*
X121151Y-272428D01*
X120460Y-274097D01*
Y-275903D01*
X121151Y-277572D01*
X122428Y-278849D01*
X124097Y-279540D01*
X125903D01*
X127572Y-278849D01*
X128849Y-277572D01*
X129540Y-275903D01*
Y-274097D01*
X128849Y-272428D01*
X127572Y-271151D01*
X125903Y-270460D01*
D02*
G37*
G36*
X100903D02*
X99097D01*
X97428Y-271151D01*
X96151Y-272428D01*
X95460Y-274097D01*
Y-275903D01*
X96151Y-277572D01*
X97428Y-278849D01*
X99097Y-279540D01*
X100903D01*
X102572Y-278849D01*
X103849Y-277572D01*
X104540Y-275903D01*
Y-274097D01*
X103849Y-272428D01*
X102572Y-271151D01*
X100903Y-270460D01*
D02*
G37*
G36*
X75903D02*
X74097D01*
X72428Y-271151D01*
X71151Y-272428D01*
X70460Y-274097D01*
Y-275903D01*
X71151Y-277572D01*
X72428Y-278849D01*
X74097Y-279540D01*
X75903D01*
X77572Y-278849D01*
X78849Y-277572D01*
X79540Y-275903D01*
Y-274097D01*
X78849Y-272428D01*
X77572Y-271151D01*
X75903Y-270460D01*
D02*
G37*
G36*
X50903D02*
X49097D01*
X47428Y-271151D01*
X46151Y-272428D01*
X45460Y-274097D01*
Y-275903D01*
X46151Y-277572D01*
X47428Y-278849D01*
X49097Y-279540D01*
X50903D01*
X52572Y-278849D01*
X53849Y-277572D01*
X54540Y-275903D01*
Y-274097D01*
X53849Y-272428D01*
X52572Y-271151D01*
X50903Y-270460D01*
D02*
G37*
G36*
X25903D02*
X24097D01*
X22428Y-271151D01*
X21151Y-272428D01*
X20460Y-274097D01*
Y-275903D01*
X21151Y-277572D01*
X22428Y-278849D01*
X24097Y-279540D01*
X25903D01*
X27572Y-278849D01*
X28849Y-277572D01*
X29540Y-275903D01*
Y-274097D01*
X28849Y-272428D01*
X27572Y-271151D01*
X25903Y-270460D01*
D02*
G37*
G36*
X903D02*
X-903D01*
X-2572Y-271151D01*
X-3849Y-272428D01*
X-4540Y-274097D01*
Y-275903D01*
X-3849Y-277572D01*
X-2572Y-278849D01*
X-903Y-279540D01*
X903D01*
X2572Y-278849D01*
X3849Y-277572D01*
X4540Y-275903D01*
Y-274097D01*
X3849Y-272428D01*
X2572Y-271151D01*
X903Y-270460D01*
D02*
G37*
G36*
X575903Y-295460D02*
X574097D01*
X572428Y-296151D01*
X571151Y-297428D01*
X570460Y-299097D01*
Y-300903D01*
X571151Y-302572D01*
X572428Y-303849D01*
X574097Y-304540D01*
X575903D01*
X577572Y-303849D01*
X578849Y-302572D01*
X579540Y-300903D01*
Y-299097D01*
X578849Y-297428D01*
X577572Y-296151D01*
X575903Y-295460D01*
D02*
G37*
G36*
X550903D02*
X549097D01*
X547428Y-296151D01*
X546151Y-297428D01*
X545460Y-299097D01*
Y-300903D01*
X546151Y-302572D01*
X547428Y-303849D01*
X549097Y-304540D01*
X550903D01*
X552572Y-303849D01*
X553849Y-302572D01*
X554540Y-300903D01*
Y-299097D01*
X553849Y-297428D01*
X552572Y-296151D01*
X550903Y-295460D01*
D02*
G37*
G36*
X525903D02*
X524097D01*
X522428Y-296151D01*
X521151Y-297428D01*
X520460Y-299097D01*
Y-300903D01*
X521151Y-302572D01*
X522428Y-303849D01*
X524097Y-304540D01*
X525903D01*
X527572Y-303849D01*
X528849Y-302572D01*
X529540Y-300903D01*
Y-299097D01*
X528849Y-297428D01*
X527572Y-296151D01*
X525903Y-295460D01*
D02*
G37*
G36*
X475903D02*
X474097D01*
X472428Y-296151D01*
X471151Y-297428D01*
X470460Y-299097D01*
Y-300903D01*
X471151Y-302572D01*
X472428Y-303849D01*
X474097Y-304540D01*
X475903D01*
X477572Y-303849D01*
X478849Y-302572D01*
X479540Y-300903D01*
Y-299097D01*
X478849Y-297428D01*
X477572Y-296151D01*
X475903Y-295460D01*
D02*
G37*
G36*
X450903D02*
X449097D01*
X447428Y-296151D01*
X446151Y-297428D01*
X445460Y-299097D01*
Y-300903D01*
X446151Y-302572D01*
X447428Y-303849D01*
X449097Y-304540D01*
X450903D01*
X452572Y-303849D01*
X453849Y-302572D01*
X454540Y-300903D01*
Y-299097D01*
X453849Y-297428D01*
X452572Y-296151D01*
X450903Y-295460D01*
D02*
G37*
G36*
X350903D02*
X349097D01*
X347428Y-296151D01*
X346151Y-297428D01*
X345460Y-299097D01*
Y-300903D01*
X346151Y-302572D01*
X347428Y-303849D01*
X349097Y-304540D01*
X350903D01*
X352572Y-303849D01*
X353849Y-302572D01*
X354540Y-300903D01*
Y-299097D01*
X353849Y-297428D01*
X352572Y-296151D01*
X350903Y-295460D01*
D02*
G37*
G36*
X325903D02*
X324097D01*
X322428Y-296151D01*
X321151Y-297428D01*
X320460Y-299097D01*
Y-300903D01*
X321151Y-302572D01*
X322428Y-303849D01*
X324097Y-304540D01*
X325903D01*
X327572Y-303849D01*
X328849Y-302572D01*
X329540Y-300903D01*
Y-299097D01*
X328849Y-297428D01*
X327572Y-296151D01*
X325903Y-295460D01*
D02*
G37*
G36*
X250903D02*
X249097D01*
X247428Y-296151D01*
X246151Y-297428D01*
X245460Y-299097D01*
Y-300903D01*
X246151Y-302572D01*
X247428Y-303849D01*
X249097Y-304540D01*
X250903D01*
X252572Y-303849D01*
X253849Y-302572D01*
X254540Y-300903D01*
Y-299097D01*
X253849Y-297428D01*
X252572Y-296151D01*
X250903Y-295460D01*
D02*
G37*
G36*
X225903D02*
X224097D01*
X222428Y-296151D01*
X221151Y-297428D01*
X220460Y-299097D01*
Y-300903D01*
X221151Y-302572D01*
X222428Y-303849D01*
X224097Y-304540D01*
X225903D01*
X227572Y-303849D01*
X228849Y-302572D01*
X229540Y-300903D01*
Y-299097D01*
X228849Y-297428D01*
X227572Y-296151D01*
X225903Y-295460D01*
D02*
G37*
G36*
X200903D02*
X199097D01*
X197428Y-296151D01*
X196151Y-297428D01*
X195460Y-299097D01*
Y-300903D01*
X196151Y-302572D01*
X197428Y-303849D01*
X199097Y-304540D01*
X200903D01*
X202572Y-303849D01*
X203849Y-302572D01*
X204540Y-300903D01*
Y-299097D01*
X203849Y-297428D01*
X202572Y-296151D01*
X200903Y-295460D01*
D02*
G37*
G36*
X175903D02*
X174097D01*
X172428Y-296151D01*
X171151Y-297428D01*
X170460Y-299097D01*
Y-300903D01*
X171151Y-302572D01*
X172428Y-303849D01*
X174097Y-304540D01*
X175903D01*
X177572Y-303849D01*
X178849Y-302572D01*
X179540Y-300903D01*
Y-299097D01*
X178849Y-297428D01*
X177572Y-296151D01*
X175903Y-295460D01*
D02*
G37*
G36*
X150903D02*
X149097D01*
X147428Y-296151D01*
X146151Y-297428D01*
X145460Y-299097D01*
Y-300903D01*
X146151Y-302572D01*
X147428Y-303849D01*
X149097Y-304540D01*
X150903D01*
X152572Y-303849D01*
X153849Y-302572D01*
X154540Y-300903D01*
Y-299097D01*
X153849Y-297428D01*
X152572Y-296151D01*
X150903Y-295460D01*
D02*
G37*
G36*
X125903D02*
X124097D01*
X122428Y-296151D01*
X121151Y-297428D01*
X120460Y-299097D01*
Y-300903D01*
X121151Y-302572D01*
X122428Y-303849D01*
X124097Y-304540D01*
X125903D01*
X127572Y-303849D01*
X128849Y-302572D01*
X129540Y-300903D01*
Y-299097D01*
X128849Y-297428D01*
X127572Y-296151D01*
X125903Y-295460D01*
D02*
G37*
G36*
X100903D02*
X99097D01*
X97428Y-296151D01*
X96151Y-297428D01*
X95460Y-299097D01*
Y-300903D01*
X96151Y-302572D01*
X97428Y-303849D01*
X99097Y-304540D01*
X100903D01*
X102572Y-303849D01*
X103849Y-302572D01*
X104540Y-300903D01*
Y-299097D01*
X103849Y-297428D01*
X102572Y-296151D01*
X100903Y-295460D01*
D02*
G37*
G36*
X75903D02*
X74097D01*
X72428Y-296151D01*
X71151Y-297428D01*
X70460Y-299097D01*
Y-300903D01*
X71151Y-302572D01*
X72428Y-303849D01*
X74097Y-304540D01*
X75903D01*
X77572Y-303849D01*
X78849Y-302572D01*
X79540Y-300903D01*
Y-299097D01*
X78849Y-297428D01*
X77572Y-296151D01*
X75903Y-295460D01*
D02*
G37*
G36*
X50903D02*
X49097D01*
X47428Y-296151D01*
X46151Y-297428D01*
X45460Y-299097D01*
Y-300903D01*
X46151Y-302572D01*
X47428Y-303849D01*
X49097Y-304540D01*
X50903D01*
X52572Y-303849D01*
X53849Y-302572D01*
X54540Y-300903D01*
Y-299097D01*
X53849Y-297428D01*
X52572Y-296151D01*
X50903Y-295460D01*
D02*
G37*
G36*
X25903D02*
X24097D01*
X22428Y-296151D01*
X21151Y-297428D01*
X20460Y-299097D01*
Y-300903D01*
X21151Y-302572D01*
X22428Y-303849D01*
X24097Y-304540D01*
X25903D01*
X27572Y-303849D01*
X28849Y-302572D01*
X29540Y-300903D01*
Y-299097D01*
X28849Y-297428D01*
X27572Y-296151D01*
X25903Y-295460D01*
D02*
G37*
G36*
X903D02*
X-903D01*
X-2572Y-296151D01*
X-3849Y-297428D01*
X-4540Y-299097D01*
Y-300903D01*
X-3849Y-302572D01*
X-2572Y-303849D01*
X-903Y-304540D01*
X903D01*
X2572Y-303849D01*
X3849Y-302572D01*
X4540Y-300903D01*
Y-299097D01*
X3849Y-297428D01*
X2572Y-296151D01*
X903Y-295460D01*
D02*
G37*
G36*
X582480Y-319743D02*
X580674D01*
X579006Y-320434D01*
X577728Y-321711D01*
X577037Y-323380D01*
Y-325186D01*
X577728Y-326855D01*
X579006Y-328132D01*
X580674Y-328823D01*
X582480D01*
X584149Y-328132D01*
X585426Y-326855D01*
X586117Y-325186D01*
Y-323380D01*
X585426Y-321711D01*
X584149Y-320434D01*
X582480Y-319743D01*
D02*
G37*
G36*
X568472Y-315601D02*
X557432D01*
X551912Y-321120D01*
Y-332160D01*
X557432Y-337681D01*
X568472D01*
X573992Y-332160D01*
Y-321120D01*
X568472Y-315601D01*
D02*
G37*
G36*
X41040Y-315960D02*
X18960D01*
Y-338040D01*
X41040D01*
Y-315960D01*
D02*
G37*
G36*
X6053D02*
X3147D01*
X339Y-316712D01*
X-2179Y-318166D01*
X-4234Y-320221D01*
X-5688Y-322739D01*
X-6440Y-325547D01*
Y-328453D01*
X-5688Y-331261D01*
X-4234Y-333779D01*
X-2179Y-335834D01*
X339Y-337288D01*
X3147Y-338040D01*
X6053D01*
X8861Y-337288D01*
X11379Y-335834D01*
X13434Y-333779D01*
X14888Y-331261D01*
X15640Y-328453D01*
Y-325547D01*
X14888Y-322739D01*
X13434Y-320221D01*
X11379Y-318166D01*
X8861Y-316712D01*
X6053Y-315960D01*
D02*
G37*
G36*
X226091Y-332765D02*
X224285D01*
X222616Y-333456D01*
X221339Y-334733D01*
X220648Y-336401D01*
Y-338208D01*
X221339Y-339876D01*
X222616Y-341153D01*
X224285Y-341845D01*
X226091D01*
X227760Y-341153D01*
X229037Y-339876D01*
X229728Y-338208D01*
Y-336401D01*
X229037Y-334733D01*
X227760Y-333456D01*
X226091Y-332765D01*
D02*
G37*
G36*
X201091D02*
X199285D01*
X197616Y-333456D01*
X196339Y-334733D01*
X195648Y-336401D01*
Y-338208D01*
X196339Y-339876D01*
X197616Y-341153D01*
X199285Y-341845D01*
X201091D01*
X202760Y-341153D01*
X204037Y-339876D01*
X204728Y-338208D01*
Y-336401D01*
X204037Y-334733D01*
X202760Y-333456D01*
X201091Y-332765D01*
D02*
G37*
G36*
X176091D02*
X174285D01*
X172616Y-333456D01*
X171339Y-334733D01*
X170648Y-336401D01*
Y-338208D01*
X171339Y-339876D01*
X172616Y-341153D01*
X174285Y-341845D01*
X176091D01*
X177760Y-341153D01*
X179037Y-339876D01*
X179728Y-338208D01*
Y-336401D01*
X179037Y-334733D01*
X177760Y-333456D01*
X176091Y-332765D01*
D02*
G37*
G36*
X151091D02*
X149285D01*
X147616Y-333456D01*
X146339Y-334733D01*
X145648Y-336401D01*
Y-338208D01*
X146339Y-339876D01*
X147616Y-341153D01*
X149285Y-341845D01*
X151091D01*
X152760Y-341153D01*
X154037Y-339876D01*
X154728Y-338208D01*
Y-336401D01*
X154037Y-334733D01*
X152760Y-333456D01*
X151091Y-332765D01*
D02*
G37*
G36*
X126091D02*
X124285D01*
X122616Y-333456D01*
X121339Y-334733D01*
X120648Y-336401D01*
Y-338208D01*
X121339Y-339876D01*
X122616Y-341153D01*
X124285Y-341845D01*
X126091D01*
X127760Y-341153D01*
X129037Y-339876D01*
X129728Y-338208D01*
Y-336401D01*
X129037Y-334733D01*
X127760Y-333456D01*
X126091Y-332765D01*
D02*
G37*
G36*
X101091D02*
X99285D01*
X97616Y-333456D01*
X96339Y-334733D01*
X95648Y-336401D01*
Y-338208D01*
X96339Y-339876D01*
X97616Y-341153D01*
X99285Y-341845D01*
X101091D01*
X102760Y-341153D01*
X104037Y-339876D01*
X104728Y-338208D01*
Y-336401D01*
X104037Y-334733D01*
X102760Y-333456D01*
X101091Y-332765D01*
D02*
G37*
G36*
X76091D02*
X74285D01*
X72616Y-333456D01*
X71339Y-334733D01*
X70648Y-336401D01*
Y-338208D01*
X71339Y-339876D01*
X72616Y-341153D01*
X74285Y-341845D01*
X76091D01*
X77760Y-341153D01*
X79037Y-339876D01*
X79728Y-338208D01*
Y-336401D01*
X79037Y-334733D01*
X77760Y-333456D01*
X76091Y-332765D01*
D02*
G37*
G36*
X582480Y-344743D02*
X580674D01*
X579006Y-345434D01*
X577728Y-346711D01*
X577037Y-348380D01*
Y-350186D01*
X577728Y-351855D01*
X579006Y-353132D01*
X580674Y-353823D01*
X582480D01*
X584149Y-353132D01*
X585426Y-351855D01*
X586117Y-350186D01*
Y-348380D01*
X585426Y-346711D01*
X584149Y-345434D01*
X582480Y-344743D01*
D02*
G37*
G36*
X564405Y-341001D02*
X561498D01*
X558690Y-341753D01*
X556173Y-343206D01*
X554118Y-345262D01*
X552664Y-347779D01*
X551912Y-350587D01*
Y-353494D01*
X552664Y-356302D01*
X554118Y-358819D01*
X556173Y-360875D01*
X558690Y-362328D01*
X561498Y-363080D01*
X564405D01*
X567213Y-362328D01*
X569730Y-360875D01*
X571786Y-358819D01*
X573239Y-356302D01*
X573992Y-353494D01*
Y-350587D01*
X573239Y-347779D01*
X571786Y-345262D01*
X569730Y-343206D01*
X567213Y-341753D01*
X564405Y-341001D01*
D02*
G37*
G36*
X31453Y-341360D02*
X28547D01*
X25739Y-342112D01*
X23221Y-343566D01*
X21166Y-345621D01*
X19712Y-348139D01*
X18960Y-350947D01*
Y-353853D01*
X19712Y-356661D01*
X21166Y-359179D01*
X23221Y-361234D01*
X25739Y-362688D01*
X28547Y-363440D01*
X31453D01*
X34261Y-362688D01*
X36779Y-361234D01*
X38834Y-359179D01*
X40288Y-356661D01*
X41040Y-353853D01*
Y-350947D01*
X40288Y-348139D01*
X38834Y-345621D01*
X36779Y-343566D01*
X34261Y-342112D01*
X31453Y-341360D01*
D02*
G37*
G36*
X6053D02*
X3147D01*
X339Y-342112D01*
X-2179Y-343566D01*
X-4234Y-345621D01*
X-5688Y-348139D01*
X-6440Y-350947D01*
Y-353853D01*
X-5688Y-356661D01*
X-4234Y-359179D01*
X-2179Y-361234D01*
X339Y-362688D01*
X3147Y-363440D01*
X6053D01*
X8861Y-362688D01*
X11379Y-361234D01*
X13434Y-359179D01*
X14888Y-356661D01*
X15640Y-353853D01*
Y-350947D01*
X14888Y-348139D01*
X13434Y-345621D01*
X11379Y-343566D01*
X8861Y-342112D01*
X6053Y-341360D01*
D02*
G37*
G36*
X582480Y-369743D02*
X580674D01*
X579006Y-370434D01*
X577728Y-371711D01*
X577037Y-373380D01*
Y-375186D01*
X577728Y-376855D01*
X579006Y-378132D01*
X580674Y-378823D01*
X582480D01*
X584149Y-378132D01*
X585426Y-376855D01*
X586117Y-375186D01*
Y-373380D01*
X585426Y-371711D01*
X584149Y-370434D01*
X582480Y-369743D01*
D02*
G37*
G36*
X525903Y-370460D02*
X524097D01*
X522428Y-371151D01*
X521151Y-372428D01*
X520460Y-374097D01*
Y-375903D01*
X521151Y-377572D01*
X522428Y-378849D01*
X524097Y-379540D01*
X525903D01*
X527572Y-378849D01*
X528849Y-377572D01*
X529540Y-375903D01*
Y-374097D01*
X528849Y-372428D01*
X527572Y-371151D01*
X525903Y-370460D01*
D02*
G37*
G36*
X564405Y-366401D02*
X561498D01*
X558690Y-367153D01*
X556173Y-368606D01*
X554118Y-370662D01*
X552664Y-373179D01*
X551912Y-375987D01*
Y-378894D01*
X552664Y-381702D01*
X554118Y-384219D01*
X556173Y-386275D01*
X558690Y-387728D01*
X561498Y-388480D01*
X564405D01*
X567213Y-387728D01*
X569730Y-386275D01*
X571786Y-384219D01*
X573239Y-381702D01*
X573992Y-378894D01*
Y-375987D01*
X573239Y-373179D01*
X571786Y-370662D01*
X569730Y-368606D01*
X567213Y-367153D01*
X564405Y-366401D01*
D02*
G37*
G36*
X31453Y-366760D02*
X28547D01*
X25739Y-367512D01*
X23221Y-368966D01*
X21166Y-371021D01*
X19712Y-373539D01*
X18960Y-376347D01*
Y-379254D01*
X19712Y-382061D01*
X21166Y-384579D01*
X23221Y-386634D01*
X25739Y-388088D01*
X28547Y-388840D01*
X31453D01*
X34261Y-388088D01*
X36779Y-386634D01*
X38834Y-384579D01*
X40288Y-382061D01*
X41040Y-379254D01*
Y-376347D01*
X40288Y-373539D01*
X38834Y-371021D01*
X36779Y-368966D01*
X34261Y-367512D01*
X31453Y-366760D01*
D02*
G37*
G36*
X6053D02*
X3147D01*
X339Y-367512D01*
X-2179Y-368966D01*
X-4234Y-371021D01*
X-5688Y-373539D01*
X-6440Y-376347D01*
Y-379254D01*
X-5688Y-382061D01*
X-4234Y-384579D01*
X-2179Y-386634D01*
X339Y-388088D01*
X3147Y-388840D01*
X6053D01*
X8861Y-388088D01*
X11379Y-386634D01*
X13434Y-384579D01*
X14888Y-382061D01*
X15640Y-379254D01*
Y-376347D01*
X14888Y-373539D01*
X13434Y-371021D01*
X11379Y-368966D01*
X8861Y-367512D01*
X6053Y-366760D01*
D02*
G37*
G36*
X582480Y-394743D02*
X580674D01*
X579006Y-395434D01*
X577728Y-396711D01*
X577037Y-398380D01*
Y-400186D01*
X577728Y-401855D01*
X579006Y-403132D01*
X580674Y-403823D01*
X582480D01*
X584149Y-403132D01*
X585426Y-401855D01*
X586117Y-400186D01*
Y-398380D01*
X585426Y-396711D01*
X584149Y-395434D01*
X582480Y-394743D01*
D02*
G37*
G36*
X525903Y-395460D02*
X524097D01*
X522428Y-396151D01*
X521151Y-397428D01*
X520460Y-399097D01*
Y-400903D01*
X521151Y-402572D01*
X522428Y-403849D01*
X524097Y-404540D01*
X525903D01*
X527572Y-403849D01*
X528849Y-402572D01*
X529540Y-400903D01*
Y-399097D01*
X528849Y-397428D01*
X527572Y-396151D01*
X525903Y-395460D01*
D02*
G37*
G36*
X564405Y-391801D02*
X561498D01*
X558690Y-392553D01*
X556173Y-394006D01*
X554118Y-396062D01*
X552664Y-398579D01*
X551912Y-401387D01*
Y-404294D01*
X552664Y-407102D01*
X554118Y-409619D01*
X556173Y-411675D01*
X558690Y-413128D01*
X561498Y-413881D01*
X564405D01*
X567213Y-413128D01*
X569730Y-411675D01*
X571786Y-409619D01*
X573239Y-407102D01*
X573992Y-404294D01*
Y-401387D01*
X573239Y-398579D01*
X571786Y-396062D01*
X569730Y-394006D01*
X567213Y-392553D01*
X564405Y-391801D01*
D02*
G37*
G36*
X31453Y-392160D02*
X28547D01*
X25739Y-392912D01*
X23221Y-394366D01*
X21166Y-396421D01*
X19712Y-398939D01*
X18960Y-401747D01*
Y-404654D01*
X19712Y-407461D01*
X21166Y-409979D01*
X23221Y-412034D01*
X25739Y-413488D01*
X28547Y-414240D01*
X31453D01*
X34261Y-413488D01*
X36779Y-412034D01*
X38834Y-409979D01*
X40288Y-407461D01*
X41040Y-404654D01*
Y-401747D01*
X40288Y-398939D01*
X38834Y-396421D01*
X36779Y-394366D01*
X34261Y-392912D01*
X31453Y-392160D01*
D02*
G37*
G36*
X6053D02*
X3147D01*
X339Y-392912D01*
X-2179Y-394366D01*
X-4234Y-396421D01*
X-5688Y-398939D01*
X-6440Y-401747D01*
Y-404654D01*
X-5688Y-407461D01*
X-4234Y-409979D01*
X-2179Y-412034D01*
X339Y-413488D01*
X3147Y-414240D01*
X6053D01*
X8861Y-413488D01*
X11379Y-412034D01*
X13434Y-409979D01*
X14888Y-407461D01*
X15640Y-404654D01*
Y-401747D01*
X14888Y-398939D01*
X13434Y-396421D01*
X11379Y-394366D01*
X8861Y-392912D01*
X6053Y-392160D01*
D02*
G37*
G36*
X582480Y-419743D02*
X580674D01*
X579006Y-420434D01*
X577728Y-421711D01*
X577037Y-423380D01*
Y-425186D01*
X577728Y-426855D01*
X579006Y-428132D01*
X580674Y-428823D01*
X582480D01*
X584149Y-428132D01*
X585426Y-426855D01*
X586117Y-425186D01*
Y-423380D01*
X585426Y-421711D01*
X584149Y-420434D01*
X582480Y-419743D01*
D02*
G37*
G36*
X564405Y-417201D02*
X561498D01*
X558690Y-417953D01*
X556173Y-419406D01*
X554118Y-421462D01*
X552664Y-423979D01*
X551912Y-426787D01*
Y-429694D01*
X552664Y-432502D01*
X554118Y-435019D01*
X556173Y-437075D01*
X558690Y-438528D01*
X561498Y-439281D01*
X564405D01*
X567213Y-438528D01*
X569730Y-437075D01*
X571786Y-435019D01*
X573239Y-432502D01*
X573992Y-429694D01*
Y-426787D01*
X573239Y-423979D01*
X571786Y-421462D01*
X569730Y-419406D01*
X567213Y-417953D01*
X564405Y-417201D01*
D02*
G37*
G36*
X31453Y-417560D02*
X28547D01*
X25739Y-418312D01*
X23221Y-419766D01*
X21166Y-421821D01*
X19712Y-424339D01*
X18960Y-427147D01*
Y-430053D01*
X19712Y-432861D01*
X21166Y-435379D01*
X23221Y-437434D01*
X25739Y-438888D01*
X28547Y-439640D01*
X31453D01*
X34261Y-438888D01*
X36779Y-437434D01*
X38834Y-435379D01*
X40288Y-432861D01*
X41040Y-430053D01*
Y-427147D01*
X40288Y-424339D01*
X38834Y-421821D01*
X36779Y-419766D01*
X34261Y-418312D01*
X31453Y-417560D01*
D02*
G37*
G36*
X6053D02*
X3147D01*
X339Y-418312D01*
X-2179Y-419766D01*
X-4234Y-421821D01*
X-5688Y-424339D01*
X-6440Y-427147D01*
Y-430053D01*
X-5688Y-432861D01*
X-4234Y-435379D01*
X-2179Y-437434D01*
X339Y-438888D01*
X3147Y-439640D01*
X6053D01*
X8861Y-438888D01*
X11379Y-437434D01*
X13434Y-435379D01*
X14888Y-432861D01*
X15640Y-430053D01*
Y-427147D01*
X14888Y-424339D01*
X13434Y-421821D01*
X11379Y-419766D01*
X8861Y-418312D01*
X6053Y-417560D01*
D02*
G37*
G36*
X582480Y-444743D02*
X580674D01*
X579006Y-445434D01*
X577728Y-446711D01*
X577037Y-448380D01*
Y-450186D01*
X577728Y-451855D01*
X579006Y-453132D01*
X580674Y-453823D01*
X582480D01*
X584149Y-453132D01*
X585426Y-451855D01*
X586117Y-450186D01*
Y-448380D01*
X585426Y-446711D01*
X584149Y-445434D01*
X582480Y-444743D01*
D02*
G37*
G36*
X425160Y-444984D02*
X423354D01*
X421686Y-445675D01*
X420408Y-446952D01*
X419717Y-448621D01*
Y-450427D01*
X420408Y-452096D01*
X421686Y-453373D01*
X423354Y-454064D01*
X425160D01*
X426829Y-453373D01*
X428106Y-452096D01*
X428797Y-450427D01*
Y-448621D01*
X428106Y-446952D01*
X426829Y-445675D01*
X425160Y-444984D01*
D02*
G37*
G36*
X350160D02*
X348354D01*
X346686Y-445675D01*
X345409Y-446952D01*
X344717Y-448621D01*
Y-450427D01*
X345409Y-452096D01*
X346686Y-453373D01*
X348354Y-454064D01*
X350160D01*
X351829Y-453373D01*
X353106Y-452096D01*
X353797Y-450427D01*
Y-448621D01*
X353106Y-446952D01*
X351829Y-445675D01*
X350160Y-444984D01*
D02*
G37*
G36*
X325903Y-445460D02*
X324097D01*
X322428Y-446151D01*
X321151Y-447428D01*
X320460Y-449097D01*
Y-450903D01*
X321151Y-452572D01*
X322428Y-453849D01*
X324097Y-454540D01*
X325903D01*
X327572Y-453849D01*
X328849Y-452572D01*
X329540Y-450903D01*
Y-449097D01*
X328849Y-447428D01*
X327572Y-446151D01*
X325903Y-445460D01*
D02*
G37*
G36*
X300903D02*
X299097D01*
X297428Y-446151D01*
X296151Y-447428D01*
X295460Y-449097D01*
Y-450903D01*
X296151Y-452572D01*
X297428Y-453849D01*
X299097Y-454540D01*
X300903D01*
X302572Y-453849D01*
X303849Y-452572D01*
X304540Y-450903D01*
Y-449097D01*
X303849Y-447428D01*
X302572Y-446151D01*
X300903Y-445460D01*
D02*
G37*
G36*
X250903D02*
X249097D01*
X247428Y-446151D01*
X246151Y-447428D01*
X245460Y-449097D01*
Y-450903D01*
X246151Y-452572D01*
X247428Y-453849D01*
X249097Y-454540D01*
X250903D01*
X252572Y-453849D01*
X253849Y-452572D01*
X254540Y-450903D01*
Y-449097D01*
X253849Y-447428D01*
X252572Y-446151D01*
X250903Y-445460D01*
D02*
G37*
G36*
X225903D02*
X224097D01*
X222428Y-446151D01*
X221151Y-447428D01*
X220460Y-449097D01*
Y-450903D01*
X221151Y-452572D01*
X222428Y-453849D01*
X224097Y-454540D01*
X225903D01*
X227572Y-453849D01*
X228849Y-452572D01*
X229540Y-450903D01*
Y-449097D01*
X228849Y-447428D01*
X227572Y-446151D01*
X225903Y-445460D01*
D02*
G37*
G36*
X564405Y-442601D02*
X561498D01*
X558690Y-443353D01*
X556173Y-444806D01*
X554118Y-446862D01*
X552664Y-449379D01*
X551912Y-452187D01*
Y-455094D01*
X552664Y-457902D01*
X554118Y-460419D01*
X556173Y-462475D01*
X558690Y-463928D01*
X561498Y-464680D01*
X564405D01*
X567213Y-463928D01*
X569730Y-462475D01*
X571786Y-460419D01*
X573239Y-457902D01*
X573992Y-455094D01*
Y-452187D01*
X573239Y-449379D01*
X571786Y-446862D01*
X569730Y-444806D01*
X567213Y-443353D01*
X564405Y-442601D01*
D02*
G37*
G36*
X582480Y-469743D02*
X580674D01*
X579006Y-470434D01*
X577728Y-471711D01*
X577037Y-473380D01*
Y-475186D01*
X577728Y-476855D01*
X579006Y-478132D01*
X580674Y-478823D01*
X582480D01*
X584149Y-478132D01*
X585426Y-476855D01*
X586117Y-475186D01*
Y-473380D01*
X585426Y-471711D01*
X584149Y-470434D01*
X582480Y-469743D01*
D02*
G37*
G36*
X564405Y-468001D02*
X561498D01*
X558690Y-468753D01*
X556173Y-470206D01*
X554118Y-472262D01*
X552664Y-474779D01*
X551912Y-477587D01*
Y-480494D01*
X552664Y-483302D01*
X554118Y-485819D01*
X556173Y-487875D01*
X558690Y-489328D01*
X561498Y-490080D01*
X564405D01*
X567213Y-489328D01*
X569730Y-487875D01*
X571786Y-485819D01*
X573239Y-483302D01*
X573992Y-480494D01*
Y-477587D01*
X573239Y-474779D01*
X571786Y-472262D01*
X569730Y-470206D01*
X567213Y-468753D01*
X564405Y-468001D01*
D02*
G37*
G36*
X6053Y-468360D02*
X3147D01*
X339Y-469112D01*
X-2179Y-470566D01*
X-4234Y-472621D01*
X-5688Y-475139D01*
X-6440Y-477947D01*
Y-480854D01*
X-5688Y-483661D01*
X-4234Y-486179D01*
X-2179Y-488234D01*
X339Y-489688D01*
X3147Y-490440D01*
X6053D01*
X8861Y-489688D01*
X11379Y-488234D01*
X13434Y-486179D01*
X14888Y-483661D01*
X15640Y-480854D01*
Y-477947D01*
X14888Y-475139D01*
X13434Y-472621D01*
X11379Y-470566D01*
X8861Y-469112D01*
X6053Y-468360D01*
D02*
G37*
G36*
X451351Y-417607D02*
X449011D01*
X446750Y-418213D01*
X444723Y-419384D01*
X443067Y-421039D01*
X441897Y-423066D01*
X441291Y-425327D01*
Y-427668D01*
X441897Y-429929D01*
X443067Y-431956D01*
X444723Y-433611D01*
X446750Y-434781D01*
X446914Y-434826D01*
Y-483638D01*
X445464Y-484475D01*
X443808Y-486130D01*
X442638Y-488158D01*
X442032Y-490419D01*
Y-492760D01*
X442638Y-495020D01*
X443808Y-497048D01*
X445464Y-498703D01*
X447491Y-499873D01*
X449752Y-500479D01*
X452093D01*
X454354Y-499873D01*
X456381Y-498703D01*
X458036Y-497048D01*
X459206Y-495020D01*
X459812Y-492760D01*
Y-490419D01*
X459206Y-488158D01*
X458036Y-486130D01*
X456381Y-484475D01*
X454683Y-483495D01*
Y-434163D01*
X455640Y-433611D01*
X457295Y-431956D01*
X458465Y-429929D01*
X459071Y-427668D01*
Y-425327D01*
X458465Y-423066D01*
X457295Y-421039D01*
X455640Y-419384D01*
X453613Y-418213D01*
X451351Y-417607D01*
D02*
G37*
G36*
X582480Y-494743D02*
X580674D01*
X579006Y-495434D01*
X577728Y-496711D01*
X577037Y-498380D01*
Y-500186D01*
X577728Y-501855D01*
X579006Y-503132D01*
X580674Y-503823D01*
X582480D01*
X584149Y-503132D01*
X585426Y-501855D01*
X586117Y-500186D01*
Y-498380D01*
X585426Y-496711D01*
X584149Y-495434D01*
X582480Y-494743D01*
D02*
G37*
G36*
X564405Y-493401D02*
X561498D01*
X558690Y-494153D01*
X556173Y-495606D01*
X554118Y-497662D01*
X552664Y-500179D01*
X551912Y-502987D01*
Y-505894D01*
X552664Y-508702D01*
X554118Y-511219D01*
X556173Y-513275D01*
X558690Y-514728D01*
X561498Y-515480D01*
X564405D01*
X567213Y-514728D01*
X569730Y-513275D01*
X571786Y-511219D01*
X573239Y-508702D01*
X573992Y-505894D01*
Y-502987D01*
X573239Y-500179D01*
X571786Y-497662D01*
X569730Y-495606D01*
X567213Y-494153D01*
X564405Y-493401D01*
D02*
G37*
G36*
X31453Y-493760D02*
X28547D01*
X25739Y-494512D01*
X23221Y-495966D01*
X21166Y-498021D01*
X19712Y-500539D01*
X18960Y-503347D01*
Y-506254D01*
X19712Y-509061D01*
X21166Y-511579D01*
X23221Y-513634D01*
X25739Y-515088D01*
X28547Y-515840D01*
X31453D01*
X34261Y-515088D01*
X36779Y-513634D01*
X38834Y-511579D01*
X40288Y-509061D01*
X41040Y-506254D01*
Y-503347D01*
X40288Y-500539D01*
X38834Y-498021D01*
X36779Y-495966D01*
X34261Y-494512D01*
X31453Y-493760D01*
D02*
G37*
G36*
X6053D02*
X3147D01*
X339Y-494512D01*
X-2179Y-495966D01*
X-4234Y-498021D01*
X-5688Y-500539D01*
X-6440Y-503347D01*
Y-506254D01*
X-5688Y-509061D01*
X-4234Y-511579D01*
X-2179Y-513634D01*
X339Y-515088D01*
X3147Y-515840D01*
X6053D01*
X8861Y-515088D01*
X11379Y-513634D01*
X13434Y-511579D01*
X14888Y-509061D01*
X15640Y-506254D01*
Y-503347D01*
X14888Y-500539D01*
X13434Y-498021D01*
X11379Y-495966D01*
X8861Y-494512D01*
X6053Y-493760D01*
D02*
G37*
G36*
X582480Y-519743D02*
X580674D01*
X579006Y-520434D01*
X577728Y-521711D01*
X577037Y-523380D01*
Y-525186D01*
X577728Y-526855D01*
X579006Y-528132D01*
X580674Y-528823D01*
X582480D01*
X584149Y-528132D01*
X585426Y-526855D01*
X586117Y-525186D01*
Y-523380D01*
X585426Y-521711D01*
X584149Y-520434D01*
X582480Y-519743D01*
D02*
G37*
G36*
X425903Y-520460D02*
X424097D01*
X422428Y-521151D01*
X421151Y-522428D01*
X420460Y-524097D01*
Y-525903D01*
X421151Y-527572D01*
X422428Y-528849D01*
X424097Y-529540D01*
X425903D01*
X427572Y-528849D01*
X428849Y-527572D01*
X429540Y-525903D01*
Y-524097D01*
X428849Y-522428D01*
X427572Y-521151D01*
X425903Y-520460D01*
D02*
G37*
G36*
X334856Y-496379D02*
X332515D01*
X330254Y-496985D01*
X328227Y-498156D01*
X326572Y-499811D01*
X325401Y-501838D01*
X324795Y-504099D01*
Y-506440D01*
X325401Y-508701D01*
X326572Y-510728D01*
X328227Y-512383D01*
X330254Y-513554D01*
X332515Y-514159D01*
X334856D01*
X337117Y-513554D01*
X337188Y-513512D01*
X350794Y-527118D01*
X350378Y-528672D01*
Y-531012D01*
X350984Y-533274D01*
X352154Y-535301D01*
X353810Y-536956D01*
X355837Y-538126D01*
X358098Y-538732D01*
X360438D01*
X362700Y-538126D01*
X364727Y-536956D01*
X366382Y-535301D01*
X367552Y-533274D01*
X368158Y-531012D01*
Y-528672D01*
X367552Y-526411D01*
X366382Y-524384D01*
X364727Y-522728D01*
X362700Y-521558D01*
X360438Y-520952D01*
X358098D01*
X356140Y-521477D01*
X342264Y-507601D01*
X342575Y-506440D01*
Y-504099D01*
X341970Y-501838D01*
X340799Y-499811D01*
X339144Y-498156D01*
X337117Y-496985D01*
X334856Y-496379D01*
D02*
G37*
G36*
X564405Y-518801D02*
X561498D01*
X558690Y-519553D01*
X556173Y-521006D01*
X554118Y-523062D01*
X552664Y-525579D01*
X551912Y-528387D01*
Y-531294D01*
X552664Y-534102D01*
X554118Y-536619D01*
X556173Y-538675D01*
X558690Y-540128D01*
X561498Y-540881D01*
X564405D01*
X567213Y-540128D01*
X569730Y-538675D01*
X571786Y-536619D01*
X573239Y-534102D01*
X573992Y-531294D01*
Y-528387D01*
X573239Y-525579D01*
X571786Y-523062D01*
X569730Y-521006D01*
X567213Y-519553D01*
X564405Y-518801D01*
D02*
G37*
G36*
X31453Y-519160D02*
X28547D01*
X25739Y-519912D01*
X23221Y-521366D01*
X21166Y-523421D01*
X19712Y-525939D01*
X18960Y-528747D01*
Y-531654D01*
X19712Y-534461D01*
X21166Y-536979D01*
X23221Y-539034D01*
X25739Y-540488D01*
X28547Y-541240D01*
X31453D01*
X34261Y-540488D01*
X36779Y-539034D01*
X38834Y-536979D01*
X40288Y-534461D01*
X41040Y-531654D01*
Y-528747D01*
X40288Y-525939D01*
X38834Y-523421D01*
X36779Y-521366D01*
X34261Y-519912D01*
X31453Y-519160D01*
D02*
G37*
G36*
X6053D02*
X3147D01*
X339Y-519912D01*
X-2179Y-521366D01*
X-4234Y-523421D01*
X-5688Y-525939D01*
X-6440Y-528747D01*
Y-531654D01*
X-5688Y-534461D01*
X-4234Y-536979D01*
X-2179Y-539034D01*
X339Y-540488D01*
X3147Y-541240D01*
X6053D01*
X8861Y-540488D01*
X11379Y-539034D01*
X13434Y-536979D01*
X14888Y-534461D01*
X15640Y-531654D01*
Y-528747D01*
X14888Y-525939D01*
X13434Y-523421D01*
X11379Y-521366D01*
X8861Y-519912D01*
X6053Y-519160D01*
D02*
G37*
G36*
X582480Y-544743D02*
X580674D01*
X579006Y-545434D01*
X577728Y-546711D01*
X577037Y-548380D01*
Y-550186D01*
X577728Y-551855D01*
X579006Y-553132D01*
X580674Y-553823D01*
X582480D01*
X584149Y-553132D01*
X585426Y-551855D01*
X586117Y-550186D01*
Y-548380D01*
X585426Y-546711D01*
X584149Y-545434D01*
X582480Y-544743D01*
D02*
G37*
G36*
X225903Y-545460D02*
X224097D01*
X222428Y-546151D01*
X221151Y-547428D01*
X220460Y-549097D01*
Y-550903D01*
X221151Y-552572D01*
X222428Y-553849D01*
X224097Y-554540D01*
X225903D01*
X227572Y-553849D01*
X228849Y-552572D01*
X229540Y-550903D01*
Y-549097D01*
X228849Y-547428D01*
X227572Y-546151D01*
X225903Y-545460D01*
D02*
G37*
G36*
X200903D02*
X199097D01*
X197428Y-546151D01*
X196151Y-547428D01*
X195460Y-549097D01*
Y-550903D01*
X196151Y-552572D01*
X197428Y-553849D01*
X199097Y-554540D01*
X200903D01*
X202572Y-553849D01*
X203849Y-552572D01*
X204540Y-550903D01*
Y-549097D01*
X203849Y-547428D01*
X202572Y-546151D01*
X200903Y-545460D01*
D02*
G37*
G36*
X175903D02*
X174097D01*
X172428Y-546151D01*
X171151Y-547428D01*
X170460Y-549097D01*
Y-550903D01*
X171151Y-552572D01*
X172428Y-553849D01*
X174097Y-554540D01*
X175903D01*
X177572Y-553849D01*
X178849Y-552572D01*
X179540Y-550903D01*
Y-549097D01*
X178849Y-547428D01*
X177572Y-546151D01*
X175903Y-545460D01*
D02*
G37*
G36*
X150903D02*
X149097D01*
X147428Y-546151D01*
X146151Y-547428D01*
X145460Y-549097D01*
Y-550903D01*
X146151Y-552572D01*
X147428Y-553849D01*
X149097Y-554540D01*
X150903D01*
X152572Y-553849D01*
X153849Y-552572D01*
X154540Y-550903D01*
Y-549097D01*
X153849Y-547428D01*
X152572Y-546151D01*
X150903Y-545460D01*
D02*
G37*
G36*
X125903D02*
X124097D01*
X122428Y-546151D01*
X121151Y-547428D01*
X120460Y-549097D01*
Y-550903D01*
X121151Y-552572D01*
X122428Y-553849D01*
X124097Y-554540D01*
X125903D01*
X127572Y-553849D01*
X128849Y-552572D01*
X129540Y-550903D01*
Y-549097D01*
X128849Y-547428D01*
X127572Y-546151D01*
X125903Y-545460D01*
D02*
G37*
G36*
X100903D02*
X99097D01*
X97428Y-546151D01*
X96151Y-547428D01*
X95460Y-549097D01*
Y-550903D01*
X96151Y-552572D01*
X97428Y-553849D01*
X99097Y-554540D01*
X100903D01*
X102572Y-553849D01*
X103849Y-552572D01*
X104540Y-550903D01*
Y-549097D01*
X103849Y-547428D01*
X102572Y-546151D01*
X100903Y-545460D01*
D02*
G37*
G36*
X75903D02*
X74097D01*
X72428Y-546151D01*
X71151Y-547428D01*
X70460Y-549097D01*
Y-550903D01*
X71151Y-552572D01*
X72428Y-553849D01*
X74097Y-554540D01*
X75903D01*
X77572Y-553849D01*
X78849Y-552572D01*
X79540Y-550903D01*
Y-549097D01*
X78849Y-547428D01*
X77572Y-546151D01*
X75903Y-545460D01*
D02*
G37*
G36*
X50903D02*
X49097D01*
X47428Y-546151D01*
X46151Y-547428D01*
X45460Y-549097D01*
Y-550903D01*
X46151Y-552572D01*
X47428Y-553849D01*
X49097Y-554540D01*
X50903D01*
X52572Y-553849D01*
X53849Y-552572D01*
X54540Y-550903D01*
Y-549097D01*
X53849Y-547428D01*
X52572Y-546151D01*
X50903Y-545460D01*
D02*
G37*
G36*
X564405Y-544201D02*
X561498D01*
X558690Y-544953D01*
X556173Y-546406D01*
X554118Y-548462D01*
X552664Y-550979D01*
X551912Y-553787D01*
Y-556694D01*
X552664Y-559502D01*
X554118Y-562019D01*
X556173Y-564075D01*
X558690Y-565528D01*
X561498Y-566281D01*
X564405D01*
X567213Y-565528D01*
X569730Y-564075D01*
X571786Y-562019D01*
X573239Y-559502D01*
X573992Y-556694D01*
Y-553787D01*
X573239Y-550979D01*
X571786Y-548462D01*
X569730Y-546406D01*
X567213Y-544953D01*
X564405Y-544201D01*
D02*
G37*
G36*
X31453Y-544560D02*
X28547D01*
X25739Y-545312D01*
X23221Y-546766D01*
X21166Y-548821D01*
X19712Y-551339D01*
X18960Y-554147D01*
Y-557053D01*
X19712Y-559861D01*
X21166Y-562379D01*
X23221Y-564434D01*
X25739Y-565888D01*
X28547Y-566640D01*
X31453D01*
X34261Y-565888D01*
X36779Y-564434D01*
X38834Y-562379D01*
X40288Y-559861D01*
X41040Y-557053D01*
Y-554147D01*
X40288Y-551339D01*
X38834Y-548821D01*
X36779Y-546766D01*
X34261Y-545312D01*
X31453Y-544560D01*
D02*
G37*
G36*
X575903Y-570460D02*
X574097D01*
X572428Y-571151D01*
X571151Y-572428D01*
X570460Y-574097D01*
Y-575903D01*
X571151Y-577572D01*
X572428Y-578849D01*
X574097Y-579540D01*
X575903D01*
X577572Y-578849D01*
X578849Y-577572D01*
X579540Y-575903D01*
Y-574097D01*
X578849Y-572428D01*
X577572Y-571151D01*
X575903Y-570460D01*
D02*
G37*
G36*
X550903D02*
X549097D01*
X547428Y-571151D01*
X546151Y-572428D01*
X545460Y-574097D01*
Y-575903D01*
X546151Y-577572D01*
X547428Y-578849D01*
X549097Y-579540D01*
X550903D01*
X552572Y-578849D01*
X553849Y-577572D01*
X554540Y-575903D01*
Y-574097D01*
X553849Y-572428D01*
X552572Y-571151D01*
X550903Y-570460D01*
D02*
G37*
G36*
X525903D02*
X524097D01*
X522428Y-571151D01*
X521151Y-572428D01*
X520460Y-574097D01*
Y-575903D01*
X521151Y-577572D01*
X522428Y-578849D01*
X524097Y-579540D01*
X525903D01*
X527572Y-578849D01*
X528849Y-577572D01*
X529540Y-575903D01*
Y-574097D01*
X528849Y-572428D01*
X527572Y-571151D01*
X525903Y-570460D01*
D02*
G37*
G36*
X250903D02*
X249097D01*
X247428Y-571151D01*
X246151Y-572428D01*
X245460Y-574097D01*
Y-575903D01*
X246151Y-577572D01*
X247428Y-578849D01*
X249097Y-579540D01*
X250903D01*
X252572Y-578849D01*
X253849Y-577572D01*
X254540Y-575903D01*
Y-574097D01*
X253849Y-572428D01*
X252572Y-571151D01*
X250903Y-570460D01*
D02*
G37*
G36*
X225903D02*
X224097D01*
X222428Y-571151D01*
X221151Y-572428D01*
X220460Y-574097D01*
Y-575903D01*
X221151Y-577572D01*
X222428Y-578849D01*
X224097Y-579540D01*
X225903D01*
X227572Y-578849D01*
X228849Y-577572D01*
X229540Y-575903D01*
Y-574097D01*
X228849Y-572428D01*
X227572Y-571151D01*
X225903Y-570460D01*
D02*
G37*
G36*
X200903D02*
X199097D01*
X197428Y-571151D01*
X196151Y-572428D01*
X195460Y-574097D01*
Y-575903D01*
X196151Y-577572D01*
X197428Y-578849D01*
X199097Y-579540D01*
X200903D01*
X202572Y-578849D01*
X203849Y-577572D01*
X204540Y-575903D01*
Y-574097D01*
X203849Y-572428D01*
X202572Y-571151D01*
X200903Y-570460D01*
D02*
G37*
G36*
X175903D02*
X174097D01*
X172428Y-571151D01*
X171151Y-572428D01*
X170460Y-574097D01*
Y-575903D01*
X171151Y-577572D01*
X172428Y-578849D01*
X174097Y-579540D01*
X175903D01*
X177572Y-578849D01*
X178849Y-577572D01*
X179540Y-575903D01*
Y-574097D01*
X178849Y-572428D01*
X177572Y-571151D01*
X175903Y-570460D01*
D02*
G37*
G36*
X150903D02*
X149097D01*
X147428Y-571151D01*
X146151Y-572428D01*
X145460Y-574097D01*
Y-575903D01*
X146151Y-577572D01*
X147428Y-578849D01*
X149097Y-579540D01*
X150903D01*
X152572Y-578849D01*
X153849Y-577572D01*
X154540Y-575903D01*
Y-574097D01*
X153849Y-572428D01*
X152572Y-571151D01*
X150903Y-570460D01*
D02*
G37*
G36*
X125903D02*
X124097D01*
X122428Y-571151D01*
X121151Y-572428D01*
X120460Y-574097D01*
Y-575903D01*
X121151Y-577572D01*
X122428Y-578849D01*
X124097Y-579540D01*
X125903D01*
X127572Y-578849D01*
X128849Y-577572D01*
X129540Y-575903D01*
Y-574097D01*
X128849Y-572428D01*
X127572Y-571151D01*
X125903Y-570460D01*
D02*
G37*
G36*
X100903D02*
X99097D01*
X97428Y-571151D01*
X96151Y-572428D01*
X95460Y-574097D01*
Y-575903D01*
X96151Y-577572D01*
X97428Y-578849D01*
X99097Y-579540D01*
X100903D01*
X102572Y-578849D01*
X103849Y-577572D01*
X104540Y-575903D01*
Y-574097D01*
X103849Y-572428D01*
X102572Y-571151D01*
X100903Y-570460D01*
D02*
G37*
G36*
X75903D02*
X74097D01*
X72428Y-571151D01*
X71151Y-572428D01*
X70460Y-574097D01*
Y-575903D01*
X71151Y-577572D01*
X72428Y-578849D01*
X74097Y-579540D01*
X75903D01*
X77572Y-578849D01*
X78849Y-577572D01*
X79540Y-575903D01*
Y-574097D01*
X78849Y-572428D01*
X77572Y-571151D01*
X75903Y-570460D01*
D02*
G37*
G36*
X50903D02*
X49097D01*
X47428Y-571151D01*
X46151Y-572428D01*
X45460Y-574097D01*
Y-575903D01*
X46151Y-577572D01*
X47428Y-578849D01*
X49097Y-579540D01*
X50903D01*
X52572Y-578849D01*
X53849Y-577572D01*
X54540Y-575903D01*
Y-574097D01*
X53849Y-572428D01*
X52572Y-571151D01*
X50903Y-570460D01*
D02*
G37*
G36*
X25903D02*
X24097D01*
X22428Y-571151D01*
X21151Y-572428D01*
X20460Y-574097D01*
Y-575903D01*
X21151Y-577572D01*
X22428Y-578849D01*
X24097Y-579540D01*
X25903D01*
X27572Y-578849D01*
X28849Y-577572D01*
X29540Y-575903D01*
Y-574097D01*
X28849Y-572428D01*
X27572Y-571151D01*
X25903Y-570460D01*
D02*
G37*
G36*
X575903Y-595460D02*
X574097D01*
X572428Y-596151D01*
X571151Y-597428D01*
X570460Y-599097D01*
Y-600903D01*
X571151Y-602572D01*
X572428Y-603849D01*
X574097Y-604540D01*
X575903D01*
X577572Y-603849D01*
X578849Y-602572D01*
X579540Y-600903D01*
Y-599097D01*
X578849Y-597428D01*
X577572Y-596151D01*
X575903Y-595460D01*
D02*
G37*
G36*
X550903D02*
X549097D01*
X547428Y-596151D01*
X546151Y-597428D01*
X545460Y-599097D01*
Y-600903D01*
X546151Y-602572D01*
X547428Y-603849D01*
X549097Y-604540D01*
X550903D01*
X552572Y-603849D01*
X553849Y-602572D01*
X554540Y-600903D01*
Y-599097D01*
X553849Y-597428D01*
X552572Y-596151D01*
X550903Y-595460D01*
D02*
G37*
G36*
X525903D02*
X524097D01*
X522428Y-596151D01*
X521151Y-597428D01*
X520460Y-599097D01*
Y-600903D01*
X521151Y-602572D01*
X522428Y-603849D01*
X524097Y-604540D01*
X525903D01*
X527572Y-603849D01*
X528849Y-602572D01*
X529540Y-600903D01*
Y-599097D01*
X528849Y-597428D01*
X527572Y-596151D01*
X525903Y-595460D01*
D02*
G37*
G36*
X275903D02*
X274097D01*
X272428Y-596151D01*
X271151Y-597428D01*
X270460Y-599097D01*
Y-600903D01*
X271151Y-602572D01*
X272428Y-603849D01*
X274097Y-604540D01*
X275903D01*
X277572Y-603849D01*
X278849Y-602572D01*
X279540Y-600903D01*
Y-599097D01*
X278849Y-597428D01*
X277572Y-596151D01*
X275903Y-595460D01*
D02*
G37*
G36*
X250903D02*
X249097D01*
X247428Y-596151D01*
X246151Y-597428D01*
X245460Y-599097D01*
Y-600903D01*
X246151Y-602572D01*
X247428Y-603849D01*
X249097Y-604540D01*
X250903D01*
X252572Y-603849D01*
X253849Y-602572D01*
X254540Y-600903D01*
Y-599097D01*
X253849Y-597428D01*
X252572Y-596151D01*
X250903Y-595460D01*
D02*
G37*
G36*
X225903D02*
X224097D01*
X222428Y-596151D01*
X221151Y-597428D01*
X220460Y-599097D01*
Y-600903D01*
X221151Y-602572D01*
X222428Y-603849D01*
X224097Y-604540D01*
X225903D01*
X227572Y-603849D01*
X228849Y-602572D01*
X229540Y-600903D01*
Y-599097D01*
X228849Y-597428D01*
X227572Y-596151D01*
X225903Y-595460D01*
D02*
G37*
G36*
X200903D02*
X199097D01*
X197428Y-596151D01*
X196151Y-597428D01*
X195460Y-599097D01*
Y-600903D01*
X196151Y-602572D01*
X197428Y-603849D01*
X199097Y-604540D01*
X200903D01*
X202572Y-603849D01*
X203849Y-602572D01*
X204540Y-600903D01*
Y-599097D01*
X203849Y-597428D01*
X202572Y-596151D01*
X200903Y-595460D01*
D02*
G37*
G36*
X175903D02*
X174097D01*
X172428Y-596151D01*
X171151Y-597428D01*
X170460Y-599097D01*
Y-600903D01*
X171151Y-602572D01*
X172428Y-603849D01*
X174097Y-604540D01*
X175903D01*
X177572Y-603849D01*
X178849Y-602572D01*
X179540Y-600903D01*
Y-599097D01*
X178849Y-597428D01*
X177572Y-596151D01*
X175903Y-595460D01*
D02*
G37*
G36*
X150903D02*
X149097D01*
X147428Y-596151D01*
X146151Y-597428D01*
X145460Y-599097D01*
Y-600903D01*
X146151Y-602572D01*
X147428Y-603849D01*
X149097Y-604540D01*
X150903D01*
X152572Y-603849D01*
X153849Y-602572D01*
X154540Y-600903D01*
Y-599097D01*
X153849Y-597428D01*
X152572Y-596151D01*
X150903Y-595460D01*
D02*
G37*
G36*
X125903D02*
X124097D01*
X122428Y-596151D01*
X121151Y-597428D01*
X120460Y-599097D01*
Y-600903D01*
X121151Y-602572D01*
X122428Y-603849D01*
X124097Y-604540D01*
X125903D01*
X127572Y-603849D01*
X128849Y-602572D01*
X129540Y-600903D01*
Y-599097D01*
X128849Y-597428D01*
X127572Y-596151D01*
X125903Y-595460D01*
D02*
G37*
G36*
X100903D02*
X99097D01*
X97428Y-596151D01*
X96151Y-597428D01*
X95460Y-599097D01*
Y-600903D01*
X96151Y-602572D01*
X97428Y-603849D01*
X99097Y-604540D01*
X100903D01*
X102572Y-603849D01*
X103849Y-602572D01*
X104540Y-600903D01*
Y-599097D01*
X103849Y-597428D01*
X102572Y-596151D01*
X100903Y-595460D01*
D02*
G37*
G36*
X75903D02*
X74097D01*
X72428Y-596151D01*
X71151Y-597428D01*
X70460Y-599097D01*
Y-600903D01*
X71151Y-602572D01*
X72428Y-603849D01*
X74097Y-604540D01*
X75903D01*
X77572Y-603849D01*
X78849Y-602572D01*
X79540Y-600903D01*
Y-599097D01*
X78849Y-597428D01*
X77572Y-596151D01*
X75903Y-595460D01*
D02*
G37*
G36*
X50903D02*
X49097D01*
X47428Y-596151D01*
X46151Y-597428D01*
X45460Y-599097D01*
Y-600903D01*
X46151Y-602572D01*
X47428Y-603849D01*
X49097Y-604540D01*
X50903D01*
X52572Y-603849D01*
X53849Y-602572D01*
X54540Y-600903D01*
Y-599097D01*
X53849Y-597428D01*
X52572Y-596151D01*
X50903Y-595460D01*
D02*
G37*
G36*
X249853Y-616338D02*
X248047D01*
X246378Y-617029D01*
X245101Y-618306D01*
X244410Y-619975D01*
Y-621781D01*
X245101Y-623449D01*
X246378Y-624726D01*
X248047Y-625418D01*
X249853D01*
X251522Y-624726D01*
X252799Y-623449D01*
X253490Y-621781D01*
Y-619975D01*
X252799Y-618306D01*
X251522Y-617029D01*
X249853Y-616338D01*
D02*
G37*
G36*
X224853D02*
X223047D01*
X221378Y-617029D01*
X220101Y-618306D01*
X219410Y-619975D01*
Y-621781D01*
X220101Y-623449D01*
X221378Y-624726D01*
X223047Y-625418D01*
X224853D01*
X226522Y-624726D01*
X227799Y-623449D01*
X228490Y-621781D01*
Y-619975D01*
X227799Y-618306D01*
X226522Y-617029D01*
X224853Y-616338D01*
D02*
G37*
G36*
X199853D02*
X198047D01*
X196378Y-617029D01*
X195101Y-618306D01*
X194410Y-619975D01*
Y-621781D01*
X195101Y-623449D01*
X196378Y-624726D01*
X198047Y-625418D01*
X199853D01*
X201522Y-624726D01*
X202799Y-623449D01*
X203490Y-621781D01*
Y-619975D01*
X202799Y-618306D01*
X201522Y-617029D01*
X199853Y-616338D01*
D02*
G37*
G36*
X174853D02*
X173047D01*
X171378Y-617029D01*
X170101Y-618306D01*
X169410Y-619975D01*
Y-621781D01*
X170101Y-623449D01*
X171378Y-624726D01*
X173047Y-625418D01*
X174853D01*
X176522Y-624726D01*
X177799Y-623449D01*
X178490Y-621781D01*
Y-619975D01*
X177799Y-618306D01*
X176522Y-617029D01*
X174853Y-616338D01*
D02*
G37*
G36*
X149853D02*
X148047D01*
X146378Y-617029D01*
X145101Y-618306D01*
X144410Y-619975D01*
Y-621781D01*
X145101Y-623449D01*
X146378Y-624726D01*
X148047Y-625418D01*
X149853D01*
X151522Y-624726D01*
X152799Y-623449D01*
X153490Y-621781D01*
Y-619975D01*
X152799Y-618306D01*
X151522Y-617029D01*
X149853Y-616338D01*
D02*
G37*
G36*
X124853D02*
X123047D01*
X121378Y-617029D01*
X120101Y-618306D01*
X119410Y-619975D01*
Y-621781D01*
X120101Y-623449D01*
X121378Y-624726D01*
X123047Y-625418D01*
X124853D01*
X126522Y-624726D01*
X127799Y-623449D01*
X128490Y-621781D01*
Y-619975D01*
X127799Y-618306D01*
X126522Y-617029D01*
X124853Y-616338D01*
D02*
G37*
G36*
X99853D02*
X98047D01*
X96378Y-617029D01*
X95101Y-618306D01*
X94410Y-619975D01*
Y-621781D01*
X95101Y-623449D01*
X96378Y-624726D01*
X98047Y-625418D01*
X99853D01*
X101522Y-624726D01*
X102799Y-623449D01*
X103490Y-621781D01*
Y-619975D01*
X102799Y-618306D01*
X101522Y-617029D01*
X99853Y-616338D01*
D02*
G37*
G36*
X74853D02*
X73047D01*
X71378Y-617029D01*
X70101Y-618306D01*
X69410Y-619975D01*
Y-621781D01*
X70101Y-623449D01*
X71378Y-624726D01*
X73047Y-625418D01*
X74853D01*
X76522Y-624726D01*
X77799Y-623449D01*
X78490Y-621781D01*
Y-619975D01*
X77799Y-618306D01*
X76522Y-617029D01*
X74853Y-616338D01*
D02*
G37*
G36*
X49853D02*
X48047D01*
X46378Y-617029D01*
X45101Y-618306D01*
X44410Y-619975D01*
Y-621781D01*
X45101Y-623449D01*
X46378Y-624726D01*
X48047Y-625418D01*
X49853D01*
X51522Y-624726D01*
X52799Y-623449D01*
X53490Y-621781D01*
Y-619975D01*
X52799Y-618306D01*
X51522Y-617029D01*
X49853Y-616338D01*
D02*
G37*
G36*
X575903Y-620460D02*
X574097D01*
X572428Y-621151D01*
X571151Y-622428D01*
X570460Y-624097D01*
Y-625903D01*
X571151Y-627572D01*
X572428Y-628849D01*
X574097Y-629540D01*
X575903D01*
X577572Y-628849D01*
X578849Y-627572D01*
X579540Y-625903D01*
Y-624097D01*
X578849Y-622428D01*
X577572Y-621151D01*
X575903Y-620460D01*
D02*
G37*
G36*
X550903D02*
X549097D01*
X547428Y-621151D01*
X546151Y-622428D01*
X545460Y-624097D01*
Y-625903D01*
X546151Y-627572D01*
X547428Y-628849D01*
X549097Y-629540D01*
X550903D01*
X552572Y-628849D01*
X553849Y-627572D01*
X554540Y-625903D01*
Y-624097D01*
X553849Y-622428D01*
X552572Y-621151D01*
X550903Y-620460D01*
D02*
G37*
G36*
X903D02*
X-903D01*
X-2572Y-621151D01*
X-3849Y-622428D01*
X-4540Y-624097D01*
Y-625903D01*
X-3849Y-627572D01*
X-2572Y-628849D01*
X-903Y-629540D01*
X903D01*
X2572Y-628849D01*
X3849Y-627572D01*
X4540Y-625903D01*
Y-624097D01*
X3849Y-622428D01*
X2572Y-621151D01*
X903Y-620460D01*
D02*
G37*
G36*
X528453Y-618960D02*
X525546D01*
X522739Y-619712D01*
X520221Y-621166D01*
X518166Y-623221D01*
X516712Y-625739D01*
X515960Y-628547D01*
Y-631453D01*
X516712Y-634261D01*
X518166Y-636779D01*
X520221Y-638834D01*
X522739Y-640288D01*
X525546Y-641040D01*
X528453D01*
X531261Y-640288D01*
X533779Y-638834D01*
X535834Y-636779D01*
X537288Y-634261D01*
X538040Y-631453D01*
Y-628547D01*
X537288Y-625739D01*
X535834Y-623221D01*
X533779Y-621166D01*
X531261Y-619712D01*
X528453Y-618960D01*
D02*
G37*
G36*
X503053D02*
X500146D01*
X497339Y-619712D01*
X494821Y-621166D01*
X492766Y-623221D01*
X491312Y-625739D01*
X490560Y-628547D01*
Y-631453D01*
X491312Y-634261D01*
X492766Y-636779D01*
X494821Y-638834D01*
X497339Y-640288D01*
X500146Y-641040D01*
X503053D01*
X505861Y-640288D01*
X508379Y-638834D01*
X510434Y-636779D01*
X511888Y-634261D01*
X512640Y-631453D01*
Y-628547D01*
X511888Y-625739D01*
X510434Y-623221D01*
X508379Y-621166D01*
X505861Y-619712D01*
X503053Y-618960D01*
D02*
G37*
G36*
X431146Y-290359D02*
X428805D01*
X426544Y-290965D01*
X424517Y-292136D01*
X422862Y-293791D01*
X421691Y-295818D01*
X421086Y-298079D01*
Y-300420D01*
X421691Y-302681D01*
X422862Y-304708D01*
X424517Y-306363D01*
X426544Y-307533D01*
X428805Y-308139D01*
X431146D01*
X432329Y-307822D01*
X472288Y-347782D01*
Y-619619D01*
X471939Y-619712D01*
X469421Y-621166D01*
X467366Y-623221D01*
X465912Y-625739D01*
X465160Y-628547D01*
Y-631453D01*
X465912Y-634261D01*
X467366Y-636779D01*
X469421Y-638834D01*
X471939Y-640288D01*
X474747Y-641040D01*
X477653D01*
X480461Y-640288D01*
X482979Y-638834D01*
X485034Y-636779D01*
X486488Y-634261D01*
X487240Y-631453D01*
Y-628547D01*
X486488Y-625739D01*
X485034Y-623221D01*
X482979Y-621166D01*
X480461Y-619712D01*
X480057Y-619604D01*
Y-346172D01*
X479762Y-344686D01*
X478919Y-343426D01*
X438228Y-302735D01*
X438260Y-302681D01*
X438866Y-300420D01*
Y-298079D01*
X438260Y-295818D01*
X437089Y-293791D01*
X435434Y-292136D01*
X433407Y-290965D01*
X431146Y-290359D01*
D02*
G37*
G36*
X452253Y-618960D02*
X449347D01*
X446539Y-619712D01*
X444021Y-621166D01*
X441966Y-623221D01*
X440512Y-625739D01*
X439760Y-628547D01*
Y-631453D01*
X440512Y-634261D01*
X441966Y-636779D01*
X444021Y-638834D01*
X446539Y-640288D01*
X449347Y-641040D01*
X452253D01*
X455061Y-640288D01*
X457579Y-638834D01*
X459634Y-636779D01*
X461088Y-634261D01*
X461840Y-631453D01*
Y-628547D01*
X461088Y-625739D01*
X459634Y-623221D01*
X457579Y-621166D01*
X455061Y-619712D01*
X452253Y-618960D01*
D02*
G37*
G36*
X426853D02*
X423946D01*
X421139Y-619712D01*
X418621Y-621166D01*
X416566Y-623221D01*
X415112Y-625739D01*
X414360Y-628547D01*
Y-631453D01*
X415112Y-634261D01*
X416566Y-636779D01*
X418621Y-638834D01*
X421139Y-640288D01*
X423946Y-641040D01*
X426853D01*
X429661Y-640288D01*
X432179Y-638834D01*
X434234Y-636779D01*
X435688Y-634261D01*
X436440Y-631453D01*
Y-628547D01*
X435688Y-625739D01*
X434234Y-623221D01*
X432179Y-621166D01*
X429661Y-619712D01*
X426853Y-618960D01*
D02*
G37*
G36*
X361296Y-127559D02*
X358955D01*
X356694Y-128165D01*
X354667Y-129335D01*
X353012Y-130991D01*
X351841Y-133018D01*
X351235Y-135279D01*
Y-137620D01*
X351841Y-139881D01*
X353012Y-141908D01*
X354667Y-143563D01*
X356694Y-144733D01*
X358955Y-145339D01*
X361296D01*
X363051Y-144869D01*
X376437Y-158255D01*
X376083Y-159557D01*
X375296Y-160706D01*
X373430D01*
X371169Y-161311D01*
X369141Y-162482D01*
X367486Y-164137D01*
X366316Y-166164D01*
X365710Y-168425D01*
Y-170766D01*
X366316Y-173027D01*
X367486Y-175054D01*
X369141Y-176709D01*
X370715Y-177618D01*
Y-619612D01*
X370339Y-619712D01*
X367821Y-621166D01*
X365766Y-623221D01*
X364312Y-625739D01*
X363560Y-628547D01*
Y-631453D01*
X364312Y-634261D01*
X365766Y-636779D01*
X367821Y-638834D01*
X370339Y-640288D01*
X373147Y-641040D01*
X376053D01*
X378861Y-640288D01*
X379524Y-639905D01*
X379563Y-639901D01*
X382215Y-641284D01*
X382295Y-642212D01*
X379199Y-645307D01*
X378861Y-645112D01*
X376053Y-644360D01*
X373147D01*
X370339Y-645112D01*
X367821Y-646566D01*
X365766Y-648621D01*
X364312Y-651139D01*
X363560Y-653947D01*
Y-656853D01*
X364312Y-659661D01*
X365766Y-662179D01*
X367821Y-664234D01*
X370339Y-665688D01*
X373147Y-666440D01*
X376053D01*
X378861Y-665688D01*
X381379Y-664234D01*
X383434Y-662179D01*
X384888Y-659661D01*
X385640Y-656853D01*
Y-653947D01*
X384888Y-651139D01*
X384693Y-650801D01*
X390345Y-645148D01*
X391188Y-643888D01*
X391483Y-642401D01*
Y-640424D01*
X394023Y-639297D01*
X395739Y-640288D01*
X398546Y-641040D01*
X401453D01*
X404261Y-640288D01*
X406779Y-638834D01*
X408834Y-636779D01*
X410288Y-634261D01*
X411040Y-631453D01*
Y-628547D01*
X410288Y-625739D01*
X408834Y-623221D01*
X406779Y-621166D01*
X404261Y-619712D01*
X401453Y-618960D01*
X398546D01*
X395739Y-619712D01*
X394023Y-620703D01*
X391483Y-619576D01*
Y-163923D01*
X391188Y-162436D01*
X390345Y-161176D01*
X368545Y-139375D01*
X369015Y-137620D01*
Y-135279D01*
X368409Y-133018D01*
X367239Y-130991D01*
X365584Y-129335D01*
X363557Y-128165D01*
X361296Y-127559D01*
D02*
G37*
G36*
X575903Y-645460D02*
X574097D01*
X572428Y-646151D01*
X571151Y-647428D01*
X570460Y-649097D01*
Y-650903D01*
X571151Y-652572D01*
X572428Y-653849D01*
X574097Y-654540D01*
X575903D01*
X577572Y-653849D01*
X578849Y-652572D01*
X579540Y-650903D01*
Y-649097D01*
X578849Y-647428D01*
X577572Y-646151D01*
X575903Y-645460D01*
D02*
G37*
G36*
X550903D02*
X549097D01*
X547428Y-646151D01*
X546151Y-647428D01*
X545460Y-649097D01*
Y-650903D01*
X546151Y-652572D01*
X547428Y-653849D01*
X549097Y-654540D01*
X550903D01*
X552572Y-653849D01*
X553849Y-652572D01*
X554540Y-650903D01*
Y-649097D01*
X553849Y-647428D01*
X552572Y-646151D01*
X550903Y-645460D01*
D02*
G37*
G36*
X25903D02*
X24097D01*
X22428Y-646151D01*
X21151Y-647428D01*
X20460Y-649097D01*
Y-650903D01*
X21151Y-652572D01*
X22428Y-653849D01*
X24097Y-654540D01*
X25903D01*
X27572Y-653849D01*
X28849Y-652572D01*
X29540Y-650903D01*
Y-649097D01*
X28849Y-647428D01*
X27572Y-646151D01*
X25903Y-645460D01*
D02*
G37*
G36*
X903D02*
X-903D01*
X-2572Y-646151D01*
X-3849Y-647428D01*
X-4540Y-649097D01*
Y-650903D01*
X-3849Y-652572D01*
X-2572Y-653849D01*
X-903Y-654540D01*
X903D01*
X2572Y-653849D01*
X3849Y-652572D01*
X4540Y-650903D01*
Y-649097D01*
X3849Y-647428D01*
X2572Y-646151D01*
X903Y-645460D01*
D02*
G37*
G36*
X528453Y-644360D02*
X525546D01*
X522739Y-645112D01*
X520221Y-646566D01*
X518166Y-648621D01*
X516712Y-651139D01*
X515960Y-653947D01*
Y-656853D01*
X516712Y-659661D01*
X518166Y-662179D01*
X520221Y-664234D01*
X522739Y-665688D01*
X525546Y-666440D01*
X528453D01*
X531261Y-665688D01*
X533779Y-664234D01*
X535834Y-662179D01*
X537288Y-659661D01*
X538040Y-656853D01*
Y-653947D01*
X537288Y-651139D01*
X535834Y-648621D01*
X533779Y-646566D01*
X531261Y-645112D01*
X528453Y-644360D01*
D02*
G37*
G36*
X503053D02*
X500146D01*
X497339Y-645112D01*
X494821Y-646566D01*
X492766Y-648621D01*
X491312Y-651139D01*
X490560Y-653947D01*
Y-656853D01*
X491312Y-659661D01*
X492766Y-662179D01*
X494821Y-664234D01*
X497339Y-665688D01*
X500146Y-666440D01*
X503053D01*
X505861Y-665688D01*
X508379Y-664234D01*
X510434Y-662179D01*
X511888Y-659661D01*
X512640Y-656853D01*
Y-653947D01*
X511888Y-651139D01*
X510434Y-648621D01*
X508379Y-646566D01*
X505861Y-645112D01*
X503053Y-644360D01*
D02*
G37*
G36*
X477653D02*
X474747D01*
X471939Y-645112D01*
X469421Y-646566D01*
X467366Y-648621D01*
X465912Y-651139D01*
X465160Y-653947D01*
Y-656853D01*
X465912Y-659661D01*
X467366Y-662179D01*
X469421Y-664234D01*
X471939Y-665688D01*
X474747Y-666440D01*
X477653D01*
X480461Y-665688D01*
X482979Y-664234D01*
X485034Y-662179D01*
X486488Y-659661D01*
X487240Y-656853D01*
Y-653947D01*
X486488Y-651139D01*
X485034Y-648621D01*
X482979Y-646566D01*
X480461Y-645112D01*
X477653Y-644360D01*
D02*
G37*
G36*
X452253D02*
X449347D01*
X446539Y-645112D01*
X444021Y-646566D01*
X441966Y-648621D01*
X440512Y-651139D01*
X439760Y-653947D01*
Y-656853D01*
X440512Y-659661D01*
X441966Y-662179D01*
X444021Y-664234D01*
X446539Y-665688D01*
X449347Y-666440D01*
X452253D01*
X455061Y-665688D01*
X457579Y-664234D01*
X459634Y-662179D01*
X461088Y-659661D01*
X461840Y-656853D01*
Y-653947D01*
X461088Y-651139D01*
X459634Y-648621D01*
X457579Y-646566D01*
X455061Y-645112D01*
X452253Y-644360D01*
D02*
G37*
G36*
X426853D02*
X423946D01*
X421139Y-645112D01*
X418621Y-646566D01*
X416566Y-648621D01*
X415112Y-651139D01*
X414360Y-653947D01*
Y-656853D01*
X415112Y-659661D01*
X416566Y-662179D01*
X418621Y-664234D01*
X421139Y-665688D01*
X423946Y-666440D01*
X426853D01*
X429661Y-665688D01*
X432179Y-664234D01*
X434234Y-662179D01*
X435688Y-659661D01*
X436440Y-656853D01*
Y-653947D01*
X435688Y-651139D01*
X434234Y-648621D01*
X432179Y-646566D01*
X429661Y-645112D01*
X426853Y-644360D01*
D02*
G37*
G36*
X401453D02*
X398546D01*
X395739Y-645112D01*
X393221Y-646566D01*
X391166Y-648621D01*
X389712Y-651139D01*
X388960Y-653947D01*
Y-656853D01*
X389712Y-659661D01*
X391166Y-662179D01*
X393221Y-664234D01*
X395739Y-665688D01*
X398546Y-666440D01*
X401453D01*
X404261Y-665688D01*
X406779Y-664234D01*
X408834Y-662179D01*
X410288Y-659661D01*
X411040Y-656853D01*
Y-653947D01*
X410288Y-651139D01*
X408834Y-648621D01*
X406779Y-646566D01*
X404261Y-645112D01*
X401453Y-644360D01*
D02*
G37*
G36*
X575903Y-670460D02*
X574097D01*
X572428Y-671151D01*
X571151Y-672428D01*
X570460Y-674097D01*
Y-675903D01*
X571151Y-677572D01*
X572428Y-678849D01*
X574097Y-679540D01*
X575903D01*
X577572Y-678849D01*
X578849Y-677572D01*
X579540Y-675903D01*
Y-674097D01*
X578849Y-672428D01*
X577572Y-671151D01*
X575903Y-670460D01*
D02*
G37*
G36*
X550903D02*
X549097D01*
X547428Y-671151D01*
X546151Y-672428D01*
X545460Y-674097D01*
Y-675903D01*
X546151Y-677572D01*
X547428Y-678849D01*
X549097Y-679540D01*
X550903D01*
X552572Y-678849D01*
X553849Y-677572D01*
X554540Y-675903D01*
Y-674097D01*
X553849Y-672428D01*
X552572Y-671151D01*
X550903Y-670460D01*
D02*
G37*
G36*
X525903D02*
X524097D01*
X522428Y-671151D01*
X521151Y-672428D01*
X520460Y-674097D01*
Y-675903D01*
X521151Y-677572D01*
X522428Y-678849D01*
X524097Y-679540D01*
X525903D01*
X527572Y-678849D01*
X528849Y-677572D01*
X529540Y-675903D01*
Y-674097D01*
X528849Y-672428D01*
X527572Y-671151D01*
X525903Y-670460D01*
D02*
G37*
G36*
X500903D02*
X499097D01*
X497428Y-671151D01*
X496151Y-672428D01*
X495460Y-674097D01*
Y-675903D01*
X496151Y-677572D01*
X497428Y-678849D01*
X499097Y-679540D01*
X500903D01*
X502572Y-678849D01*
X503849Y-677572D01*
X504540Y-675903D01*
Y-674097D01*
X503849Y-672428D01*
X502572Y-671151D01*
X500903Y-670460D01*
D02*
G37*
G36*
X475903D02*
X474097D01*
X472428Y-671151D01*
X471151Y-672428D01*
X470460Y-674097D01*
Y-675903D01*
X471151Y-677572D01*
X472428Y-678849D01*
X474097Y-679540D01*
X475903D01*
X477572Y-678849D01*
X478849Y-677572D01*
X479540Y-675903D01*
Y-674097D01*
X478849Y-672428D01*
X477572Y-671151D01*
X475903Y-670460D01*
D02*
G37*
G36*
X450903D02*
X449097D01*
X447428Y-671151D01*
X446151Y-672428D01*
X445460Y-674097D01*
Y-675903D01*
X446151Y-677572D01*
X447428Y-678849D01*
X449097Y-679540D01*
X450903D01*
X452572Y-678849D01*
X453849Y-677572D01*
X454540Y-675903D01*
Y-674097D01*
X453849Y-672428D01*
X452572Y-671151D01*
X450903Y-670460D01*
D02*
G37*
G36*
X425903D02*
X424097D01*
X422428Y-671151D01*
X421151Y-672428D01*
X420460Y-674097D01*
Y-675903D01*
X421151Y-677572D01*
X422428Y-678849D01*
X424097Y-679540D01*
X425903D01*
X427572Y-678849D01*
X428849Y-677572D01*
X429540Y-675903D01*
Y-674097D01*
X428849Y-672428D01*
X427572Y-671151D01*
X425903Y-670460D01*
D02*
G37*
G36*
X400903D02*
X399097D01*
X397428Y-671151D01*
X396151Y-672428D01*
X395460Y-674097D01*
Y-675903D01*
X396151Y-677572D01*
X397428Y-678849D01*
X399097Y-679540D01*
X400903D01*
X402572Y-678849D01*
X403849Y-677572D01*
X404540Y-675903D01*
Y-674097D01*
X403849Y-672428D01*
X402572Y-671151D01*
X400903Y-670460D01*
D02*
G37*
G36*
X375903D02*
X374097D01*
X372428Y-671151D01*
X371151Y-672428D01*
X370460Y-674097D01*
Y-675903D01*
X371151Y-677572D01*
X372428Y-678849D01*
X374097Y-679540D01*
X375903D01*
X377572Y-678849D01*
X378849Y-677572D01*
X379540Y-675903D01*
Y-674097D01*
X378849Y-672428D01*
X377572Y-671151D01*
X375903Y-670460D01*
D02*
G37*
G36*
X350903D02*
X349097D01*
X347428Y-671151D01*
X346151Y-672428D01*
X345460Y-674097D01*
Y-675903D01*
X346151Y-677572D01*
X347428Y-678849D01*
X349097Y-679540D01*
X350903D01*
X352572Y-678849D01*
X353849Y-677572D01*
X354540Y-675903D01*
Y-674097D01*
X353849Y-672428D01*
X352572Y-671151D01*
X350903Y-670460D01*
D02*
G37*
G36*
X325903D02*
X324097D01*
X322428Y-671151D01*
X321151Y-672428D01*
X320460Y-674097D01*
Y-675903D01*
X321151Y-677572D01*
X322428Y-678849D01*
X324097Y-679540D01*
X325903D01*
X327572Y-678849D01*
X328849Y-677572D01*
X329540Y-675903D01*
Y-674097D01*
X328849Y-672428D01*
X327572Y-671151D01*
X325903Y-670460D01*
D02*
G37*
G36*
X300903D02*
X299097D01*
X297428Y-671151D01*
X296151Y-672428D01*
X295460Y-674097D01*
Y-675903D01*
X296151Y-677572D01*
X297428Y-678849D01*
X299097Y-679540D01*
X300903D01*
X302572Y-678849D01*
X303849Y-677572D01*
X304540Y-675903D01*
Y-674097D01*
X303849Y-672428D01*
X302572Y-671151D01*
X300903Y-670460D01*
D02*
G37*
G36*
X275903D02*
X274097D01*
X272428Y-671151D01*
X271151Y-672428D01*
X270460Y-674097D01*
Y-675903D01*
X271151Y-677572D01*
X272428Y-678849D01*
X274097Y-679540D01*
X275903D01*
X277572Y-678849D01*
X278849Y-677572D01*
X279540Y-675903D01*
Y-674097D01*
X278849Y-672428D01*
X277572Y-671151D01*
X275903Y-670460D01*
D02*
G37*
G36*
X250903D02*
X249097D01*
X247428Y-671151D01*
X246151Y-672428D01*
X245460Y-674097D01*
Y-675903D01*
X246151Y-677572D01*
X247428Y-678849D01*
X249097Y-679540D01*
X250903D01*
X252572Y-678849D01*
X253849Y-677572D01*
X254540Y-675903D01*
Y-674097D01*
X253849Y-672428D01*
X252572Y-671151D01*
X250903Y-670460D01*
D02*
G37*
G36*
X225903D02*
X224097D01*
X222428Y-671151D01*
X221151Y-672428D01*
X220460Y-674097D01*
Y-675903D01*
X221151Y-677572D01*
X222428Y-678849D01*
X224097Y-679540D01*
X225903D01*
X227572Y-678849D01*
X228849Y-677572D01*
X229540Y-675903D01*
Y-674097D01*
X228849Y-672428D01*
X227572Y-671151D01*
X225903Y-670460D01*
D02*
G37*
G36*
X200903D02*
X199097D01*
X197428Y-671151D01*
X196151Y-672428D01*
X195460Y-674097D01*
Y-675903D01*
X196151Y-677572D01*
X197428Y-678849D01*
X199097Y-679540D01*
X200903D01*
X202572Y-678849D01*
X203849Y-677572D01*
X204540Y-675903D01*
Y-674097D01*
X203849Y-672428D01*
X202572Y-671151D01*
X200903Y-670460D01*
D02*
G37*
G36*
X175903D02*
X174097D01*
X172428Y-671151D01*
X171151Y-672428D01*
X170460Y-674097D01*
Y-675903D01*
X171151Y-677572D01*
X172428Y-678849D01*
X174097Y-679540D01*
X175903D01*
X177572Y-678849D01*
X178849Y-677572D01*
X179540Y-675903D01*
Y-674097D01*
X178849Y-672428D01*
X177572Y-671151D01*
X175903Y-670460D01*
D02*
G37*
G36*
X150903D02*
X149097D01*
X147428Y-671151D01*
X146151Y-672428D01*
X145460Y-674097D01*
Y-675903D01*
X146151Y-677572D01*
X147428Y-678849D01*
X149097Y-679540D01*
X150903D01*
X152572Y-678849D01*
X153849Y-677572D01*
X154540Y-675903D01*
Y-674097D01*
X153849Y-672428D01*
X152572Y-671151D01*
X150903Y-670460D01*
D02*
G37*
G36*
X125903D02*
X124097D01*
X122428Y-671151D01*
X121151Y-672428D01*
X120460Y-674097D01*
Y-675903D01*
X121151Y-677572D01*
X122428Y-678849D01*
X124097Y-679540D01*
X125903D01*
X127572Y-678849D01*
X128849Y-677572D01*
X129540Y-675903D01*
Y-674097D01*
X128849Y-672428D01*
X127572Y-671151D01*
X125903Y-670460D01*
D02*
G37*
G36*
X100903D02*
X99097D01*
X97428Y-671151D01*
X96151Y-672428D01*
X95460Y-674097D01*
Y-675903D01*
X96151Y-677572D01*
X97428Y-678849D01*
X99097Y-679540D01*
X100903D01*
X102572Y-678849D01*
X103849Y-677572D01*
X104540Y-675903D01*
Y-674097D01*
X103849Y-672428D01*
X102572Y-671151D01*
X100903Y-670460D01*
D02*
G37*
G36*
X75903D02*
X74097D01*
X72428Y-671151D01*
X71151Y-672428D01*
X70460Y-674097D01*
Y-675903D01*
X71151Y-677572D01*
X72428Y-678849D01*
X74097Y-679540D01*
X75903D01*
X77572Y-678849D01*
X78849Y-677572D01*
X79540Y-675903D01*
Y-674097D01*
X78849Y-672428D01*
X77572Y-671151D01*
X75903Y-670460D01*
D02*
G37*
G36*
X50903D02*
X49097D01*
X47428Y-671151D01*
X46151Y-672428D01*
X45460Y-674097D01*
Y-675903D01*
X46151Y-677572D01*
X47428Y-678849D01*
X49097Y-679540D01*
X50903D01*
X52572Y-678849D01*
X53849Y-677572D01*
X54540Y-675903D01*
Y-674097D01*
X53849Y-672428D01*
X52572Y-671151D01*
X50903Y-670460D01*
D02*
G37*
G36*
X25903D02*
X24097D01*
X22428Y-671151D01*
X21151Y-672428D01*
X20460Y-674097D01*
Y-675903D01*
X21151Y-677572D01*
X22428Y-678849D01*
X24097Y-679540D01*
X25903D01*
X27572Y-678849D01*
X28849Y-677572D01*
X29540Y-675903D01*
Y-674097D01*
X28849Y-672428D01*
X27572Y-671151D01*
X25903Y-670460D01*
D02*
G37*
G36*
X903D02*
X-903D01*
X-2572Y-671151D01*
X-3849Y-672428D01*
X-4540Y-674097D01*
Y-675903D01*
X-3849Y-677572D01*
X-2572Y-678849D01*
X-903Y-679540D01*
X903D01*
X2572Y-678849D01*
X3849Y-677572D01*
X4540Y-675903D01*
Y-674097D01*
X3849Y-672428D01*
X2572Y-671151D01*
X903Y-670460D01*
D02*
G37*
%LPD*%
D11*
X336108Y-630234D02*
G03*
X336090Y-629295I-12308J234D01*
G01*
X335180Y-575180D02*
X335924Y-575924D01*
X336668Y-642728D02*
X349302Y-655362D01*
X335924Y-626407D02*
X336090Y-629295D01*
X335924Y-641984D02*
Y-639880D01*
X268380Y-508380D02*
X335180Y-575180D01*
X335924Y-626407D02*
Y-575924D01*
X335924Y-639880D02*
X336108Y-630234D01*
X335924Y-641984D02*
X336668Y-642728D01*
X387599Y-642401D02*
Y-163923D01*
X374600Y-655400D02*
X387599Y-642401D01*
X360125Y-136449D02*
X387599Y-163923D01*
X374600Y-630000D02*
Y-169596D01*
X476172Y-629973D02*
Y-346172D01*
X430000Y-300000D02*
X476172Y-346172D01*
X450799Y-491465D02*
Y-427115D01*
X450181Y-426497D02*
X450799Y-427115D01*
X358489Y-530149D02*
Y-529319D01*
X334800Y-505630D02*
Y-504800D01*
X349200Y-630000D02*
Y-576376D01*
X280000Y-507176D02*
X349200Y-576376D01*
X280000Y-507176D02*
Y-230000D01*
X39254Y-9254D02*
X268380Y-238380D01*
Y-508380D02*
Y-238380D01*
X323800Y-630000D02*
Y-603800D01*
X311365Y-642965D02*
X323800Y-655400D01*
X311365Y-642965D02*
Y-600436D01*
X16910Y-466310D02*
X177239D01*
X311365Y-600436D01*
X174000Y-454000D02*
X323800Y-603800D01*
X30000Y-454000D02*
X174000D01*
X4600D02*
X16910Y-466310D01*
X22037Y-9254D02*
X39254D01*
X9583Y3200D02*
X22037Y-9254D01*
X4600Y3200D02*
X9583D01*
X46800D02*
X280000Y-230000D01*
X30000Y3200D02*
X46800D01*
X334800Y-505630D02*
X358489Y-529319D01*
D20*
X4600Y-149200D02*
D03*
X30000D02*
D03*
X4600Y-123800D02*
D03*
X30000D02*
D03*
X4600Y-98400D02*
D03*
X30000D02*
D03*
X4600Y-73000D02*
D03*
X30000D02*
D03*
X4600Y-47600D02*
D03*
X30000D02*
D03*
X4600Y3200D02*
D03*
X30000D02*
D03*
X4600Y28600D02*
D03*
X30000Y-22200D02*
D03*
X4600D02*
D03*
X30000Y-174600D02*
D03*
X4600D02*
D03*
X30000Y-200000D02*
D03*
X4600D02*
D03*
Y-504800D02*
D03*
X30000D02*
D03*
X4600Y-479400D02*
D03*
X30000D02*
D03*
X4600Y-454000D02*
D03*
X30000D02*
D03*
X4600Y-428600D02*
D03*
X30000D02*
D03*
X4600Y-403200D02*
D03*
X30000D02*
D03*
X4600Y-352400D02*
D03*
X30000D02*
D03*
X4600Y-327000D02*
D03*
X30000Y-377800D02*
D03*
X4600D02*
D03*
X30000Y-530200D02*
D03*
X4600D02*
D03*
X30000Y-555600D02*
D03*
X4600D02*
D03*
X412700Y80000D02*
D03*
X387300D02*
D03*
X311100D02*
D03*
X336500D02*
D03*
X361900D02*
D03*
X438100D02*
D03*
X463500D02*
D03*
X488900D02*
D03*
X514300D02*
D03*
X527000Y-655400D02*
D03*
Y-630000D02*
D03*
X501600Y-655400D02*
D03*
Y-630000D02*
D03*
X349200Y-655400D02*
D03*
Y-630000D02*
D03*
X298400Y-655400D02*
D03*
X323800Y-630000D02*
D03*
Y-655400D02*
D03*
X374600Y-630000D02*
D03*
Y-655400D02*
D03*
X400000Y-630000D02*
D03*
Y-655400D02*
D03*
X425400Y-630000D02*
D03*
Y-655400D02*
D03*
X450800Y-630000D02*
D03*
Y-655400D02*
D03*
X476200Y-630000D02*
D03*
Y-655400D02*
D03*
X562952Y-453641D02*
D03*
Y-428241D02*
D03*
Y-352040D02*
D03*
Y-377440D02*
D03*
Y-402840D02*
D03*
Y-479040D02*
D03*
Y-504440D02*
D03*
Y-529841D02*
D03*
Y-555241D02*
D03*
D21*
X30000Y28600D02*
D03*
Y-327000D02*
D03*
D22*
X285700Y80000D02*
D03*
D23*
X298400Y-630000D02*
D03*
D24*
X562952Y-326641D02*
D03*
D25*
X198950Y-620878D02*
D03*
X223950D02*
D03*
X248950D02*
D03*
X98950D02*
D03*
X173950D02*
D03*
X123950D02*
D03*
X148950D02*
D03*
X48950D02*
D03*
X73950D02*
D03*
X25000Y-650000D02*
D03*
Y-625000D02*
D03*
X3837Y-598683D02*
D03*
Y-573683D02*
D03*
X225023Y-655623D02*
D03*
X250023D02*
D03*
X275023D02*
D03*
X125023D02*
D03*
X200023D02*
D03*
X150023D02*
D03*
X175023D02*
D03*
X75023D02*
D03*
X100023D02*
D03*
X175000Y-675000D02*
D03*
X150000D02*
D03*
X125000D02*
D03*
X100000D02*
D03*
X75000D02*
D03*
X400000Y-175000D02*
D03*
Y-200000D02*
D03*
Y-225000D02*
D03*
Y-150000D02*
D03*
Y-250000D02*
D03*
X525000Y-575000D02*
D03*
Y-225000D02*
D03*
Y-400000D02*
D03*
Y-175000D02*
D03*
Y-300000D02*
D03*
Y-600000D02*
D03*
Y-375000D02*
D03*
Y-200000D02*
D03*
Y-275000D02*
D03*
Y-250000D02*
D03*
X274190D02*
D03*
Y-300000D02*
D03*
X300000Y-600000D02*
D03*
X250000Y-575000D02*
D03*
X200188Y-337305D02*
D03*
X225188D02*
D03*
X100188D02*
D03*
X175188D02*
D03*
X125188D02*
D03*
X150188D02*
D03*
X75188D02*
D03*
X349257Y-449524D02*
D03*
X424257D02*
D03*
X225000Y-450000D02*
D03*
X250000D02*
D03*
X300000D02*
D03*
X325000D02*
D03*
X0Y-675000D02*
D03*
X25000D02*
D03*
X50000D02*
D03*
X250000D02*
D03*
X225000D02*
D03*
X275000D02*
D03*
X200000D02*
D03*
X350000D02*
D03*
X325000D02*
D03*
X375000D02*
D03*
X300000D02*
D03*
X450000D02*
D03*
X425000D02*
D03*
X475000D02*
D03*
X400000D02*
D03*
X550000D02*
D03*
X525000D02*
D03*
X575000D02*
D03*
X500000D02*
D03*
X0Y-650000D02*
D03*
X550000D02*
D03*
X575000D02*
D03*
X0Y-625000D02*
D03*
X550000D02*
D03*
X575000D02*
D03*
X75000Y-600000D02*
D03*
X50000D02*
D03*
X150000D02*
D03*
X125000D02*
D03*
X175000D02*
D03*
X100000D02*
D03*
X250000D02*
D03*
X225000D02*
D03*
X275000D02*
D03*
X200000D02*
D03*
X550000D02*
D03*
X575000D02*
D03*
X75000Y-575000D02*
D03*
X25000D02*
D03*
X50000D02*
D03*
X150000D02*
D03*
X125000D02*
D03*
X175000D02*
D03*
X100000D02*
D03*
X225000D02*
D03*
X200000D02*
D03*
X550000D02*
D03*
X575000D02*
D03*
X75000Y-550000D02*
D03*
X50000D02*
D03*
X150000D02*
D03*
X125000D02*
D03*
X175000D02*
D03*
X100000D02*
D03*
X225000D02*
D03*
X200000D02*
D03*
X581577Y-549283D02*
D03*
X425000Y-525000D02*
D03*
X581577Y-524283D02*
D03*
Y-499283D02*
D03*
Y-474283D02*
D03*
Y-449283D02*
D03*
Y-424283D02*
D03*
Y-399283D02*
D03*
Y-374283D02*
D03*
Y-349283D02*
D03*
Y-324283D02*
D03*
X0Y-300000D02*
D03*
X75000D02*
D03*
X25000D02*
D03*
X50000D02*
D03*
X150000D02*
D03*
X125000D02*
D03*
X175000D02*
D03*
X100000D02*
D03*
X250000D02*
D03*
X225000D02*
D03*
X200000D02*
D03*
X350000D02*
D03*
X325000D02*
D03*
X450000D02*
D03*
X475000D02*
D03*
X550000D02*
D03*
X575000D02*
D03*
X0Y-275000D02*
D03*
X75000D02*
D03*
X25000D02*
D03*
X50000D02*
D03*
X150000D02*
D03*
X125000D02*
D03*
X175000D02*
D03*
X100000D02*
D03*
X250000D02*
D03*
X225000D02*
D03*
X200000D02*
D03*
X350000D02*
D03*
X325000D02*
D03*
X300000D02*
D03*
X450000D02*
D03*
X425000D02*
D03*
X475000D02*
D03*
X550000D02*
D03*
X575000D02*
D03*
X0Y-250000D02*
D03*
X75000D02*
D03*
X25000D02*
D03*
X50000D02*
D03*
X150000D02*
D03*
X125000D02*
D03*
X175000D02*
D03*
X100000D02*
D03*
X225000D02*
D03*
X200000D02*
D03*
X350000D02*
D03*
X325000D02*
D03*
X300000D02*
D03*
X450000D02*
D03*
X425000D02*
D03*
X475000D02*
D03*
X550000D02*
D03*
X575000D02*
D03*
X0Y-225000D02*
D03*
X75000D02*
D03*
X25000D02*
D03*
X50000D02*
D03*
X150000D02*
D03*
X125000D02*
D03*
X175000D02*
D03*
X100000D02*
D03*
X200000D02*
D03*
X325000D02*
D03*
X300000D02*
D03*
X450000D02*
D03*
X425000D02*
D03*
X475000D02*
D03*
X550000D02*
D03*
X575000D02*
D03*
X75000Y-200000D02*
D03*
X50000D02*
D03*
X150000D02*
D03*
X125000D02*
D03*
X175000D02*
D03*
X100000D02*
D03*
X275000D02*
D03*
X350000D02*
D03*
X300000D02*
D03*
X450000D02*
D03*
X425000D02*
D03*
X475000D02*
D03*
X550000D02*
D03*
X575000D02*
D03*
X150000Y-175000D02*
D03*
X125000D02*
D03*
X250000D02*
D03*
X275000D02*
D03*
X350000D02*
D03*
X325000D02*
D03*
X450000D02*
D03*
X425000D02*
D03*
X475000D02*
D03*
X550000D02*
D03*
X575000D02*
D03*
X250000Y-150000D02*
D03*
X350000D02*
D03*
X325000D02*
D03*
X300000D02*
D03*
X450000D02*
D03*
X425000D02*
D03*
X550000D02*
D03*
X525000D02*
D03*
X575000D02*
D03*
X275000Y-125000D02*
D03*
X325000D02*
D03*
X300000D02*
D03*
X425000D02*
D03*
X400000D02*
D03*
X550000D02*
D03*
X525000D02*
D03*
X575000D02*
D03*
X500000D02*
D03*
X250000Y-100000D02*
D03*
X275000D02*
D03*
X200000D02*
D03*
X350000D02*
D03*
X375000D02*
D03*
X300000D02*
D03*
X475000D02*
D03*
X400000D02*
D03*
X550000D02*
D03*
X525000D02*
D03*
X575000D02*
D03*
X500000D02*
D03*
X350000Y-75000D02*
D03*
X325000D02*
D03*
X375000D02*
D03*
X450000D02*
D03*
X475000D02*
D03*
X550000D02*
D03*
X525000D02*
D03*
X575000D02*
D03*
X500000D02*
D03*
X350000Y-50000D02*
D03*
X325000D02*
D03*
X450000D02*
D03*
X425000D02*
D03*
X475000D02*
D03*
X550000D02*
D03*
X525000D02*
D03*
X575000D02*
D03*
X500000D02*
D03*
X450000Y-25000D02*
D03*
X425000D02*
D03*
X475000D02*
D03*
X400000D02*
D03*
X550000D02*
D03*
X525000D02*
D03*
X575000D02*
D03*
X500000D02*
D03*
X75000Y0D02*
D03*
X150000D02*
D03*
X125000D02*
D03*
X175000D02*
D03*
X100000D02*
D03*
X350000D02*
D03*
X375000D02*
D03*
X300000D02*
D03*
X450000D02*
D03*
X425000D02*
D03*
X475000D02*
D03*
X400000D02*
D03*
X550000D02*
D03*
X525000D02*
D03*
X575000D02*
D03*
X500000D02*
D03*
X75000Y25000D02*
D03*
X50000D02*
D03*
X150000D02*
D03*
X125000D02*
D03*
X175000D02*
D03*
X100000D02*
D03*
X200000D02*
D03*
X325000D02*
D03*
X375000D02*
D03*
X450000D02*
D03*
X425000D02*
D03*
X475000D02*
D03*
X400000D02*
D03*
X550000D02*
D03*
X525000D02*
D03*
X575000D02*
D03*
X500000D02*
D03*
X0Y50000D02*
D03*
X75000D02*
D03*
X25000D02*
D03*
X50000D02*
D03*
X150000D02*
D03*
X125000D02*
D03*
X175000D02*
D03*
X100000D02*
D03*
X225000D02*
D03*
X200000D02*
D03*
X350000D02*
D03*
X450000D02*
D03*
X425000D02*
D03*
X475000D02*
D03*
X400000D02*
D03*
X550000D02*
D03*
X525000D02*
D03*
X575000D02*
D03*
X500000D02*
D03*
X0Y75000D02*
D03*
X75000D02*
D03*
X25000D02*
D03*
X50000D02*
D03*
X150000D02*
D03*
X125000D02*
D03*
X175000D02*
D03*
X100000D02*
D03*
X250000D02*
D03*
X225000D02*
D03*
X200000D02*
D03*
X550000D02*
D03*
X575000D02*
D03*
X0Y100000D02*
D03*
X75000D02*
D03*
X25000D02*
D03*
X50000D02*
D03*
X150000D02*
D03*
X125000D02*
D03*
X175000D02*
D03*
X100000D02*
D03*
X250000D02*
D03*
X225000D02*
D03*
X275000D02*
D03*
X200000D02*
D03*
X350000D02*
D03*
X325000D02*
D03*
X375000D02*
D03*
X300000D02*
D03*
X450000D02*
D03*
X425000D02*
D03*
X475000D02*
D03*
X400000D02*
D03*
X550000D02*
D03*
X525000D02*
D03*
X575000D02*
D03*
X500000D02*
D03*
X0Y125000D02*
D03*
X75000D02*
D03*
X25000D02*
D03*
X50000D02*
D03*
X150000D02*
D03*
X125000D02*
D03*
X175000D02*
D03*
X100000D02*
D03*
X250000D02*
D03*
X225000D02*
D03*
X275000D02*
D03*
X200000D02*
D03*
X350000D02*
D03*
X325000D02*
D03*
X375000D02*
D03*
X300000D02*
D03*
X450000D02*
D03*
X425000D02*
D03*
X475000D02*
D03*
X400000D02*
D03*
X550000D02*
D03*
X525000D02*
D03*
X575000D02*
D03*
X500000D02*
D03*
Y150000D02*
D03*
X575000D02*
D03*
X525000D02*
D03*
X550000D02*
D03*
X400000D02*
D03*
X475000D02*
D03*
X425000D02*
D03*
X450000D02*
D03*
X300000D02*
D03*
X375000D02*
D03*
X325000D02*
D03*
X350000D02*
D03*
X200000D02*
D03*
X275000D02*
D03*
X225000D02*
D03*
X250000D02*
D03*
X100000D02*
D03*
X175000D02*
D03*
X125000D02*
D03*
X150000D02*
D03*
X50000D02*
D03*
X25000D02*
D03*
X75000D02*
D03*
X0D02*
D03*
D26*
X360125Y-136449D02*
D03*
X374600Y-169596D02*
D03*
X450181Y-426497D02*
D03*
X450922Y-491589D02*
D03*
X359268Y-529842D02*
D03*
X333685Y-505269D02*
D03*
X429976Y-299249D02*
D03*
M02*
