G04*
G04 #@! TF.GenerationSoftware,Altium Limited,Altium Designer,25.6.2 (33)*
G04*
G04 Layer_Color=8388736*
%FSLAX44Y44*%
%MOMM*%
G71*
G04*
G04 #@! TF.SameCoordinates,257071CF-CA64-45DC-81DD-B27BF0D561B2*
G04*
G04*
G04 #@! TF.FilePolarity,Negative*
G04*
G01*
G75*
%ADD12C,1.9032*%
%ADD13R,1.9032X1.9032*%
G04:AMPARAMS|DCode=14|XSize=1.9032mm|YSize=1.9032mm|CornerRadius=0mm|HoleSize=0mm|Usage=FLASHONLY|Rotation=0.000|XOffset=0mm|YOffset=0mm|HoleType=Round|Shape=Octagon|*
%AMOCTAGOND14*
4,1,8,0.9516,-0.4758,0.9516,0.4758,0.4758,0.9516,-0.4758,0.9516,-0.9516,0.4758,-0.9516,-0.4758,-0.4758,-0.9516,0.4758,-0.9516,0.9516,-0.4758,0.0*
%
%ADD14OCTAGOND14*%

%ADD15R,1.9032X1.9032*%
G04:AMPARAMS|DCode=16|XSize=1.9032mm|YSize=1.9032mm|CornerRadius=0mm|HoleSize=0mm|Usage=FLASHONLY|Rotation=270.000|XOffset=0mm|YOffset=0mm|HoleType=Round|Shape=Octagon|*
%AMOCTAGOND16*
4,1,8,-0.4758,-0.9516,0.4758,-0.9516,0.9516,-0.4758,0.9516,0.4758,0.4758,0.9516,-0.4758,0.9516,-0.9516,0.4758,-0.9516,-0.4758,-0.4758,-0.9516,0.0*
%
%ADD16OCTAGOND16*%

%ADD17C,0.6032*%
%ADD18C,1.4732*%
D12*
X4600Y-149200D02*
D03*
X30000D02*
D03*
X4600Y-123800D02*
D03*
X30000D02*
D03*
X4600Y-98400D02*
D03*
X30000D02*
D03*
X4600Y-73000D02*
D03*
X30000D02*
D03*
X4600Y-47600D02*
D03*
X30000D02*
D03*
X4600Y3200D02*
D03*
X30000D02*
D03*
X4600Y28600D02*
D03*
X30000Y-22200D02*
D03*
X4600D02*
D03*
X30000Y-174600D02*
D03*
X4600D02*
D03*
X30000Y-200000D02*
D03*
X4600D02*
D03*
Y-504800D02*
D03*
X30000D02*
D03*
X4600Y-479400D02*
D03*
X30000D02*
D03*
X4600Y-454000D02*
D03*
X30000D02*
D03*
X4600Y-428600D02*
D03*
X30000D02*
D03*
X4600Y-403200D02*
D03*
X30000D02*
D03*
X4600Y-352400D02*
D03*
X30000D02*
D03*
X4600Y-327000D02*
D03*
X30000Y-377800D02*
D03*
X4600D02*
D03*
X30000Y-530200D02*
D03*
X4600D02*
D03*
X30000Y-555600D02*
D03*
X4600D02*
D03*
X412700Y80000D02*
D03*
X387300D02*
D03*
X311100D02*
D03*
X336500D02*
D03*
X361900D02*
D03*
X438100D02*
D03*
X463500D02*
D03*
X488900D02*
D03*
X514300D02*
D03*
X527000Y-655400D02*
D03*
Y-630000D02*
D03*
X501600Y-655400D02*
D03*
Y-630000D02*
D03*
X349200Y-655400D02*
D03*
Y-630000D02*
D03*
X298400Y-655400D02*
D03*
X323800Y-630000D02*
D03*
Y-655400D02*
D03*
X374600Y-630000D02*
D03*
Y-655400D02*
D03*
X400000Y-630000D02*
D03*
Y-655400D02*
D03*
X425400Y-630000D02*
D03*
Y-655400D02*
D03*
X450800Y-630000D02*
D03*
Y-655400D02*
D03*
X476200Y-630000D02*
D03*
Y-655400D02*
D03*
X562952Y-453641D02*
D03*
Y-428241D02*
D03*
Y-352040D02*
D03*
Y-377440D02*
D03*
Y-402840D02*
D03*
Y-479040D02*
D03*
Y-504440D02*
D03*
Y-529841D02*
D03*
Y-555241D02*
D03*
D13*
X30000Y28600D02*
D03*
Y-327000D02*
D03*
D14*
X285700Y80000D02*
D03*
D15*
X298400Y-630000D02*
D03*
D16*
X562952Y-326641D02*
D03*
D17*
X198950Y-620878D02*
D03*
X223950D02*
D03*
X248950D02*
D03*
X98950D02*
D03*
X173950D02*
D03*
X123950D02*
D03*
X148950D02*
D03*
X48950D02*
D03*
X73950D02*
D03*
X25000Y-650000D02*
D03*
Y-625000D02*
D03*
X3837Y-598683D02*
D03*
Y-573683D02*
D03*
X225023Y-655623D02*
D03*
X250023D02*
D03*
X275023D02*
D03*
X125023D02*
D03*
X200023D02*
D03*
X150023D02*
D03*
X175023D02*
D03*
X75023D02*
D03*
X100023D02*
D03*
X175000Y-675000D02*
D03*
X150000D02*
D03*
X125000D02*
D03*
X100000D02*
D03*
X75000D02*
D03*
X400000Y-175000D02*
D03*
Y-200000D02*
D03*
Y-225000D02*
D03*
Y-150000D02*
D03*
Y-250000D02*
D03*
X525000Y-575000D02*
D03*
Y-225000D02*
D03*
Y-400000D02*
D03*
Y-175000D02*
D03*
Y-300000D02*
D03*
Y-600000D02*
D03*
Y-375000D02*
D03*
Y-200000D02*
D03*
Y-275000D02*
D03*
Y-250000D02*
D03*
X274190D02*
D03*
Y-300000D02*
D03*
X300000Y-600000D02*
D03*
X250000Y-575000D02*
D03*
X200188Y-337305D02*
D03*
X225188D02*
D03*
X100188D02*
D03*
X175188D02*
D03*
X125188D02*
D03*
X150188D02*
D03*
X75188D02*
D03*
X349257Y-449524D02*
D03*
X424257D02*
D03*
X225000Y-450000D02*
D03*
X250000D02*
D03*
X300000D02*
D03*
X325000D02*
D03*
X0Y-675000D02*
D03*
X25000D02*
D03*
X50000D02*
D03*
X250000D02*
D03*
X225000D02*
D03*
X275000D02*
D03*
X200000D02*
D03*
X350000D02*
D03*
X325000D02*
D03*
X375000D02*
D03*
X300000D02*
D03*
X450000D02*
D03*
X425000D02*
D03*
X475000D02*
D03*
X400000D02*
D03*
X550000D02*
D03*
X525000D02*
D03*
X575000D02*
D03*
X500000D02*
D03*
X0Y-650000D02*
D03*
X550000D02*
D03*
X575000D02*
D03*
X0Y-625000D02*
D03*
X550000D02*
D03*
X575000D02*
D03*
X75000Y-600000D02*
D03*
X50000D02*
D03*
X150000D02*
D03*
X125000D02*
D03*
X175000D02*
D03*
X100000D02*
D03*
X250000D02*
D03*
X225000D02*
D03*
X275000D02*
D03*
X200000D02*
D03*
X550000D02*
D03*
X575000D02*
D03*
X75000Y-575000D02*
D03*
X25000D02*
D03*
X50000D02*
D03*
X150000D02*
D03*
X125000D02*
D03*
X175000D02*
D03*
X100000D02*
D03*
X225000D02*
D03*
X200000D02*
D03*
X550000D02*
D03*
X575000D02*
D03*
X75000Y-550000D02*
D03*
X50000D02*
D03*
X150000D02*
D03*
X125000D02*
D03*
X175000D02*
D03*
X100000D02*
D03*
X225000D02*
D03*
X200000D02*
D03*
X581577Y-549283D02*
D03*
X425000Y-525000D02*
D03*
X581577Y-524283D02*
D03*
Y-499283D02*
D03*
Y-474283D02*
D03*
Y-449283D02*
D03*
Y-424283D02*
D03*
Y-399283D02*
D03*
Y-374283D02*
D03*
Y-349283D02*
D03*
Y-324283D02*
D03*
X0Y-300000D02*
D03*
X75000D02*
D03*
X25000D02*
D03*
X50000D02*
D03*
X150000D02*
D03*
X125000D02*
D03*
X175000D02*
D03*
X100000D02*
D03*
X250000D02*
D03*
X225000D02*
D03*
X200000D02*
D03*
X350000D02*
D03*
X325000D02*
D03*
X450000D02*
D03*
X475000D02*
D03*
X550000D02*
D03*
X575000D02*
D03*
X0Y-275000D02*
D03*
X75000D02*
D03*
X25000D02*
D03*
X50000D02*
D03*
X150000D02*
D03*
X125000D02*
D03*
X175000D02*
D03*
X100000D02*
D03*
X250000D02*
D03*
X225000D02*
D03*
X200000D02*
D03*
X350000D02*
D03*
X325000D02*
D03*
X300000D02*
D03*
X450000D02*
D03*
X425000D02*
D03*
X475000D02*
D03*
X550000D02*
D03*
X575000D02*
D03*
X0Y-250000D02*
D03*
X75000D02*
D03*
X25000D02*
D03*
X50000D02*
D03*
X150000D02*
D03*
X125000D02*
D03*
X175000D02*
D03*
X100000D02*
D03*
X225000D02*
D03*
X200000D02*
D03*
X350000D02*
D03*
X325000D02*
D03*
X300000D02*
D03*
X450000D02*
D03*
X425000D02*
D03*
X475000D02*
D03*
X550000D02*
D03*
X575000D02*
D03*
X0Y-225000D02*
D03*
X75000D02*
D03*
X25000D02*
D03*
X50000D02*
D03*
X150000D02*
D03*
X125000D02*
D03*
X175000D02*
D03*
X100000D02*
D03*
X200000D02*
D03*
X325000D02*
D03*
X300000D02*
D03*
X450000D02*
D03*
X425000D02*
D03*
X475000D02*
D03*
X550000D02*
D03*
X575000D02*
D03*
X75000Y-200000D02*
D03*
X50000D02*
D03*
X150000D02*
D03*
X125000D02*
D03*
X175000D02*
D03*
X100000D02*
D03*
X275000D02*
D03*
X350000D02*
D03*
X300000D02*
D03*
X450000D02*
D03*
X425000D02*
D03*
X475000D02*
D03*
X550000D02*
D03*
X575000D02*
D03*
X150000Y-175000D02*
D03*
X125000D02*
D03*
X250000D02*
D03*
X275000D02*
D03*
X350000D02*
D03*
X325000D02*
D03*
X450000D02*
D03*
X425000D02*
D03*
X475000D02*
D03*
X550000D02*
D03*
X575000D02*
D03*
X250000Y-150000D02*
D03*
X350000D02*
D03*
X325000D02*
D03*
X300000D02*
D03*
X450000D02*
D03*
X425000D02*
D03*
X550000D02*
D03*
X525000D02*
D03*
X575000D02*
D03*
X275000Y-125000D02*
D03*
X325000D02*
D03*
X300000D02*
D03*
X425000D02*
D03*
X400000D02*
D03*
X550000D02*
D03*
X525000D02*
D03*
X575000D02*
D03*
X500000D02*
D03*
X250000Y-100000D02*
D03*
X275000D02*
D03*
X200000D02*
D03*
X350000D02*
D03*
X375000D02*
D03*
X300000D02*
D03*
X475000D02*
D03*
X400000D02*
D03*
X550000D02*
D03*
X525000D02*
D03*
X575000D02*
D03*
X500000D02*
D03*
X350000Y-75000D02*
D03*
X325000D02*
D03*
X375000D02*
D03*
X450000D02*
D03*
X475000D02*
D03*
X550000D02*
D03*
X525000D02*
D03*
X575000D02*
D03*
X500000D02*
D03*
X350000Y-50000D02*
D03*
X325000D02*
D03*
X450000D02*
D03*
X425000D02*
D03*
X475000D02*
D03*
X550000D02*
D03*
X525000D02*
D03*
X575000D02*
D03*
X500000D02*
D03*
X450000Y-25000D02*
D03*
X425000D02*
D03*
X475000D02*
D03*
X400000D02*
D03*
X550000D02*
D03*
X525000D02*
D03*
X575000D02*
D03*
X500000D02*
D03*
X75000Y0D02*
D03*
X150000D02*
D03*
X125000D02*
D03*
X175000D02*
D03*
X100000D02*
D03*
X350000D02*
D03*
X375000D02*
D03*
X300000D02*
D03*
X450000D02*
D03*
X425000D02*
D03*
X475000D02*
D03*
X400000D02*
D03*
X550000D02*
D03*
X525000D02*
D03*
X575000D02*
D03*
X500000D02*
D03*
X75000Y25000D02*
D03*
X50000D02*
D03*
X150000D02*
D03*
X125000D02*
D03*
X175000D02*
D03*
X100000D02*
D03*
X200000D02*
D03*
X325000D02*
D03*
X375000D02*
D03*
X450000D02*
D03*
X425000D02*
D03*
X475000D02*
D03*
X400000D02*
D03*
X550000D02*
D03*
X525000D02*
D03*
X575000D02*
D03*
X500000D02*
D03*
X0Y50000D02*
D03*
X75000D02*
D03*
X25000D02*
D03*
X50000D02*
D03*
X150000D02*
D03*
X125000D02*
D03*
X175000D02*
D03*
X100000D02*
D03*
X225000D02*
D03*
X200000D02*
D03*
X350000D02*
D03*
X450000D02*
D03*
X425000D02*
D03*
X475000D02*
D03*
X400000D02*
D03*
X550000D02*
D03*
X525000D02*
D03*
X575000D02*
D03*
X500000D02*
D03*
X0Y75000D02*
D03*
X75000D02*
D03*
X25000D02*
D03*
X50000D02*
D03*
X150000D02*
D03*
X125000D02*
D03*
X175000D02*
D03*
X100000D02*
D03*
X250000D02*
D03*
X225000D02*
D03*
X200000D02*
D03*
X550000D02*
D03*
X575000D02*
D03*
X0Y100000D02*
D03*
X75000D02*
D03*
X25000D02*
D03*
X50000D02*
D03*
X150000D02*
D03*
X125000D02*
D03*
X175000D02*
D03*
X100000D02*
D03*
X250000D02*
D03*
X225000D02*
D03*
X275000D02*
D03*
X200000D02*
D03*
X350000D02*
D03*
X325000D02*
D03*
X375000D02*
D03*
X300000D02*
D03*
X450000D02*
D03*
X425000D02*
D03*
X475000D02*
D03*
X400000D02*
D03*
X550000D02*
D03*
X525000D02*
D03*
X575000D02*
D03*
X500000D02*
D03*
X0Y125000D02*
D03*
X75000D02*
D03*
X25000D02*
D03*
X50000D02*
D03*
X150000D02*
D03*
X125000D02*
D03*
X175000D02*
D03*
X100000D02*
D03*
X250000D02*
D03*
X225000D02*
D03*
X275000D02*
D03*
X200000D02*
D03*
X350000D02*
D03*
X325000D02*
D03*
X375000D02*
D03*
X300000D02*
D03*
X450000D02*
D03*
X425000D02*
D03*
X475000D02*
D03*
X400000D02*
D03*
X550000D02*
D03*
X525000D02*
D03*
X575000D02*
D03*
X500000D02*
D03*
Y150000D02*
D03*
X575000D02*
D03*
X525000D02*
D03*
X550000D02*
D03*
X400000D02*
D03*
X475000D02*
D03*
X425000D02*
D03*
X450000D02*
D03*
X300000D02*
D03*
X375000D02*
D03*
X325000D02*
D03*
X350000D02*
D03*
X200000D02*
D03*
X275000D02*
D03*
X225000D02*
D03*
X250000D02*
D03*
X100000D02*
D03*
X175000D02*
D03*
X125000D02*
D03*
X150000D02*
D03*
X50000D02*
D03*
X25000D02*
D03*
X75000D02*
D03*
X0D02*
D03*
D18*
X360125Y-136449D02*
D03*
X374600Y-169596D02*
D03*
X450181Y-426497D02*
D03*
X450922Y-491589D02*
D03*
X359268Y-529842D02*
D03*
X333685Y-505269D02*
D03*
X429976Y-299249D02*
D03*
M02*
